<?xml version="1.0" encoding="UTF-8"?>
<svg xmlns="http://www.w3.org/2000/svg" xmlns:xlink="http://www.w3.org/1999/xlink" width="55.4" height="71.4" viewBox="0 0 55.4 71.4">
<defs>
<clipPath id="clip-0">
<path clip-rule="nonzero" d="M 24 64 L 31 64 L 31 70.722656 L 24 70.722656 Z M 24 64 "/>
</clipPath>
<clipPath id="clip-1">
<path clip-rule="nonzero" d="M 24 0.0859375 L 31 0.0859375 L 31 7 L 24 7 Z M 24 0.0859375 "/>
</clipPath>
<clipPath id="clip-2">
<path clip-rule="nonzero" d="M 11 0.0859375 L 20 0.0859375 L 20 7 L 11 7 Z M 11 0.0859375 "/>
</clipPath>
<clipPath id="clip-3">
<path clip-rule="nonzero" d="M 35 0.0859375 L 44 0.0859375 L 44 7 L 35 7 Z M 35 0.0859375 "/>
</clipPath>
<clipPath id="clip-4">
<path clip-rule="nonzero" d="M 0 0.0859375 L 7 0.0859375 L 7 7 L 0 7 Z M 0 0.0859375 "/>
</clipPath>
<clipPath id="clip-5">
<path clip-rule="nonzero" d="M 0 64 L 7 64 L 7 70.722656 L 0 70.722656 Z M 0 64 "/>
</clipPath>
<clipPath id="clip-6">
<path clip-rule="nonzero" d="M 48 0.0859375 L 54.804688 0.0859375 L 54.804688 7 L 48 7 Z M 48 0.0859375 "/>
</clipPath>
<clipPath id="clip-7">
<path clip-rule="nonzero" d="M 48 16 L 54.804688 16 L 54.804688 23 L 48 23 Z M 48 16 "/>
</clipPath>
<clipPath id="clip-8">
<path clip-rule="nonzero" d="M 48 32 L 54.804688 32 L 54.804688 39 L 48 39 Z M 48 32 "/>
</clipPath>
<clipPath id="clip-9">
<path clip-rule="nonzero" d="M 48 48 L 54.804688 48 L 54.804688 55 L 48 55 Z M 48 48 "/>
</clipPath>
<clipPath id="clip-10">
<path clip-rule="nonzero" d="M 48 64 L 54.804688 64 L 54.804688 70.722656 L 48 70.722656 Z M 48 64 "/>
</clipPath>
</defs>
<g clip-path="url(#clip-0)">
<path fill-rule="evenodd" fill="rgb(25.099182%, 87.799072%, 81.599426%)" fill-opacity="1" d="M 30.371094 67.058594 C 30.371094 65.421875 29.042969 64.09375 27.402344 64.09375 C 25.765625 64.09375 24.433594 65.421875 24.433594 67.058594 C 24.433594 68.699219 25.765625 70.027344 27.402344 70.027344 C 29.042969 70.027344 30.371094 68.699219 30.371094 67.058594 "/>
</g>
<g clip-path="url(#clip-1)">
<path fill-rule="evenodd" fill="rgb(62.69989%, 12.5%, 94.099426%)" fill-opacity="1" d="M 30.371094 3.746094 C 30.371094 2.105469 29.042969 0.777344 27.402344 0.777344 C 25.765625 0.777344 24.433594 2.105469 24.433594 3.746094 C 24.433594 5.386719 25.765625 6.714844 27.402344 6.714844 C 29.042969 6.714844 30.371094 5.386719 30.371094 3.746094 "/>
</g>
<path fill="none" stroke-width="1.2" stroke-linecap="round" stroke-linejoin="round" stroke="rgb(62.69989%, 12.5%, 94.099426%)" stroke-opacity="1" stroke-miterlimit="10" d="M 191.999797 767.999977 L 215.99912 767.999977 " transform="matrix(0.989286, 0, 0, -0.989286, -186.2825, 763.5175)"/>
<path fill-rule="evenodd" fill="rgb(100%, 100%, 100%)" fill-opacity="1" d="M 18.996094 3.746094 L 12.070312 1.441406 L 13.453125 3.746094 L 12.070312 6.050781 Z M 18.996094 3.746094 "/>
<g clip-path="url(#clip-2)">
<path fill="none" stroke-width="1.2" stroke-linecap="round" stroke-linejoin="round" stroke="rgb(62.69989%, 12.5%, 94.099426%)" stroke-opacity="1" stroke-miterlimit="10" d="M 207.501828 767.999977 L 200.501038 770.329625 L 201.898827 767.999977 L 200.501038 765.670329 Z M 207.501828 767.999977 " transform="matrix(0.989286, 0, 0, -0.989286, -186.2825, 763.5175)"/>
</g>
<path fill="none" stroke-width="1.2" stroke-linecap="round" stroke-linejoin="round" stroke="rgb(62.69989%, 12.5%, 94.099426%)" stroke-opacity="1" stroke-miterlimit="10" d="M 191.999797 752.000429 L 215.99912 767.999977 " transform="matrix(0.989286, 0, 0, -0.989286, -186.2825, 763.5175)"/>
<path fill-rule="evenodd" fill="rgb(100%, 100%, 100%)" fill-opacity="1" stroke-width="1.2" stroke-linecap="round" stroke-linejoin="round" stroke="rgb(62.69989%, 12.5%, 94.099426%)" stroke-opacity="1" stroke-miterlimit="10" d="M 206.913493 761.942893 L 199.794246 759.996255 L 202.254197 758.835379 L 202.380551 756.118773 Z M 206.913493 761.942893 " transform="matrix(0.989286, 0, 0, -0.989286, -186.2825, 763.5175)"/>
<path fill="none" stroke-width="1.2" stroke-linecap="round" stroke-linejoin="round" stroke="rgb(62.69989%, 12.5%, 94.099426%)" stroke-opacity="1" stroke-miterlimit="10" d="M 191.999797 736.00088 L 215.99912 767.999977 " transform="matrix(0.989286, 0, 0, -0.989286, -186.2825, 763.5175)"/>
<path fill-rule="evenodd" fill="rgb(100%, 100%, 100%)" fill-opacity="1" stroke-width="1.2" stroke-linecap="round" stroke-linejoin="round" stroke="rgb(62.69989%, 12.5%, 94.099426%)" stroke-opacity="1" stroke-miterlimit="10" d="M 206.10009 754.799955 L 200.035108 750.598691 L 202.739869 750.318344 L 203.766494 747.799165 Z M 206.10009 754.799955 " transform="matrix(0.989286, 0, 0, -0.989286, -186.2825, 763.5175)"/>
<path fill="none" stroke-width="1.2" stroke-linecap="round" stroke-linejoin="round" stroke="rgb(62.69989%, 12.5%, 94.099426%)" stroke-opacity="1" stroke-miterlimit="10" d="M 191.999797 720.001331 L 215.99912 767.999977 " transform="matrix(0.989286, 0, 0, -0.989286, -186.2825, 763.5175)"/>
<path fill-rule="evenodd" fill="rgb(100%, 100%, 100%)" fill-opacity="1" stroke-width="1.2" stroke-linecap="round" stroke-linejoin="round" stroke="rgb(62.69989%, 12.5%, 94.099426%)" stroke-opacity="1" stroke-miterlimit="10" d="M 205.563087 747.131859 L 200.350993 741.911868 L 203.059702 742.121142 L 204.520668 739.827031 Z M 205.563087 747.131859 " transform="matrix(0.989286, 0, 0, -0.989286, -186.2825, 763.5175)"/>
<path fill="none" stroke-width="1.2" stroke-linecap="round" stroke-linejoin="round" stroke="rgb(62.69989%, 12.5%, 94.099426%)" stroke-opacity="1" stroke-miterlimit="10" d="M 191.999797 704.001782 L 215.99912 767.999977 " transform="matrix(0.989286, 0, 0, -0.989286, -186.2825, 763.5175)"/>
<path fill-rule="evenodd" fill="rgb(100%, 100%, 100%)" fill-opacity="1" stroke-width="1.2" stroke-linecap="round" stroke-linejoin="round" stroke="rgb(62.69989%, 12.5%, 94.099426%)" stroke-opacity="1" stroke-miterlimit="10" d="M 205.227459 739.278181 L 200.587906 733.54093 L 203.261079 734.034499 L 204.955009 731.902279 Z M 205.227459 739.278181 " transform="matrix(0.989286, 0, 0, -0.989286, -186.2825, 763.5175)"/>
<path fill="none" stroke-width="1.2" stroke-linecap="round" stroke-linejoin="round" stroke="rgb(62.69989%, 12.5%, 94.099426%)" stroke-opacity="1" stroke-miterlimit="10" d="M 215.99912 767.999977 L 239.998443 767.999977 " transform="matrix(0.989286, 0, 0, -0.989286, -186.2825, 763.5175)"/>
<path fill-rule="evenodd" fill="rgb(100%, 100%, 100%)" fill-opacity="1" d="M 42.738281 3.746094 L 35.8125 1.441406 L 37.195312 3.746094 L 35.8125 6.050781 Z M 42.738281 3.746094 "/>
<g clip-path="url(#clip-3)">
<path fill="none" stroke-width="1.2" stroke-linecap="round" stroke-linejoin="round" stroke="rgb(62.69989%, 12.5%, 94.099426%)" stroke-opacity="1" stroke-miterlimit="10" d="M 231.501151 767.999977 L 224.500361 770.329625 L 225.89815 767.999977 L 224.500361 765.670329 Z M 231.501151 767.999977 " transform="matrix(0.989286, 0, 0, -0.989286, -186.2825, 763.5175)"/>
</g>
<path fill="none" stroke-width="1.2" stroke-linecap="round" stroke-linejoin="round" stroke="rgb(62.69989%, 12.5%, 94.099426%)" stroke-opacity="1" stroke-miterlimit="10" d="M 215.99912 767.999977 L 239.998443 752.000429 " transform="matrix(0.989286, 0, 0, -0.989286, -186.2825, 763.5175)"/>
<path fill-rule="evenodd" fill="rgb(100%, 100%, 100%)" fill-opacity="1" stroke-width="1.2" stroke-linecap="round" stroke-linejoin="round" stroke="rgb(62.69989%, 12.5%, 94.099426%)" stroke-opacity="1" stroke-miterlimit="10" d="M 230.912816 758.057514 L 226.379874 763.881634 L 226.25352 761.165027 L 223.793569 760.000203 Z M 230.912816 758.057514 " transform="matrix(0.989286, 0, 0, -0.989286, -186.2825, 763.5175)"/>
<path fill="none" stroke-width="1.2" stroke-linecap="round" stroke-linejoin="round" stroke="rgb(62.69989%, 12.5%, 94.099426%)" stroke-opacity="1" stroke-miterlimit="10" d="M 215.99912 767.999977 L 239.998443 736.00088 " transform="matrix(0.989286, 0, 0, -0.989286, -186.2825, 763.5175)"/>
<path fill-rule="evenodd" fill="rgb(100%, 100%, 100%)" fill-opacity="1" stroke-width="1.2" stroke-linecap="round" stroke-linejoin="round" stroke="rgb(62.69989%, 12.5%, 94.099426%)" stroke-opacity="1" stroke-miterlimit="10" d="M 230.099413 749.200903 L 227.765817 756.197744 L 226.739192 753.678565 L 224.034431 753.402166 Z M 230.099413 749.200903 " transform="matrix(0.989286, 0, 0, -0.989286, -186.2825, 763.5175)"/>
<path fill="none" stroke-width="1.2" stroke-linecap="round" stroke-linejoin="round" stroke="rgb(62.69989%, 12.5%, 94.099426%)" stroke-opacity="1" stroke-miterlimit="10" d="M 215.99912 767.999977 L 239.998443 720.001331 " transform="matrix(0.989286, 0, 0, -0.989286, -186.2825, 763.5175)"/>
<path fill-rule="evenodd" fill="rgb(100%, 100%, 100%)" fill-opacity="1" stroke-width="1.2" stroke-linecap="round" stroke-linejoin="round" stroke="rgb(62.69989%, 12.5%, 94.099426%)" stroke-opacity="1" stroke-miterlimit="10" d="M 229.566358 740.869449 L 228.519991 748.174278 L 227.062974 745.876218 L 224.350316 746.08944 Z M 229.566358 740.869449 " transform="matrix(0.989286, 0, 0, -0.989286, -186.2825, 763.5175)"/>
<path fill="none" stroke-width="1.2" stroke-linecap="round" stroke-linejoin="round" stroke="rgb(62.69989%, 12.5%, 94.099426%)" stroke-opacity="1" stroke-miterlimit="10" d="M 215.99912 767.999977 L 239.998443 704.001782 " transform="matrix(0.989286, 0, 0, -0.989286, -186.2825, 763.5175)"/>
<path fill-rule="evenodd" fill="rgb(100%, 100%, 100%)" fill-opacity="1" stroke-width="1.2" stroke-linecap="round" stroke-linejoin="round" stroke="rgb(62.69989%, 12.5%, 94.099426%)" stroke-opacity="1" stroke-miterlimit="10" d="M 229.230731 732.723579 L 228.954332 740.095532 L 227.26435 737.967261 L 224.587229 738.46083 Z M 229.230731 732.723579 " transform="matrix(0.989286, 0, 0, -0.989286, -186.2825, 763.5175)"/>
<path fill="none" stroke-width="1.2" stroke-linecap="round" stroke-linejoin="round" stroke="rgb(25.099182%, 87.799072%, 81.599426%)" stroke-opacity="1" stroke-miterlimit="10" d="M 239.998443 767.999977 L 215.99912 704.001782 " transform="matrix(0.989286, 0, 0, -0.989286, -186.2825, 763.5175)"/>
<path fill-rule="evenodd" fill="rgb(100%, 100%, 100%)" fill-opacity="1" stroke-width="1.2" stroke-linecap="round" stroke-linejoin="round" stroke="rgb(25.099182%, 87.799072%, 81.599426%)" stroke-opacity="1" stroke-miterlimit="10" d="M 226.770781 732.723579 L 231.410334 738.46083 L 228.737162 737.967261 L 227.04718 740.095532 Z M 226.770781 732.723579 " transform="matrix(0.989286, 0, 0, -0.989286, -186.2825, 763.5175)"/>
<path fill="none" stroke-width="1.2" stroke-linecap="round" stroke-linejoin="round" stroke="rgb(25.099182%, 87.799072%, 81.599426%)" stroke-opacity="1" stroke-miterlimit="10" d="M 239.998443 752.000429 L 215.99912 704.001782 " transform="matrix(0.989286, 0, 0, -0.989286, -186.2825, 763.5175)"/>
<path fill-rule="evenodd" fill="rgb(100%, 100%, 100%)" fill-opacity="1" stroke-width="1.2" stroke-linecap="round" stroke-linejoin="round" stroke="rgb(25.099182%, 87.799072%, 81.599426%)" stroke-opacity="1" stroke-miterlimit="10" d="M 226.435153 724.869901 L 231.651196 730.089892 L 228.938538 729.87667 L 227.481521 732.174729 Z M 226.435153 724.869901 " transform="matrix(0.989286, 0, 0, -0.989286, -186.2825, 763.5175)"/>
<path fill="none" stroke-width="1.2" stroke-linecap="round" stroke-linejoin="round" stroke="rgb(25.099182%, 87.799072%, 81.599426%)" stroke-opacity="1" stroke-miterlimit="10" d="M 239.998443 736.00088 L 215.99912 704.001782 " transform="matrix(0.989286, 0, 0, -0.989286, -186.2825, 763.5175)"/>
<path fill-rule="evenodd" fill="rgb(100%, 100%, 100%)" fill-opacity="1" stroke-width="1.2" stroke-linecap="round" stroke-linejoin="round" stroke="rgb(25.099182%, 87.799072%, 81.599426%)" stroke-opacity="1" stroke-miterlimit="10" d="M 225.89815 717.201805 L 231.963132 721.39912 L 229.258371 721.679468 L 228.235695 724.198646 Z M 225.89815 717.201805 " transform="matrix(0.989286, 0, 0, -0.989286, -186.2825, 763.5175)"/>
<path fill="none" stroke-width="1.2" stroke-linecap="round" stroke-linejoin="round" stroke="rgb(25.099182%, 87.799072%, 81.599426%)" stroke-opacity="1" stroke-miterlimit="10" d="M 239.998443 720.001331 L 215.99912 704.001782 " transform="matrix(0.989286, 0, 0, -0.989286, -186.2825, 763.5175)"/>
<path fill-rule="evenodd" fill="rgb(100%, 100%, 100%)" fill-opacity="1" stroke-width="1.2" stroke-linecap="round" stroke-linejoin="round" stroke="rgb(25.099182%, 87.799072%, 81.599426%)" stroke-opacity="1" stroke-miterlimit="10" d="M 225.088696 710.058867 L 232.203994 712.001557 L 229.747992 713.166381 L 229.61769 715.879039 Z M 225.088696 710.058867 " transform="matrix(0.989286, 0, 0, -0.989286, -186.2825, 763.5175)"/>
<path fill="none" stroke-width="1.2" stroke-linecap="round" stroke-linejoin="round" stroke="rgb(25.099182%, 87.799072%, 81.599426%)" stroke-opacity="1" stroke-miterlimit="10" d="M 239.998443 704.001782 L 215.99912 704.001782 " transform="matrix(0.989286, 0, 0, -0.989286, -186.2825, 763.5175)"/>
<path fill-rule="evenodd" fill="rgb(100%, 100%, 100%)" fill-opacity="1" stroke-width="1.2" stroke-linecap="round" stroke-linejoin="round" stroke="rgb(25.099182%, 87.799072%, 81.599426%)" stroke-opacity="1" stroke-miterlimit="10" d="M 224.500361 704.001782 L 231.501151 701.668186 L 230.099413 704.001782 L 231.501151 706.331431 Z M 224.500361 704.001782 " transform="matrix(0.989286, 0, 0, -0.989286, -186.2825, 763.5175)"/>
<path fill="none" stroke-width="1.2" stroke-linecap="round" stroke-linejoin="round" stroke="rgb(25.099182%, 87.799072%, 81.599426%)" stroke-opacity="1" stroke-miterlimit="10" d="M 215.99912 704.001782 L 191.999797 704.001782 " transform="matrix(0.989286, 0, 0, -0.989286, -186.2825, 763.5175)"/>
<path fill-rule="evenodd" fill="rgb(100%, 100%, 100%)" fill-opacity="1" stroke-width="1.2" stroke-linecap="round" stroke-linejoin="round" stroke="rgb(25.099182%, 87.799072%, 81.599426%)" stroke-opacity="1" stroke-miterlimit="10" d="M 200.501038 704.001782 L 207.501828 701.668186 L 206.10009 704.001782 L 207.501828 706.331431 Z M 200.501038 704.001782 " transform="matrix(0.989286, 0, 0, -0.989286, -186.2825, 763.5175)"/>
<path fill="none" stroke-width="1.2" stroke-linecap="round" stroke-linejoin="round" stroke="rgb(25.099182%, 87.799072%, 81.599426%)" stroke-opacity="1" stroke-miterlimit="10" d="M 215.99912 704.001782 L 191.999797 720.001331 " transform="matrix(0.989286, 0, 0, -0.989286, -186.2825, 763.5175)"/>
<path fill-rule="evenodd" fill="rgb(100%, 100%, 100%)" fill-opacity="1" stroke-width="1.2" stroke-linecap="round" stroke-linejoin="round" stroke="rgb(25.099182%, 87.799072%, 81.599426%)" stroke-opacity="1" stroke-miterlimit="10" d="M 201.089373 713.940298 L 205.618366 708.120126 L 205.748669 710.836733 L 208.204671 711.997608 Z M 201.089373 713.940298 " transform="matrix(0.989286, 0, 0, -0.989286, -186.2825, 763.5175)"/>
<path fill="none" stroke-width="1.2" stroke-linecap="round" stroke-linejoin="round" stroke="rgb(25.099182%, 87.799072%, 81.599426%)" stroke-opacity="1" stroke-miterlimit="10" d="M 215.99912 704.001782 L 191.999797 736.00088 " transform="matrix(0.989286, 0, 0, -0.989286, -186.2825, 763.5175)"/>
<path fill-rule="evenodd" fill="rgb(100%, 100%, 100%)" fill-opacity="1" stroke-width="1.2" stroke-linecap="round" stroke-linejoin="round" stroke="rgb(25.099182%, 87.799072%, 81.599426%)" stroke-opacity="1" stroke-miterlimit="10" d="M 201.898827 722.800857 L 204.236372 715.800068 L 205.259048 718.319246 L 207.963809 718.599594 Z M 201.898827 722.800857 " transform="matrix(0.989286, 0, 0, -0.989286, -186.2825, 763.5175)"/>
<path fill="none" stroke-width="1.2" stroke-linecap="round" stroke-linejoin="round" stroke="rgb(25.099182%, 87.799072%, 81.599426%)" stroke-opacity="1" stroke-miterlimit="10" d="M 215.99912 704.001782 L 191.999797 752.000429 " transform="matrix(0.989286, 0, 0, -0.989286, -186.2825, 763.5175)"/>
<path fill-rule="evenodd" fill="rgb(100%, 100%, 100%)" fill-opacity="1" stroke-width="1.2" stroke-linecap="round" stroke-linejoin="round" stroke="rgb(25.099182%, 87.799072%, 81.599426%)" stroke-opacity="1" stroke-miterlimit="10" d="M 202.43583 731.128362 L 203.478249 723.827482 L 204.939215 726.121593 L 207.651873 725.912319 Z M 202.43583 731.128362 " transform="matrix(0.989286, 0, 0, -0.989286, -186.2825, 763.5175)"/>
<path fill="none" stroke-width="1.2" stroke-linecap="round" stroke-linejoin="round" stroke="rgb(25.099182%, 87.799072%, 81.599426%)" stroke-opacity="1" stroke-miterlimit="10" d="M 215.99912 704.001782 L 191.999797 767.999977 " transform="matrix(0.989286, 0, 0, -0.989286, -186.2825, 763.5175)"/>
<path fill-rule="evenodd" fill="rgb(100%, 100%, 100%)" fill-opacity="1" stroke-width="1.2" stroke-linecap="round" stroke-linejoin="round" stroke="rgb(25.099182%, 87.799072%, 81.599426%)" stroke-opacity="1" stroke-miterlimit="10" d="M 202.771458 739.278181 L 203.047856 731.902279 L 204.737838 734.034499 L 207.411011 733.54093 Z M 202.771458 739.278181 " transform="matrix(0.989286, 0, 0, -0.989286, -186.2825, 763.5175)"/>
<g clip-path="url(#clip-4)">
<path fill-rule="evenodd" fill="rgb(0%, 0%, 0%)" fill-opacity="1" d="M 6.628906 3.746094 C 6.628906 2.105469 5.300781 0.777344 3.660156 0.777344 C 2.019531 0.777344 0.691406 2.105469 0.691406 3.746094 C 0.691406 5.386719 2.019531 6.714844 3.660156 6.714844 C 5.300781 6.714844 6.628906 5.386719 6.628906 3.746094 "/>
</g>
<path fill-rule="evenodd" fill="rgb(0%, 0%, 0%)" fill-opacity="1" d="M 6.628906 19.574219 C 6.628906 17.933594 5.300781 16.605469 3.660156 16.605469 C 2.019531 16.605469 0.691406 17.933594 0.691406 19.574219 C 0.691406 21.214844 2.019531 22.542969 3.660156 22.542969 C 5.300781 22.542969 6.628906 21.214844 6.628906 19.574219 "/>
<path fill-rule="evenodd" fill="rgb(0%, 0%, 0%)" fill-opacity="1" d="M 6.628906 35.402344 C 6.628906 33.765625 5.300781 32.433594 3.660156 32.433594 C 2.019531 32.433594 0.691406 33.765625 0.691406 35.402344 C 0.691406 37.042969 2.019531 38.371094 3.660156 38.371094 C 5.300781 38.371094 6.628906 37.042969 6.628906 35.402344 "/>
<path fill-rule="evenodd" fill="rgb(0%, 0%, 0%)" fill-opacity="1" d="M 6.628906 51.230469 C 6.628906 49.59375 5.300781 48.265625 3.660156 48.265625 C 2.019531 48.265625 0.691406 49.59375 0.691406 51.230469 C 0.691406 52.871094 2.019531 54.199219 3.660156 54.199219 C 5.300781 54.199219 6.628906 52.871094 6.628906 51.230469 "/>
<g clip-path="url(#clip-5)">
<path fill-rule="evenodd" fill="rgb(0%, 0%, 0%)" fill-opacity="1" d="M 6.628906 67.058594 C 6.628906 65.421875 5.300781 64.09375 3.660156 64.09375 C 2.019531 64.09375 0.691406 65.421875 0.691406 67.058594 C 0.691406 68.699219 2.019531 70.027344 3.660156 70.027344 C 5.300781 70.027344 6.628906 68.699219 6.628906 67.058594 "/>
</g>
<g clip-path="url(#clip-6)">
<path fill-rule="evenodd" fill="rgb(0%, 0%, 0%)" fill-opacity="1" d="M 54.113281 3.746094 C 54.113281 2.105469 52.785156 0.777344 51.144531 0.777344 C 49.507812 0.777344 48.179688 2.105469 48.179688 3.746094 C 48.179688 5.386719 49.507812 6.714844 51.144531 6.714844 C 52.785156 6.714844 54.113281 5.386719 54.113281 3.746094 "/>
</g>
<g clip-path="url(#clip-7)">
<path fill-rule="evenodd" fill="rgb(0%, 0%, 0%)" fill-opacity="1" d="M 54.113281 19.574219 C 54.113281 17.933594 52.785156 16.605469 51.144531 16.605469 C 49.507812 16.605469 48.179688 17.933594 48.179688 19.574219 C 48.179688 21.214844 49.507812 22.542969 51.144531 22.542969 C 52.785156 22.542969 54.113281 21.214844 54.113281 19.574219 "/>
</g>
<g clip-path="url(#clip-8)">
<path fill-rule="evenodd" fill="rgb(0%, 0%, 0%)" fill-opacity="1" d="M 54.113281 35.402344 C 54.113281 33.765625 52.785156 32.433594 51.144531 32.433594 C 49.507812 32.433594 48.179688 33.765625 48.179688 35.402344 C 48.179688 37.042969 49.507812 38.371094 51.144531 38.371094 C 52.785156 38.371094 54.113281 37.042969 54.113281 35.402344 "/>
</g>
<g clip-path="url(#clip-9)">
<path fill-rule="evenodd" fill="rgb(0%, 0%, 0%)" fill-opacity="1" d="M 54.113281 51.230469 C 54.113281 49.59375 52.785156 48.265625 51.144531 48.265625 C 49.507812 48.265625 48.179688 49.59375 48.179688 51.230469 C 48.179688 52.871094 49.507812 54.199219 51.144531 54.199219 C 52.785156 54.199219 54.113281 52.871094 54.113281 51.230469 "/>
</g>
<g clip-path="url(#clip-10)">
<path fill-rule="evenodd" fill="rgb(0%, 0%, 0%)" fill-opacity="1" d="M 54.113281 67.058594 C 54.113281 65.421875 52.785156 64.09375 51.144531 64.09375 C 49.507812 64.09375 48.179688 65.421875 48.179688 67.058594 C 48.179688 68.699219 49.507812 70.027344 51.144531 70.027344 C 52.785156 70.027344 54.113281 68.699219 54.113281 67.058594 "/>
</g>
</svg>
