<?xml version="1.0" encoding="UTF-8"?>
<svg xmlns="http://www.w3.org/2000/svg" xmlns:xlink="http://www.w3.org/1999/xlink" width="161.2" height="97.2" viewBox="0 0 161.2 97.2">
<defs>
<clipPath id="clip-0">
<path clip-rule="nonzero" d="M 16 15 L 81 15 L 81 96.40625 L 16 96.40625 Z M 16 15 "/>
</clipPath>
<clipPath id="clip-1">
<path clip-rule="nonzero" d="M 79 15 L 160.144531 15 L 160.144531 81 L 79 81 Z M 79 15 "/>
</clipPath>
<clipPath id="clip-2">
<path clip-rule="nonzero" d="M 0.261719 15 L 97 15 L 97 49 L 0.261719 49 Z M 0.261719 15 "/>
</clipPath>
<clipPath id="clip-3">
<path clip-rule="nonzero" d="M 32 0 L 160.144531 0 L 160.144531 81 L 32 81 Z M 32 0 "/>
</clipPath>
<clipPath id="clip-4">
<path clip-rule="nonzero" d="M 47 15 L 145 15 L 145 96.40625 L 47 96.40625 Z M 47 15 "/>
</clipPath>
</defs>
<g clip-path="url(#clip-0)">
<path fill="none" stroke-width="1.2" stroke-linecap="round" stroke-linejoin="round" stroke="rgb(66.299438%, 66.299438%, 66.299438%)" stroke-opacity="1" stroke-miterlimit="10" d="M 192.000855 767.999643 L 255.999859 687.99892 " transform="matrix(0.991837, 0, 0, -0.991837, -173.706939, 778.195102)"/>
</g>
<path fill="none" stroke-width="1.2" stroke-linecap="round" stroke-linejoin="round" stroke="rgb(66.299438%, 66.299438%, 66.299438%)" stroke-opacity="1" stroke-miterlimit="10" d="M 207.998637 767.999643 L 272.001579 704.00064 " transform="matrix(0.991837, 0, 0, -0.991837, -173.706939, 778.195102)"/>
<path fill="none" stroke-width="1.2" stroke-linecap="round" stroke-linejoin="round" stroke="rgb(66.299438%, 66.299438%, 66.299438%)" stroke-opacity="1" stroke-miterlimit="10" d="M 224.000357 767.999643 L 287.99936 704.00064 " transform="matrix(0.991837, 0, 0, -0.991837, -173.706939, 778.195102)"/>
<g clip-path="url(#clip-1)">
<path fill="none" stroke-width="1.2" stroke-linecap="round" stroke-linejoin="round" stroke="rgb(66.299438%, 66.299438%, 66.299438%)" stroke-opacity="1" stroke-miterlimit="10" d="M 255.999859 767.999643 L 336.000582 704.00064 " transform="matrix(0.991837, 0, 0, -0.991837, -173.706939, 778.195102)"/>
</g>
<path fill="none" stroke-width="1.2" stroke-linecap="round" stroke-linejoin="round" stroke="rgb(66.299438%, 66.299438%, 66.299438%)" stroke-opacity="1" stroke-miterlimit="10" d="M 239.998139 767.999643 L 304.00108 704.00064 " transform="matrix(0.991837, 0, 0, -0.991837, -173.706939, 778.195102)"/>
<path fill="none" stroke-width="1.2" stroke-linecap="round" stroke-linejoin="round" stroke="rgb(66.299438%, 66.299438%, 66.299438%)" stroke-opacity="1" stroke-miterlimit="10" d="M 287.99936 767.999643 L 207.998637 719.998421 " transform="matrix(0.991837, 0, 0, -0.991837, -173.706939, 778.195102)"/>
<g clip-path="url(#clip-2)">
<path fill="none" stroke-width="1.2" stroke-linecap="round" stroke-linejoin="round" stroke="rgb(66.299438%, 66.299438%, 66.299438%)" stroke-opacity="1" stroke-miterlimit="10" d="M 272.001579 767.999643 L 175.999135 736.000141 " transform="matrix(0.991837, 0, 0, -0.991837, -173.706939, 778.195102)"/>
</g>
<g clip-path="url(#clip-3)">
<path fill="none" stroke-width="1.2" stroke-linecap="round" stroke-linejoin="round" stroke="rgb(0%, 0%, 100%)" stroke-opacity="1" stroke-miterlimit="10" d="M 336.000582 784.001363 L 207.998637 704.00064 " transform="matrix(0.991837, 0, 0, -0.991837, -173.706939, 778.195102)"/>
</g>
<g clip-path="url(#clip-4)">
<path fill="none" stroke-width="1.2" stroke-linecap="round" stroke-linejoin="round" stroke="rgb(0%, 0%, 100%)" stroke-opacity="1" stroke-miterlimit="10" d="M 319.998862 767.999643 L 224.000357 687.99892 " transform="matrix(0.991837, 0, 0, -0.991837, -173.706939, 778.195102)"/>
</g>
<path fill="none" stroke-width="1.2" stroke-linecap="round" stroke-linejoin="round" stroke="rgb(100%, 0%, 0%)" stroke-opacity="1" stroke-miterlimit="10" d="M 287.99936 784.001363 L 304.00108 736.000141 " transform="matrix(0.991837, 0, 0, -0.991837, -173.706939, 778.195102)"/>
<path fill="none" stroke-width="1.2" stroke-linecap="round" stroke-linejoin="round" stroke="rgb(100%, 0%, 0%)" stroke-opacity="1" stroke-miterlimit="10" d="M 304.00108 784.001363 L 319.998862 736.000141 " transform="matrix(0.991837, 0, 0, -0.991837, -173.706939, 778.195102)"/>
</svg>
