<?xml version="1.0" encoding="UTF-8"?>
<svg xmlns="http://www.w3.org/2000/svg" xmlns:xlink="http://www.w3.org/1999/xlink" width="401.2" height="240.1" viewBox="0 0 401.2 240.1">
<defs>
<clipPath id="clip-0">
<path clip-rule="nonzero" d="M 0.351562 110 L 400.050781 110 L 400.050781 112 L 0.351562 112 Z M 0.351562 110 "/>
</clipPath>
</defs>
<path fill-rule="evenodd" fill="rgb(25.099182%, 87.799072%, 81.599426%)" fill-opacity="1" d="M 16.886719 110.785156 C 16.886719 93.175781 31.160156 78.902344 48.769531 78.902344 C 66.375 78.902344 80.648438 93.175781 80.648438 110.785156 "/>
<path fill-rule="evenodd" fill="rgb(25.099182%, 87.799072%, 81.599426%)" fill-opacity="1" d="M 180.5625 110.785156 C 171.757812 95.535156 176.984375 76.039062 192.230469 67.234375 C 207.480469 58.433594 226.976562 63.65625 235.78125 78.902344 C 241.476562 88.769531 241.476562 100.921875 235.78125 110.785156 "/>
<path fill-rule="evenodd" fill="rgb(25.099182%, 87.799072%, 81.599426%)" fill-opacity="1" d="M 132.457031 70.933594 C 132.457031 48.925781 114.613281 31.082031 92.605469 31.082031 C 70.597656 31.082031 52.753906 48.925781 52.753906 70.933594 C 52.753906 92.941406 70.597656 110.785156 92.605469 110.785156 C 114.613281 110.785156 132.457031 92.941406 132.457031 70.933594 "/>
<path fill-rule="evenodd" fill="rgb(25.099182%, 87.799072%, 81.599426%)" fill-opacity="1" d="M 196.214844 62.964844 C 196.214844 43.15625 180.160156 27.097656 160.351562 27.097656 C 140.542969 27.097656 124.484375 43.15625 124.484375 62.964844 C 124.484375 82.773438 140.542969 98.828125 160.351562 98.828125 C 180.160156 98.828125 196.214844 82.773438 196.214844 62.964844 "/>
<path fill-rule="evenodd" fill="rgb(25.099182%, 87.799072%, 81.599426%)" fill-opacity="1" d="M 351.632812 62.964844 C 351.632812 45.355469 337.359375 31.082031 319.753906 31.082031 C 302.144531 31.082031 287.871094 45.355469 287.871094 62.964844 C 287.871094 80.570312 302.144531 94.84375 319.753906 94.84375 C 337.359375 94.84375 351.632812 80.570312 351.632812 62.964844 "/>
<path fill="none" stroke-width="1.2" stroke-linecap="round" stroke-linejoin="round" stroke="rgb(0%, 0%, 0%)" stroke-opacity="1" stroke-miterlimit="10" d="M 47.998081 639.999572 C 47.998081 657.674955 62.325021 672.001896 80.000404 672.001896 C 81.635416 672.001896 83.270428 671.876427 84.885836 671.62549 " transform="matrix(0.996266, 0, 0, -0.996266, -30.932116, 748.394689)"/>
<path fill="none" stroke-width="1.2" stroke-linecap="round" stroke-linejoin="round" stroke="rgb(0%, 0%, 0%)" stroke-opacity="1" stroke-miterlimit="10" d="M 111.947835 641.858075 C 111.983123 641.238574 111.998806 640.619073 111.998806 639.999572 " transform="matrix(0.996266, 0, 0, -0.996266, -30.932116, 748.394689)"/>
<path fill="none" stroke-width="1.2" stroke-linecap="round" stroke-linejoin="round" stroke="rgb(0%, 0%, 0%)" stroke-opacity="1" stroke-miterlimit="10" d="M 84.885836 671.62549 C 80.259183 693.225686 94.021515 714.488685 115.625632 719.111417 C 132.336475 722.691192 149.474695 715.25718 158.28102 700.612647 " transform="matrix(0.996266, 0, 0, -0.996266, -30.932116, 748.394689)"/>
<path fill="none" stroke-width="1.2" stroke-linecap="round" stroke-linejoin="round" stroke="rgb(0%, 0%, 0%)" stroke-opacity="1" stroke-miterlimit="10" d="M 158.28102 700.612647 C 165.244524 719.232965 185.986045 728.682315 204.610283 721.718811 C 219.493991 716.151143 228.966867 701.487006 227.923909 685.634838 " transform="matrix(0.996266, 0, 0, -0.996266, -30.932116, 748.394689)"/>
<path fill="none" stroke-width="1.2" stroke-linecap="round" stroke-linejoin="round" stroke="rgb(0%, 0%, 0%)" stroke-opacity="1" stroke-miterlimit="10" d="M 227.923909 685.634838 C 244.289714 692.304276 262.964924 684.442887 269.634362 668.077082 C 273.343526 658.97277 272.661291 648.660824 267.783701 640.125041 " transform="matrix(0.996266, 0, 0, -0.996266, -30.932116, 748.394689)"/>
<path fill="none" stroke-width="1.2" stroke-linecap="round" stroke-linejoin="round" stroke="rgb(0%, 0%, 0%)" stroke-opacity="1" stroke-miterlimit="10" d="M 212.001166 639.999572 C 209.256541 644.798745 207.794048 650.221339 207.750918 655.749797 " transform="matrix(0.996266, 0, 0, -0.996266, -30.932116, 748.394689)"/>
<path fill="none" stroke-width="1.2" stroke-linecap="round" stroke-linejoin="round" stroke="rgb(0%, 0%, 0%)" stroke-opacity="1" stroke-miterlimit="10" d="M 207.754839 655.628249 C 191.612525 647.774702 172.149216 653.013014 162.127415 667.908484 " transform="matrix(0.996266, 0, 0, -0.996266, -30.932116, 748.394689)"/>
<path fill="none" stroke-width="1.2" stroke-linecap="round" stroke-linejoin="round" stroke="rgb(0%, 0%, 0%)" stroke-opacity="1" stroke-miterlimit="10" d="M 162.127415 667.908484 C 155.454056 646.865055 132.995185 635.208242 111.947835 641.858075 " transform="matrix(0.996266, 0, 0, -0.996266, -30.932116, 748.394689)"/>
<path fill="none" stroke-width="1.2" stroke-linecap="round" stroke-linejoin="round" stroke="rgb(0%, 0%, 0%)" stroke-opacity="1" stroke-miterlimit="10" d="M 383.99895 687.999136 C 383.99895 705.674519 369.672009 720.00146 352.000547 720.00146 C 334.325165 720.00146 319.998224 705.674519 319.998224 687.999136 C 319.998224 670.327675 334.325165 656.000734 352.000547 656.000734 C 369.672009 656.000734 383.99895 670.327675 383.99895 687.999136 " transform="matrix(0.996266, 0, 0, -0.996266, -30.932116, 748.394689)"/>
<path fill="none" stroke-width="1.2" stroke-linecap="round" stroke-linejoin="round" stroke="rgb(0%, 0%, 0%)" stroke-opacity="1" stroke-miterlimit="10" d="M 111.998806 639.999572 L 47.998081 639.999572 " transform="matrix(0.996266, 0, 0, -0.996266, -30.932116, 748.394689)"/>
<path fill="none" stroke-width="1.2" stroke-linecap="round" stroke-linejoin="round" stroke="rgb(0%, 0%, 0%)" stroke-opacity="1" stroke-miterlimit="10" d="M 267.713125 639.999572 L 212.001166 639.999572 " transform="matrix(0.996266, 0, 0, -0.996266, -30.932116, 748.394689)"/>
<g clip-path="url(#clip-0)">
<path fill="none" stroke-width="1.2" stroke-linecap="round" stroke-linejoin="round" stroke="rgb(66.299438%, 66.299438%, 66.299438%)" stroke-opacity="1" stroke-dasharray="1 3" stroke-miterlimit="10" d="M 32.00084 639.999572 L 431.998514 639.999572 " transform="matrix(0.996266, 0, 0, -0.996266, -30.932116, 748.394689)"/>
</g>
</svg>
