<?xml version="1.0" encoding="UTF-8"?>
<svg xmlns="http://www.w3.org/2000/svg" xmlns:xlink="http://www.w3.org/1999/xlink" width="401.2" height="240.1" viewBox="0 0 401.2 240.1">
<defs>
<clipPath id="clip-0">
<path clip-rule="nonzero" d="M 0.351562 110 L 400.050781 110 L 400.050781 112 L 0.351562 112 Z M 0.351562 110 "/>
</clipPath>
</defs>
<path fill-rule="evenodd" fill="rgb(25.099182%, 87.799072%, 81.599426%)" fill-opacity="1" d="M 16.886719 110.785156 C 16.886719 93.175781 31.160156 78.902344 48.769531 78.902344 C 66.375 78.902344 80.648438 93.175781 80.648438 110.785156 "/>
<path fill-rule="evenodd" fill="rgb(25.099182%, 87.799072%, 81.599426%)" fill-opacity="1" d="M 180.5625 110.785156 C 171.757812 95.535156 176.984375 76.039062 192.230469 67.234375 C 207.480469 58.433594 226.976562 63.65625 235.78125 78.902344 C 241.476562 88.769531 241.476562 100.921875 235.78125 110.785156 "/>
<path fill-rule="evenodd" fill="rgb(25.099182%, 87.799072%, 81.599426%)" fill-opacity="1" d="M 132.457031 70.933594 C 132.457031 48.925781 114.613281 31.082031 92.605469 31.082031 C 70.597656 31.082031 52.753906 48.925781 52.753906 70.933594 C 52.753906 92.941406 70.597656 110.785156 92.605469 110.785156 C 114.613281 110.785156 132.457031 92.941406 132.457031 70.933594 "/>
<path fill-rule="evenodd" fill="rgb(25.099182%, 87.799072%, 81.599426%)" fill-opacity="1" d="M 196.214844 62.964844 C 196.214844 43.15625 180.160156 27.097656 160.351562 27.097656 C 140.542969 27.097656 124.484375 43.15625 124.484375 62.964844 C 124.484375 82.773438 140.542969 98.828125 160.351562 98.828125 C 180.160156 98.828125 196.214844 82.773438 196.214844 62.964844 "/>
<path fill-rule="evenodd" fill="rgb(25.099182%, 87.799072%, 81.599426%)" fill-opacity="1" d="M 351.632812 62.964844 C 351.632812 45.355469 337.359375 31.082031 319.753906 31.082031 C 302.144531 31.082031 287.871094 45.355469 287.871094 62.964844 C 287.871094 80.570312 302.144531 94.84375 319.753906 94.84375 C 337.359375 94.84375 351.632812 80.570312 351.632812 62.964844 "/>
<path fill="none" stroke-width="1.2" stroke-linecap="round" stroke-linejoin="round" stroke="rgb(0%, 0%, 0%)" stroke-opacity="1" stroke-miterlimit="10" d="M 47.998081 639.999572 C 47.998081 657.674955 62.325021 672.001896 80.000404 672.001896 C 81.635416 672.001896 83.270428 671.876427 84.885836 671.62549 " transform="matrix(0.996266, 0, 0, -0.996266, -30.932116, 748.394689)"/>
<path fill="none" stroke-width="1.2" stroke-linecap="round" stroke-linejoin="round" stroke="rgb(0%, 0%, 0%)" stroke-opacity="1" stroke-miterlimit="10" d="M 111.947835 641.858075 C 111.983123 641.238574 111.998806 640.619073 111.998806 639.999572 " transform="matrix(0.996266, 0, 0, -0.996266, -30.932116, 748.394689)"/>
<path fill="none" stroke-width="1.2" stroke-linecap="round" stroke-linejoin="round" stroke="rgb(0%, 0%, 0%)" stroke-opacity="1" stroke-miterlimit="10" d="M 84.885836 671.62549 C 80.259183 693.225686 94.021515 714.488685 115.625632 719.111417 C 132.336475 722.691192 149.474695 715.25718 158.28102 700.612647 " transform="matrix(0.996266, 0, 0, -0.996266, -30.932116, 748.394689)"/>
<path fill="none" stroke-width="1.2" stroke-linecap="round" stroke-linejoin="round" stroke="rgb(0%, 0%, 0%)" stroke-opacity="1" stroke-miterlimit="10" d="M 158.28102 700.612647 C 165.244524 719.232965 185.986045 728.682315 204.610283 721.718811 C 219.493991 716.151143 228.966867 701.487006 227.923909 685.634838 " transform="matrix(0.996266, 0, 0, -0.996266, -30.932116, 748.394689)"/>
<path fill="none" stroke-width="1.2" stroke-linecap="round" stroke-linejoin="round" stroke="rgb(0%, 0%, 0%)" stroke-opacity="1" stroke-miterlimit="10" d="M 227.923909 685.634838 C 244.289714 692.304276 262.964924 684.442887 269.634362 668.077082 C 273.343526 658.97277 272.661291 648.660824 267.783701 640.125041 " transform="matrix(0.996266, 0, 0, -0.996266, -30.932116, 748.394689)"/>
<path fill="none" stroke-width="1.2" stroke-linecap="round" stroke-linejoin="round" stroke="rgb(0%, 0%, 0%)" stroke-opacity="1" stroke-miterlimit="10" d="M 212.001166 639.999572 C 209.256541 644.798745 207.794048 650.221339 207.750918 655.749797 " transform="matrix(0.996266, 0, 0, -0.996266, -30.932116, 748.394689)"/>
<path fill="none" stroke-width="1.2" stroke-linecap="round" stroke-linejoin="round" stroke="rgb(0%, 0%, 0%)" stroke-opacity="1" stroke-miterlimit="10" d="M 207.754839 655.628249 C 191.612525 647.774702 172.149216 653.013014 162.127415 667.908484 " transform="matrix(0.996266, 0, 0, -0.996266, -30.932116, 748.394689)"/>
<path fill="none" stroke-width="1.2" stroke-linecap="round" stroke-linejoin="round" stroke="rgb(0%, 0%, 0%)" stroke-opacity="1" stroke-miterlimit="10" d="M 162.127415 667.908484 C 155.454056 646.865055 132.995185 635.208242 111.947835 641.858075 " transform="matrix(0.996266, 0, 0, -0.996266, -30.932116, 748.394689)"/>
<path fill="none" stroke-width="1.2" stroke-linecap="round" stroke-linejoin="round" stroke="rgb(0%, 0%, 0%)" stroke-opacity="1" stroke-miterlimit="10" d="M 383.99895 687.999136 C 383.99895 705.674519 369.672009 720.00146 352.000547 720.00146 C 334.325165 720.00146 319.998224 705.674519 319.998224 687.999136 C 319.998224 670.327675 334.325165 656.000734 352.000547 656.000734 C 369.672009 656.000734 383.99895 670.327675 383.99895 687.999136 " transform="matrix(0.996266, 0, 0, -0.996266, -30.932116, 748.394689)"/>
<path fill="none" stroke-width="1.2" stroke-linecap="round" stroke-linejoin="round" stroke="rgb(0%, 0%, 0%)" stroke-opacity="1" stroke-miterlimit="10" d="M 111.998806 639.999572 L 47.998081 639.999572 " transform="matrix(0.996266, 0, 0, -0.996266, -30.932116, 748.394689)"/>
<path fill="none" stroke-width="1.2" stroke-linecap="round" stroke-linejoin="round" stroke="rgb(0%, 0%, 0%)" stroke-opacity="1" stroke-miterlimit="10" d="M 267.713125 639.999572 L 212.001166 639.999572 " transform="matrix(0.996266, 0, 0, -0.996266, -30.932116, 748.394689)"/>
<g clip-path="url(#clip-0)">
<path fill="none" stroke-width="1.2" stroke-linecap="round" stroke-linejoin="round" stroke="rgb(66.299438%, 66.299438%, 66.299438%)" stroke-opacity="1" stroke-dasharray="1 3" stroke-miterlimit="10" d="M 32.00084 639.999572 L 431.998514 639.999572 " transform="matrix(0.996266, 0, 0, -0.996266, -30.932116, 748.394689)"/>
</g>
<path fill-rule="evenodd" fill="rgb(100%, 84.298706%, 0%)" fill-opacity="1" d="M 213.652344 125.230469 L 218.632812 125.230469 L 218.632812 120.25 L 213.652344 120.25 Z M 213.652344 125.230469 "/>
<path fill-rule="evenodd" fill="rgb(100%, 64.698792%, 0%)" fill-opacity="1" d="M 213.152344 125.730469 L 219.128906 125.730469 L 219.128906 119.75 L 213.152344 119.75 Z M 214.148438 124.734375 L 218.132812 124.734375 L 218.132812 120.746094 L 214.148438 120.746094 Z M 214.148438 124.734375 "/>
<path fill-rule="evenodd" fill="rgb(100%, 84.298706%, 0%)" fill-opacity="1" d="M 253.5 89.363281 L 258.484375 89.363281 L 258.484375 84.382812 L 253.5 84.382812 Z M 253.5 89.363281 "/>
<path fill-rule="evenodd" fill="rgb(100%, 64.698792%, 0%)" fill-opacity="1" d="M 253.003906 89.863281 L 258.980469 89.863281 L 258.980469 83.886719 L 253.003906 83.886719 Z M 254 88.867188 L 257.984375 88.867188 L 257.984375 84.882812 L 254 84.882812 Z M 254 88.867188 "/>
<path fill-rule="evenodd" fill="rgb(100%, 84.298706%, 0%)" fill-opacity="1" d="M 237.5625 73.425781 L 242.542969 73.425781 L 242.542969 68.445312 L 237.5625 68.445312 Z M 237.5625 73.425781 "/>
<path fill-rule="evenodd" fill="rgb(100%, 64.698792%, 0%)" fill-opacity="1" d="M 237.0625 73.921875 L 243.039062 73.921875 L 243.039062 67.945312 L 237.0625 67.945312 Z M 238.058594 72.925781 L 242.042969 72.925781 L 242.042969 68.941406 L 238.058594 68.941406 Z M 238.058594 72.925781 "/>
<path fill-rule="evenodd" fill="rgb(100%, 84.298706%, 0%)" fill-opacity="1" d="M 185.753906 85.378906 L 190.738281 85.378906 L 190.738281 80.398438 L 185.753906 80.398438 Z M 185.753906 85.378906 "/>
<path fill-rule="evenodd" fill="rgb(100%, 64.698792%, 0%)" fill-opacity="1" d="M 185.257812 85.878906 L 191.234375 85.878906 L 191.234375 79.902344 L 185.257812 79.902344 Z M 186.253906 84.882812 L 190.238281 84.882812 L 190.238281 80.898438 L 186.253906 80.898438 Z M 186.253906 84.882812 "/>
<path fill="none" stroke-width="1.2" stroke-linecap="round" stroke-linejoin="round" stroke="rgb(100%, 64.698792%, 0%)" stroke-opacity="1" stroke-dasharray="4" stroke-miterlimit="10" d="M 267.99935 628.001642 C 267.99935 639.046796 259.047953 647.998193 247.998878 647.998193 C 236.953724 647.998193 227.998406 639.046796 227.998406 628.001642 C 227.998406 616.952567 236.953724 608.00117 247.998878 608.00117 C 259.047953 608.00117 267.99935 616.952567 267.99935 628.001642 " transform="matrix(0.996266, 0, 0, -0.996266, -30.932116, 748.394689)"/>
<path fill="none" stroke-width="1.2" stroke-linecap="round" stroke-linejoin="round" stroke="rgb(100%, 64.698792%, 0%)" stroke-opacity="1" stroke-dasharray="4" stroke-miterlimit="10" d="M 240.000258 667.998665 C 240.000258 679.047739 231.04494 687.999136 219.999786 687.999136 C 208.954632 687.999136 199.999314 679.047739 199.999314 667.998665 C 199.999314 656.953511 208.954632 647.998193 219.999786 647.998193 C 231.04494 647.998193 240.000258 656.953511 240.000258 667.998665 " transform="matrix(0.996266, 0, 0, -0.996266, -30.932116, 748.394689)"/>
<path fill="none" stroke-width="1.2" stroke-linecap="round" stroke-linejoin="round" stroke="rgb(100%, 64.698792%, 0%)" stroke-opacity="1" stroke-dasharray="4" stroke-miterlimit="10" d="M 284.000512 680.000516 C 284.000512 686.626824 278.628889 691.998447 271.99866 691.998447 C 265.372352 691.998447 260.00073 686.626824 260.00073 680.000516 C 260.00073 673.374208 265.372352 667.998665 271.99866 667.998665 C 278.628889 667.998665 284.000512 673.374208 284.000512 680.000516 " transform="matrix(0.996266, 0, 0, -0.996266, -30.932116, 748.394689)"/>
<path fill="none" stroke-width="1.2" stroke-linecap="round" stroke-linejoin="round" stroke="rgb(100%, 64.698792%, 0%)" stroke-opacity="1" stroke-dasharray="4" stroke-miterlimit="10" d="M 300.001673 663.999354 C 300.001673 670.625662 294.62613 676.001206 287.999822 676.001206 C 281.373514 676.001206 276.001891 670.625662 276.001891 663.999354 C 276.001891 657.373046 281.373514 652.001424 287.999822 652.001424 C 294.62613 652.001424 300.001673 657.373046 300.001673 663.999354 " transform="matrix(0.996266, 0, 0, -0.996266, -30.932116, 748.394689)"/>
</svg>
