<?xml version="1.0" encoding="UTF-8"?>
<svg xmlns="http://www.w3.org/2000/svg" xmlns:xlink="http://www.w3.org/1999/xlink" width="401.2" height="240.1" viewBox="0 0 401.2 240.1">
<defs>
<clipPath id="clip-0">
<path clip-rule="nonzero" d="M 0.351562 110 L 400.050781 110 L 400.050781 112 L 0.351562 112 Z M 0.351562 110 "/>
</clipPath>
</defs>
<path fill-rule="evenodd" fill="rgb(67.799377%, 84.698486%, 90.19928%)" fill-opacity="1" stroke-width="0.8" stroke-linecap="butt" stroke-linejoin="round" stroke="rgb(0%, 0%, 0%)" stroke-opacity="1" stroke-miterlimit="10" d="M 164.001602 680.000516 C 164.001602 702.090823 146.090965 720.00146 124.000658 720.00146 C 101.910351 720.00146 83.999714 702.090823 83.999714 680.000516 C 83.999714 657.910209 101.910351 639.999572 124.000658 639.999572 C 146.090965 639.999572 164.001602 657.910209 164.001602 680.000516 " transform="matrix(0.996266, 0, 0, -0.996266, -30.932116, 748.394689)"/>
<path fill-rule="evenodd" fill="rgb(67.799377%, 84.698486%, 90.19928%)" fill-opacity="1" stroke-width="0.8" stroke-linecap="round" stroke-linejoin="round" stroke="rgb(0%, 0%, 0%)" stroke-opacity="1" stroke-miterlimit="10" d="M 267.99935 639.999572 C 276.837041 655.463572 271.465419 675.162135 256.001419 683.999826 C 240.53742 692.837518 220.838857 687.465895 212.001166 672.001896 C 206.335476 662.085959 206.335476 649.915509 212.001166 639.999572 " transform="matrix(0.996266, 0, 0, -0.996266, -30.932116, 748.394689)"/>
<path fill-rule="evenodd" fill="rgb(67.799377%, 84.698486%, 90.19928%)" fill-opacity="1" stroke-width="0.8" stroke-linecap="butt" stroke-linejoin="round" stroke="rgb(0%, 0%, 0%)" stroke-opacity="1" stroke-miterlimit="10" d="M 383.99895 687.999136 C 383.99895 705.674519 369.672009 720.00146 352.000547 720.00146 C 334.325165 720.00146 319.998224 705.674519 319.998224 687.999136 C 319.998224 670.327675 334.325165 656.000734 352.000547 656.000734 C 369.672009 656.000734 383.99895 670.327675 383.99895 687.999136 " transform="matrix(0.996266, 0, 0, -0.996266, -30.932116, 748.394689)"/>
<path fill-rule="evenodd" fill="rgb(100%, 0%, 0%)" fill-opacity="0.5" stroke-width="0.8" stroke-linecap="round" stroke-linejoin="round" stroke="rgb(0%, 0%, 0%)" stroke-opacity="1" stroke-dasharray="4" stroke-miterlimit="10" d="M 284.000512 680.000516 C 284.000512 686.626824 278.628889 691.998447 271.99866 691.998447 C 265.372352 691.998447 260.00073 686.626824 260.00073 680.000516 C 260.00073 673.374208 265.372352 667.998665 271.99866 667.998665 C 278.628889 667.998665 284.000512 673.374208 284.000512 680.000516 " transform="matrix(0.996266, 0, 0, -0.996266, -30.932116, 748.394689)"/>
<path fill-rule="evenodd" fill="rgb(100%, 0%, 0%)" fill-opacity="0.5" stroke-width="0.8" stroke-linecap="round" stroke-linejoin="round" stroke="rgb(0%, 0%, 0%)" stroke-opacity="1" stroke-dasharray="4" stroke-miterlimit="10" d="M 264.00004 639.999572 C 257.373732 648.837264 244.838639 650.625191 236.000948 643.998883 C 234.483562 642.861824 233.138696 641.516958 232.001637 639.999572 " transform="matrix(0.996266, 0, 0, -0.996266, -30.932116, 748.394689)"/>
<path fill-rule="evenodd" fill="rgb(67.799377%, 84.698486%, 90.19928%)" fill-opacity="1" stroke-width="0.8" stroke-linecap="butt" stroke-linejoin="round" stroke="rgb(0%, 0%, 0%)" stroke-opacity="1" stroke-miterlimit="10" d="M 172.000222 592.000008 C 172.000222 616.301699 152.301659 636.000262 127.999968 636.000262 C 103.698277 636.000262 83.999714 616.301699 83.999714 592.000008 C 83.999714 567.698318 103.698277 547.999755 127.999968 547.999755 C 152.301659 547.999755 172.000222 567.698318 172.000222 592.000008 " transform="matrix(0.996266, 0, 0, -0.996266, -30.932116, 748.394689)"/>
<path fill-rule="evenodd" fill="rgb(100%, 0%, 0%)" fill-opacity="0.5" stroke-width="0.8" stroke-linecap="round" stroke-linejoin="round" stroke="rgb(0%, 0%, 0%)" stroke-opacity="1" stroke-dasharray="4" stroke-miterlimit="10" d="M 335.999386 592.000008 C 335.999386 600.8377 328.835915 608.00117 319.998224 608.00117 C 311.164454 608.00117 304.000983 600.8377 304.000983 592.000008 C 304.000983 583.162317 311.164454 575.998847 319.998224 575.998847 C 328.835915 575.998847 335.999386 583.162317 335.999386 592.000008 " transform="matrix(0.996266, 0, 0, -0.996266, -30.932116, 748.394689)"/>
<path fill-rule="evenodd" fill="rgb(100%, 0%, 0%)" fill-opacity="0.5" stroke-width="0.8" stroke-linecap="round" stroke-linejoin="round" stroke="rgb(0%, 0%, 0%)" stroke-opacity="1" stroke-dasharray="4" stroke-miterlimit="10" d="M 300.001673 663.999354 C 300.001673 670.625662 294.62613 676.001206 287.999822 676.001206 C 281.373514 676.001206 276.001891 670.625662 276.001891 663.999354 C 276.001891 657.373046 281.373514 652.001424 287.999822 652.001424 C 294.62613 652.001424 300.001673 657.373046 300.001673 663.999354 " transform="matrix(0.996266, 0, 0, -0.996266, -30.932116, 748.394689)"/>
<path fill-rule="evenodd" fill="rgb(67.799377%, 84.698486%, 90.19928%)" fill-opacity="1" stroke-width="0.8" stroke-linecap="butt" stroke-linejoin="round" stroke="rgb(0%, 0%, 0%)" stroke-opacity="1" stroke-miterlimit="10" d="M 111.998806 639.999572 C 111.998806 657.674955 97.671866 672.001896 80.000404 672.001896 C 62.325021 672.001896 47.998081 657.674955 47.998081 639.999572 C 47.998081 622.328111 62.325021 608.00117 80.000404 608.00117 C 97.671866 608.00117 111.998806 622.328111 111.998806 639.999572 " transform="matrix(0.996266, 0, 0, -0.996266, -30.932116, 748.394689)"/>
<path fill-rule="evenodd" fill="rgb(67.799377%, 84.698486%, 90.19928%)" fill-opacity="1" stroke-width="0.8" stroke-linecap="butt" stroke-linejoin="round" stroke="rgb(0%, 0%, 0%)" stroke-opacity="1" stroke-miterlimit="10" d="M 227.778836 687.999136 C 227.778836 707.760434 211.75807 723.777279 192.000694 723.777279 C 172.239396 723.777279 156.222551 707.760434 156.222551 687.999136 C 156.222551 668.24176 172.239396 652.224915 192.000694 652.224915 C 211.75807 652.224915 227.778836 668.24176 227.778836 687.999136 " transform="matrix(0.996266, 0, 0, -0.996266, -30.932116, 748.394689)"/>
<path fill-rule="evenodd" fill="rgb(100%, 0%, 0%)" fill-opacity="0.5" stroke-width="0.8" stroke-linecap="round" stroke-linejoin="round" stroke="rgb(0%, 0%, 0%)" stroke-opacity="1" stroke-dasharray="4" stroke-miterlimit="10" d="M 240.000258 667.998665 C 240.000258 679.047739 231.04494 687.999136 219.999786 687.999136 C 208.954632 687.999136 199.999314 679.047739 199.999314 667.998665 C 199.999314 656.953511 208.954632 647.998193 219.999786 647.998193 C 231.04494 647.998193 240.000258 656.953511 240.000258 667.998665 " transform="matrix(0.996266, 0, 0, -0.996266, -30.932116, 748.394689)"/>
<path fill="none" stroke-width="0.8" stroke-linecap="butt" stroke-linejoin="round" stroke="rgb(0%, 0%, 0%)" stroke-opacity="1" stroke-miterlimit="10" d="M 227.778836 687.999136 C 227.778836 707.760434 211.75807 723.777279 192.000694 723.777279 C 172.239396 723.777279 156.222551 707.760434 156.222551 687.999136 C 156.222551 668.24176 172.239396 652.224915 192.000694 652.224915 C 211.75807 652.224915 227.778836 668.24176 227.778836 687.999136 " transform="matrix(0.996266, 0, 0, -0.996266, -30.932116, 748.394689)"/>
<path fill="none" stroke-width="0.8" stroke-linecap="butt" stroke-linejoin="round" stroke="rgb(0%, 0%, 0%)" stroke-opacity="1" stroke-miterlimit="10" d="M 383.99895 687.999136 C 383.99895 705.674519 369.672009 720.00146 352.000547 720.00146 C 334.325165 720.00146 319.998224 705.674519 319.998224 687.999136 C 319.998224 670.327675 334.325165 656.000734 352.000547 656.000734 C 369.672009 656.000734 383.99895 670.327675 383.99895 687.999136 " transform="matrix(0.996266, 0, 0, -0.996266, -30.932116, 748.394689)"/>
<path fill-rule="evenodd" fill="rgb(67.799377%, 84.698486%, 90.19928%)" fill-opacity="1" d="M 162.839844 27.097656 C 162.839844 25.722656 161.726562 24.609375 160.351562 24.609375 C 158.976562 24.609375 157.859375 25.722656 157.859375 27.097656 C 157.859375 28.472656 158.976562 29.589844 160.351562 29.589844 C 161.726562 29.589844 162.839844 28.472656 162.839844 27.097656 "/>
<path fill-rule="evenodd" fill="rgb(0%, 0%, 0%)" fill-opacity="1" d="M 163.339844 27.097656 C 163.339844 25.449219 162 24.109375 160.351562 24.109375 C 158.699219 24.109375 157.363281 25.449219 157.363281 27.097656 C 157.363281 28.75 158.699219 30.085938 160.351562 30.085938 C 162 30.085938 163.339844 28.75 163.339844 27.097656 M 162.34375 27.097656 C 162.34375 25.996094 161.453125 25.105469 160.351562 25.105469 C 159.25 25.105469 158.359375 25.996094 158.359375 27.097656 C 158.359375 28.199219 159.25 29.089844 160.351562 29.089844 C 161.453125 29.089844 162.34375 28.199219 162.34375 27.097656 "/>
<path fill="none" stroke-width="0.8" stroke-linecap="butt" stroke-linejoin="round" stroke="rgb(0%, 0%, 0%)" stroke-opacity="1" stroke-miterlimit="10" d="M 172.000222 592.000008 C 172.000222 616.301699 152.301659 636.000262 127.999968 636.000262 C 103.698277 636.000262 83.999714 616.301699 83.999714 592.000008 C 83.999714 567.698318 103.698277 547.999755 127.999968 547.999755 C 152.301659 547.999755 172.000222 567.698318 172.000222 592.000008 " transform="matrix(0.996266, 0, 0, -0.996266, -30.932116, 748.394689)"/>
<path fill-rule="evenodd" fill="rgb(67.799377%, 84.698486%, 90.19928%)" fill-opacity="1" d="M 99.082031 114.769531 C 99.082031 113.394531 97.964844 112.277344 96.589844 112.277344 C 95.214844 112.277344 94.097656 113.394531 94.097656 114.769531 C 94.097656 116.144531 95.214844 117.261719 96.589844 117.261719 C 97.964844 117.261719 99.082031 116.144531 99.082031 114.769531 "/>
<path fill-rule="evenodd" fill="rgb(0%, 0%, 0%)" fill-opacity="1" d="M 99.578125 114.769531 C 99.578125 113.117188 98.242188 111.78125 96.589844 111.78125 C 94.9375 111.78125 93.601562 113.117188 93.601562 114.769531 C 93.601562 116.421875 94.9375 117.757812 96.589844 117.757812 C 98.242188 117.757812 99.578125 116.421875 99.578125 114.769531 M 98.582031 114.769531 C 98.582031 113.667969 97.691406 112.777344 96.589844 112.777344 C 95.488281 112.777344 94.597656 113.667969 94.597656 114.769531 C 94.597656 115.871094 95.488281 116.761719 96.589844 116.761719 C 97.691406 116.761719 98.582031 115.871094 98.582031 114.769531 "/>
<path fill="none" stroke-width="0.8" stroke-linecap="round" stroke-linejoin="round" stroke="rgb(0%, 0%, 0%)" stroke-opacity="1" stroke-dasharray="4" stroke-miterlimit="10" d="M 300.001673 663.999354 C 300.001673 670.625662 294.62613 676.001206 287.999822 676.001206 C 281.373514 676.001206 276.001891 670.625662 276.001891 663.999354 C 276.001891 657.373046 281.373514 652.001424 287.999822 652.001424 C 294.62613 652.001424 300.001673 657.373046 300.001673 663.999354 " transform="matrix(0.996266, 0, 0, -0.996266, -30.932116, 748.394689)"/>
<path fill="none" stroke-width="0.8" stroke-linecap="round" stroke-linejoin="round" stroke="rgb(0%, 0%, 0%)" stroke-opacity="1" stroke-dasharray="4" stroke-miterlimit="10" d="M 335.999386 592.000008 C 335.999386 600.8377 328.835915 608.00117 319.998224 608.00117 C 311.164454 608.00117 304.000983 600.8377 304.000983 592.000008 C 304.000983 583.162317 311.164454 575.998847 319.998224 575.998847 C 328.835915 575.998847 335.999386 583.162317 335.999386 592.000008 " transform="matrix(0.996266, 0, 0, -0.996266, -30.932116, 748.394689)"/>
<path fill-rule="evenodd" fill="rgb(100%, 0%, 0%)" fill-opacity="0.5" stroke-width="0.8" stroke-linecap="round" stroke-linejoin="round" stroke="rgb(0%, 0%, 0%)" stroke-opacity="1" stroke-dasharray="4" stroke-miterlimit="10" d="M 383.99895 544.000444 C 383.99895 561.671906 369.672009 575.998847 352.000547 575.998847 C 334.325165 575.998847 319.998224 561.671906 319.998224 544.000444 C 319.998224 526.325062 334.325165 511.998121 352.000547 511.998121 C 369.672009 511.998121 383.99895 526.325062 383.99895 544.000444 " transform="matrix(0.996266, 0, 0, -0.996266, -30.932116, 748.394689)"/>
<path fill="none" stroke-width="0.8" stroke-linecap="round" stroke-linejoin="round" stroke="rgb(0%, 0%, 0%)" stroke-opacity="1" stroke-dasharray="4" stroke-miterlimit="10" d="M 383.99895 544.000444 C 383.99895 561.671906 369.672009 575.998847 352.000547 575.998847 C 334.325165 575.998847 319.998224 561.671906 319.998224 544.000444 C 319.998224 526.325062 334.325165 511.998121 352.000547 511.998121 C 369.672009 511.998121 383.99895 526.325062 383.99895 544.000444 " transform="matrix(0.996266, 0, 0, -0.996266, -30.932116, 748.394689)"/>
<path fill-rule="evenodd" fill="rgb(100%, 0%, 0%)" fill-opacity="1" d="M 290.363281 142.664062 C 290.363281 141.289062 289.25 140.175781 287.871094 140.175781 C 286.496094 140.175781 285.382812 141.289062 285.382812 142.664062 C 285.382812 144.042969 286.496094 145.15625 287.871094 145.15625 C 289.25 145.15625 290.363281 144.042969 290.363281 142.664062 "/>
<path fill-rule="evenodd" fill="rgb(0%, 0%, 0%)" fill-opacity="1" d="M 290.863281 142.664062 C 290.863281 141.015625 289.523438 139.675781 287.871094 139.675781 C 286.222656 139.675781 284.882812 141.015625 284.882812 142.664062 C 284.882812 144.316406 286.222656 145.652344 287.871094 145.652344 C 289.523438 145.652344 290.863281 144.316406 290.863281 142.664062 M 289.867188 142.664062 C 289.867188 141.5625 288.972656 140.671875 287.871094 140.671875 C 286.773438 140.671875 285.878906 141.5625 285.878906 142.664062 C 285.878906 143.765625 286.773438 144.65625 287.871094 144.65625 C 288.972656 144.65625 289.867188 143.765625 289.867188 142.664062 "/>
<path fill-rule="evenodd" fill="rgb(100%, 0%, 0%)" fill-opacity="1" d="M 322.242188 174.546875 C 322.242188 173.167969 321.128906 172.054688 319.753906 172.054688 C 318.378906 172.054688 317.261719 173.167969 317.261719 174.546875 C 317.261719 175.921875 318.378906 177.035156 319.753906 177.035156 C 321.128906 177.035156 322.242188 175.921875 322.242188 174.546875 "/>
<path fill-rule="evenodd" fill="rgb(0%, 0%, 0%)" fill-opacity="1" d="M 322.742188 174.546875 C 322.742188 172.894531 321.402344 171.558594 319.753906 171.558594 C 318.101562 171.558594 316.765625 172.894531 316.765625 174.546875 C 316.765625 176.195312 318.101562 177.535156 319.753906 177.535156 C 321.402344 177.535156 322.742188 176.195312 322.742188 174.546875 M 321.746094 174.546875 C 321.746094 173.445312 320.855469 172.554688 319.753906 172.554688 C 318.652344 172.554688 317.761719 173.445312 317.761719 174.546875 C 317.761719 175.648438 318.652344 176.539062 319.753906 176.539062 C 320.855469 176.539062 321.746094 175.648438 321.746094 174.546875 "/>
<path fill-rule="evenodd" fill="rgb(100%, 0%, 0%)" fill-opacity="1" d="M 258.484375 74.917969 C 258.484375 73.542969 257.367188 72.429688 255.992188 72.429688 C 254.617188 72.429688 253.5 73.542969 253.5 74.917969 C 253.5 76.296875 254.617188 77.410156 255.992188 77.410156 C 257.367188 77.410156 258.484375 76.296875 258.484375 74.917969 "/>
<path fill-rule="evenodd" fill="rgb(0%, 0%, 0%)" fill-opacity="1" d="M 258.980469 74.917969 C 258.980469 73.269531 257.644531 71.929688 255.992188 71.929688 C 254.339844 71.929688 253.003906 73.269531 253.003906 74.917969 C 253.003906 76.570312 254.339844 77.90625 255.992188 77.90625 C 257.644531 77.90625 258.980469 76.570312 258.980469 74.917969 M 257.984375 74.917969 C 257.984375 73.816406 257.09375 72.925781 255.992188 72.925781 C 254.890625 72.925781 254 73.816406 254 74.917969 C 254 76.019531 254.890625 76.910156 255.992188 76.910156 C 257.09375 76.910156 257.984375 76.019531 257.984375 74.917969 "/>
<path fill-rule="evenodd" fill="rgb(67.799377%, 84.698486%, 90.19928%)" fill-opacity="1" d="M 322.242188 31.082031 C 322.242188 29.707031 321.128906 28.59375 319.753906 28.59375 C 318.378906 28.59375 317.261719 29.707031 317.261719 31.082031 C 317.261719 32.460938 318.378906 33.574219 319.753906 33.574219 C 321.128906 33.574219 322.242188 32.460938 322.242188 31.082031 "/>
<path fill-rule="evenodd" fill="rgb(0%, 0%, 0%)" fill-opacity="1" d="M 322.742188 31.082031 C 322.742188 29.433594 321.402344 28.09375 319.753906 28.09375 C 318.101562 28.09375 316.765625 29.433594 316.765625 31.082031 C 316.765625 32.734375 318.101562 34.074219 319.753906 34.074219 C 321.402344 34.074219 322.742188 32.734375 322.742188 31.082031 M 321.746094 31.082031 C 321.746094 29.984375 320.855469 29.089844 319.753906 29.089844 C 318.652344 29.089844 317.761719 29.984375 317.761719 31.082031 C 317.761719 32.183594 318.652344 33.074219 319.753906 33.074219 C 320.855469 33.074219 321.746094 32.183594 321.746094 31.082031 "/>
<path fill-rule="evenodd" fill="rgb(67.799377%, 84.698486%, 90.19928%)" fill-opacity="1" stroke-width="0.8" stroke-linecap="round" stroke-linejoin="round" stroke="rgb(0%, 0%, 0%)" stroke-opacity="1" stroke-miterlimit="10" d="M 257.671719 639.999572 C 253.252874 629.875828 257.875606 618.089626 267.99935 613.67078 C 278.123094 609.251935 289.913217 613.874667 294.328142 623.998411 C 296.555209 629.099492 296.555209 634.898492 294.328142 639.999572 " transform="matrix(0.996266, 0, 0, -0.996266, -30.932116, 748.394689)"/>
<path fill-rule="evenodd" fill="rgb(100%, 0%, 0%)" fill-opacity="0.5" stroke-width="0.8" stroke-linecap="round" stroke-linejoin="round" stroke="rgb(0%, 0%, 0%)" stroke-opacity="1" stroke-dasharray="4" stroke-miterlimit="10" d="M 228.288552 639.999572 C 237.122323 624.69633 256.695417 619.450176 271.99866 628.287867 C 276.864487 631.095226 280.903007 635.133745 283.714286 639.999572 " transform="matrix(0.996266, 0, 0, -0.996266, -30.932116, 748.394689)"/>
<g clip-path="url(#clip-0)">
<path fill="none" stroke-width="1.2" stroke-linecap="round" stroke-linejoin="round" stroke="rgb(66.299438%, 66.299438%, 66.299438%)" stroke-opacity="1" stroke-dasharray="1 3" stroke-miterlimit="10" d="M 32.00084 639.999572 L 431.998514 639.999572 " transform="matrix(0.996266, 0, 0, -0.996266, -30.932116, 748.394689)"/>
</g>
<path fill="none" stroke-width="0.8" stroke-linecap="round" stroke-linejoin="round" stroke="rgb(0%, 0%, 0%)" stroke-opacity="1" stroke-miterlimit="10" d="M 257.671719 639.999572 L 294.328142 639.999572 " transform="matrix(0.996266, 0, 0, -0.996266, -30.932116, 748.394689)"/>
<path fill="none" stroke-width="0.8" stroke-linecap="round" stroke-linejoin="round" stroke="rgb(0%, 0%, 0%)" stroke-opacity="1" stroke-miterlimit="10" d="M 267.99935 639.999572 C 276.746861 655.463572 271.29682 675.087638 255.832821 683.831228 C 240.368822 692.578739 220.744755 687.132619 212.001166 671.66862 C 206.445261 661.842864 206.445261 649.825329 212.001166 639.999572 " transform="matrix(0.996266, 0, 0, -0.996266, -30.932116, 748.394689)"/>
<path fill-rule="evenodd" fill="rgb(67.799377%, 84.698486%, 90.19928%)" fill-opacity="1" d="M 210.664062 62.964844 C 210.664062 61.589844 209.546875 60.472656 208.171875 60.472656 C 206.796875 60.472656 205.679688 61.589844 205.679688 62.964844 C 205.679688 64.339844 206.796875 65.453125 208.171875 65.453125 C 209.546875 65.453125 210.664062 64.339844 210.664062 62.964844 "/>
<path fill-rule="evenodd" fill="rgb(0%, 0%, 0%)" fill-opacity="1" d="M 211.160156 62.964844 C 211.160156 61.3125 209.824219 59.976562 208.171875 59.976562 C 206.519531 59.976562 205.183594 61.3125 205.183594 62.964844 C 205.183594 64.613281 206.519531 65.953125 208.171875 65.953125 C 209.824219 65.953125 211.160156 64.613281 211.160156 62.964844 M 210.164062 62.964844 C 210.164062 61.863281 209.273438 60.972656 208.171875 60.972656 C 207.070312 60.972656 206.179688 61.863281 206.179688 62.964844 C 206.179688 64.066406 207.070312 64.957031 208.171875 64.957031 C 209.273438 64.957031 210.164062 64.066406 210.164062 62.964844 "/>
<path fill="none" stroke-width="0.8" stroke-linecap="round" stroke-linejoin="round" stroke="rgb(0%, 0%, 0%)" stroke-opacity="1" stroke-miterlimit="10" d="M 212.001166 639.999572 L 267.99935 639.999572 " transform="matrix(0.996266, 0, 0, -0.996266, -30.932116, 748.394689)"/>
<path fill="none" stroke-width="0.8" stroke-linecap="round" stroke-linejoin="round" stroke="rgb(0%, 0%, 0%)" stroke-opacity="1" stroke-miterlimit="10" d="M 257.671719 639.999572 C 253.252874 629.875828 257.875606 618.089626 267.99935 613.67078 C 278.123094 609.251935 289.913217 613.874667 294.328142 623.998411 C 296.555209 629.099492 296.555209 634.898492 294.328142 639.999572 " transform="matrix(0.996266, 0, 0, -0.996266, -30.932116, 748.394689)"/>
<path fill="none" stroke-width="0.8" stroke-linecap="round" stroke-linejoin="round" stroke="rgb(0%, 0%, 0%)" stroke-opacity="1" stroke-dasharray="4" stroke-miterlimit="10" d="M 228.288552 639.999572 C 237.122323 624.69633 256.695417 619.450176 271.99866 628.287867 C 276.864487 631.095226 280.903007 635.133745 283.714286 639.999572 " transform="matrix(0.996266, 0, 0, -0.996266, -30.932116, 748.394689)"/>
<path fill="none" stroke-width="0.8" stroke-linecap="round" stroke-linejoin="round" stroke="rgb(0%, 0%, 0%)" stroke-opacity="1" stroke-dasharray="4" stroke-miterlimit="10" d="M 228.288552 639.999572 L 283.714286 639.999572 " transform="matrix(0.996266, 0, 0, -0.996266, -30.932116, 748.394689)"/>
<path fill-rule="evenodd" fill="rgb(67.799377%, 84.698486%, 90.19928%)" fill-opacity="1" d="M 246.527344 110.785156 C 246.527344 109.410156 245.414062 108.292969 244.039062 108.292969 C 242.660156 108.292969 241.546875 109.410156 241.546875 110.785156 C 241.546875 112.160156 242.660156 113.277344 244.039062 113.277344 C 245.414062 113.277344 246.527344 112.160156 246.527344 110.785156 "/>
<path fill-rule="evenodd" fill="rgb(0%, 0%, 0%)" fill-opacity="1" d="M 247.027344 110.785156 C 247.027344 109.132812 245.6875 107.796875 244.039062 107.796875 C 242.386719 107.796875 241.046875 109.132812 241.046875 110.785156 C 241.046875 112.433594 242.386719 113.773438 244.039062 113.773438 C 245.6875 113.773438 247.027344 112.433594 247.027344 110.785156 M 246.03125 110.785156 C 246.03125 109.683594 245.136719 108.792969 244.039062 108.792969 C 242.9375 108.792969 242.042969 109.683594 242.042969 110.785156 C 242.042969 111.886719 242.9375 112.777344 244.039062 112.777344 C 245.136719 112.777344 246.03125 111.886719 246.03125 110.785156 "/>
<path fill="none" stroke-width="0.8" stroke-linecap="butt" stroke-linejoin="round" stroke="rgb(0%, 0%, 0%)" stroke-opacity="1" stroke-miterlimit="10" d="M 164.001602 680.000516 C 164.001602 702.090823 146.090965 720.00146 124.000658 720.00146 C 101.910351 720.00146 83.999714 702.090823 83.999714 680.000516 C 83.999714 657.910209 101.910351 639.999572 124.000658 639.999572 C 146.090965 639.999572 164.001602 657.910209 164.001602 680.000516 " transform="matrix(0.996266, 0, 0, -0.996266, -30.932116, 748.394689)"/>
<path fill-rule="evenodd" fill="rgb(67.799377%, 84.698486%, 90.19928%)" fill-opacity="1" d="M 95.09375 31.082031 C 95.09375 29.707031 93.980469 28.59375 92.605469 28.59375 C 91.230469 28.59375 90.113281 29.707031 90.113281 31.082031 C 90.113281 32.460938 91.230469 33.574219 92.605469 33.574219 C 93.980469 33.574219 95.09375 32.460938 95.09375 31.082031 "/>
<path fill-rule="evenodd" fill="rgb(0%, 0%, 0%)" fill-opacity="1" d="M 95.59375 31.082031 C 95.59375 29.433594 94.253906 28.09375 92.605469 28.09375 C 90.953125 28.09375 89.617188 29.433594 89.617188 31.082031 C 89.617188 32.734375 90.953125 34.074219 92.605469 34.074219 C 94.253906 34.074219 95.59375 32.734375 95.59375 31.082031 M 94.597656 31.082031 C 94.597656 29.984375 93.707031 29.089844 92.605469 29.089844 C 91.503906 29.089844 90.613281 29.984375 90.613281 31.082031 C 90.613281 32.183594 91.503906 33.074219 92.605469 33.074219 C 93.707031 33.074219 94.597656 32.183594 94.597656 31.082031 "/>
<path fill="none" stroke-width="0.8" stroke-linecap="round" stroke-linejoin="round" stroke="rgb(0%, 0%, 0%)" stroke-opacity="1" stroke-dasharray="4" stroke-miterlimit="10" d="M 284.000512 680.000516 C 284.000512 686.626824 278.628889 691.998447 271.99866 691.998447 C 265.372352 691.998447 260.00073 686.626824 260.00073 680.000516 C 260.00073 673.374208 265.372352 667.998665 271.99866 667.998665 C 278.628889 667.998665 284.000512 673.374208 284.000512 680.000516 " transform="matrix(0.996266, 0, 0, -0.996266, -30.932116, 748.394689)"/>
<path fill-rule="evenodd" fill="rgb(100%, 0%, 0%)" fill-opacity="1" d="M 242.542969 58.980469 C 242.542969 57.601562 241.429688 56.488281 240.050781 56.488281 C 238.675781 56.488281 237.5625 57.601562 237.5625 58.980469 C 237.5625 60.355469 238.675781 61.46875 240.050781 61.46875 C 241.429688 61.46875 242.542969 60.355469 242.542969 58.980469 "/>
<path fill-rule="evenodd" fill="rgb(0%, 0%, 0%)" fill-opacity="1" d="M 243.039062 58.980469 C 243.039062 57.328125 241.703125 55.988281 240.050781 55.988281 C 238.402344 55.988281 237.0625 57.328125 237.0625 58.980469 C 237.0625 60.628906 238.402344 61.96875 240.050781 61.96875 C 241.703125 61.96875 243.039062 60.628906 243.039062 58.980469 M 242.042969 58.980469 C 242.042969 57.878906 241.152344 56.988281 240.050781 56.988281 C 238.953125 56.988281 238.058594 57.878906 238.058594 58.980469 C 238.058594 60.078125 238.953125 60.972656 240.050781 60.972656 C 241.152344 60.972656 242.042969 60.078125 242.042969 58.980469 "/>
<path fill="none" stroke-width="0.8" stroke-linecap="round" stroke-linejoin="round" stroke="rgb(0%, 0%, 0%)" stroke-opacity="1" stroke-dasharray="4" stroke-miterlimit="10" d="M 240.000258 667.998665 C 240.000258 679.047739 231.04494 687.999136 219.999786 687.999136 C 208.954632 687.999136 199.999314 679.047739 199.999314 667.998665 C 199.999314 656.953511 208.954632 647.998193 219.999786 647.998193 C 231.04494 647.998193 240.000258 656.953511 240.000258 667.998665 " transform="matrix(0.996266, 0, 0, -0.996266, -30.932116, 748.394689)"/>
<path fill-rule="evenodd" fill="rgb(100%, 0%, 0%)" fill-opacity="1" d="M 190.738281 62.964844 C 190.738281 61.589844 189.621094 60.472656 188.246094 60.472656 C 186.871094 60.472656 185.753906 61.589844 185.753906 62.964844 C 185.753906 64.339844 186.871094 65.453125 188.246094 65.453125 C 189.621094 65.453125 190.738281 64.339844 190.738281 62.964844 "/>
<path fill-rule="evenodd" fill="rgb(0%, 0%, 0%)" fill-opacity="1" d="M 191.234375 62.964844 C 191.234375 61.3125 189.898438 59.976562 188.246094 59.976562 C 186.59375 59.976562 185.257812 61.3125 185.257812 62.964844 C 185.257812 64.613281 186.59375 65.953125 188.246094 65.953125 C 189.898438 65.953125 191.234375 64.613281 191.234375 62.964844 M 190.238281 62.964844 C 190.238281 61.863281 189.347656 60.972656 188.246094 60.972656 C 187.144531 60.972656 186.253906 61.863281 186.253906 62.964844 C 186.253906 64.066406 187.144531 64.957031 188.246094 64.957031 C 189.347656 64.957031 190.238281 64.066406 190.238281 62.964844 "/>
<path fill="none" stroke-width="0.8" stroke-linecap="butt" stroke-linejoin="round" stroke="rgb(0%, 0%, 0%)" stroke-opacity="1" stroke-miterlimit="10" d="M 111.998806 639.999572 C 111.998806 657.674955 97.671866 672.001896 80.000404 672.001896 C 62.325021 672.001896 47.998081 657.674955 47.998081 639.999572 C 47.998081 622.328111 62.325021 608.00117 80.000404 608.00117 C 97.671866 608.00117 111.998806 622.328111 111.998806 639.999572 " transform="matrix(0.996266, 0, 0, -0.996266, -30.932116, 748.394689)"/>
<path fill-rule="evenodd" fill="rgb(67.799377%, 84.698486%, 90.19928%)" fill-opacity="1" d="M 51.261719 78.902344 C 51.261719 77.527344 50.144531 76.414062 48.769531 76.414062 C 47.394531 76.414062 46.277344 77.527344 46.277344 78.902344 C 46.277344 80.28125 47.394531 81.394531 48.769531 81.394531 C 50.144531 81.394531 51.261719 80.28125 51.261719 78.902344 "/>
<path fill-rule="evenodd" fill="rgb(0%, 0%, 0%)" fill-opacity="1" d="M 51.757812 78.902344 C 51.757812 77.253906 50.417969 75.914062 48.769531 75.914062 C 47.117188 75.914062 45.78125 77.253906 45.78125 78.902344 C 45.78125 80.554688 47.117188 81.894531 48.769531 81.894531 C 50.417969 81.894531 51.757812 80.554688 51.757812 78.902344 M 50.761719 78.902344 C 50.761719 77.804688 49.871094 76.910156 48.769531 76.910156 C 47.667969 76.910156 46.777344 77.804688 46.777344 78.902344 C 46.777344 80.003906 47.667969 80.898438 48.769531 80.898438 C 49.871094 80.898438 50.761719 80.003906 50.761719 78.902344 "/>
<path fill="none" stroke-width="0.8" stroke-linecap="round" stroke-linejoin="round" stroke="rgb(0%, 0%, 0%)" stroke-opacity="1" stroke-dasharray="4" stroke-miterlimit="10" d="M 264.00004 639.999572 C 257.373732 648.837264 244.838639 650.625191 236.000948 643.998883 C 234.483562 642.861824 233.138696 641.516958 232.001637 639.999572 " transform="matrix(0.996266, 0, 0, -0.996266, -30.932116, 748.394689)"/>
<path fill-rule="evenodd" fill="rgb(100%, 0%, 0%)" fill-opacity="1" d="M 218.632812 102.816406 C 218.632812 101.4375 217.519531 100.324219 216.140625 100.324219 C 214.765625 100.324219 213.652344 101.4375 213.652344 102.816406 C 213.652344 104.191406 214.765625 105.304688 216.140625 105.304688 C 217.519531 105.304688 218.632812 104.191406 218.632812 102.816406 "/>
<path fill-rule="evenodd" fill="rgb(0%, 0%, 0%)" fill-opacity="1" d="M 219.128906 102.816406 C 219.128906 101.164062 217.792969 99.824219 216.140625 99.824219 C 214.492188 99.824219 213.152344 101.164062 213.152344 102.816406 C 213.152344 104.464844 214.492188 105.804688 216.140625 105.804688 C 217.792969 105.804688 219.128906 104.464844 219.128906 102.816406 M 218.132812 102.816406 C 218.132812 101.714844 217.242188 100.820312 216.140625 100.820312 C 215.039062 100.820312 214.148438 101.714844 214.148438 102.816406 C 214.148438 103.914062 215.039062 104.808594 216.140625 104.808594 C 217.242188 104.808594 218.132812 103.914062 218.132812 102.816406 "/>
<path fill="none" stroke-width="0.8" stroke-linecap="round" stroke-linejoin="round" stroke="rgb(0%, 0%, 0%)" stroke-opacity="1" stroke-dasharray="4" stroke-miterlimit="10" d="M 232.001637 639.999572 L 264.00004 639.999572 " transform="matrix(0.996266, 0, 0, -0.996266, -30.932116, 748.394689)"/>
<path fill-rule="evenodd" fill="rgb(100%, 0%, 0%)" fill-opacity="1" d="M 218.632812 110.785156 C 218.632812 109.410156 217.519531 108.292969 216.140625 108.292969 C 214.765625 108.292969 213.652344 109.410156 213.652344 110.785156 C 213.652344 112.160156 214.765625 113.277344 216.140625 113.277344 C 217.519531 113.277344 218.632812 112.160156 218.632812 110.785156 "/>
<path fill-rule="evenodd" fill="rgb(0%, 0%, 0%)" fill-opacity="1" d="M 219.128906 110.785156 C 219.128906 109.132812 217.792969 107.796875 216.140625 107.796875 C 214.492188 107.796875 213.152344 109.132812 213.152344 110.785156 C 213.152344 112.433594 214.492188 113.773438 216.140625 113.773438 C 217.792969 113.773438 219.128906 112.433594 219.128906 110.785156 M 218.132812 110.785156 C 218.132812 109.683594 217.242188 108.792969 216.140625 108.792969 C 215.039062 108.792969 214.148438 109.683594 214.148438 110.785156 C 214.148438 111.886719 215.039062 112.777344 216.140625 112.777344 C 217.242188 112.777344 218.132812 111.886719 218.132812 110.785156 "/>
</svg>
