<?xml version="1.0" encoding="UTF-8"?>
<svg xmlns="http://www.w3.org/2000/svg" xmlns:xlink="http://www.w3.org/1999/xlink" width="401.2" height="240.1" viewBox="0 0 401.2 240.1">
<path fill-rule="evenodd" fill="rgb(25.099182%, 87.799072%, 81.599426%)" fill-opacity="1" d="M 132.457031 70.933594 C 132.457031 48.925781 114.613281 31.082031 92.605469 31.082031 C 70.597656 31.082031 52.753906 48.925781 52.753906 70.933594 C 52.753906 92.941406 70.597656 110.785156 92.605469 110.785156 C 114.613281 110.785156 132.457031 92.941406 132.457031 70.933594 "/>
<path fill-rule="evenodd" fill="rgb(25.099182%, 87.799072%, 81.599426%)" fill-opacity="1" d="M 196.214844 62.964844 C 196.214844 43.15625 180.160156 27.097656 160.351562 27.097656 C 140.542969 27.097656 124.484375 43.15625 124.484375 62.964844 C 124.484375 82.773438 140.542969 98.828125 160.351562 98.828125 C 180.160156 98.828125 196.214844 82.773438 196.214844 62.964844 "/>
<path fill-rule="evenodd" fill="rgb(25.099182%, 87.799072%, 81.599426%)" fill-opacity="1" d="M 351.632812 62.964844 C 351.632812 45.355469 337.359375 31.082031 319.753906 31.082031 C 302.144531 31.082031 287.871094 45.355469 287.871094 62.964844 C 287.871094 80.570312 302.144531 94.84375 319.753906 94.84375 C 337.359375 94.84375 351.632812 80.570312 351.632812 62.964844 "/>
<path fill="none" stroke-width="1.2" stroke-linecap="round" stroke-linejoin="round" stroke="rgb(0%, 0%, 0%)" stroke-opacity="1" stroke-miterlimit="10" d="M 84.885836 671.62549 C 80.263104 693.225686 94.021515 714.488685 115.625632 719.111417 C 132.336475 722.691192 149.474695 715.25718 158.28102 700.612647 " transform="matrix(0.996266, 0, 0, -0.996266, -30.932116, 748.394689)"/>
<path fill="none" stroke-width="1.2" stroke-linecap="round" stroke-linejoin="round" stroke="rgb(0%, 0%, 0%)" stroke-opacity="1" stroke-miterlimit="10" d="M 158.28102 700.612647 C 165.244524 719.232965 185.989966 728.682315 204.610283 721.718811 C 219.493991 716.151143 228.966867 701.487006 227.923909 685.634838 " transform="matrix(0.996266, 0, 0, -0.996266, -30.932116, 748.394689)"/>
<path fill="none" stroke-width="1.2" stroke-linecap="round" stroke-linejoin="round" stroke="rgb(0%, 0%, 0%)" stroke-opacity="1" stroke-miterlimit="10" d="M 207.754839 655.628249 C 191.612525 647.774702 172.149216 653.013014 162.127415 667.908484 " transform="matrix(0.996266, 0, 0, -0.996266, -30.932116, 748.394689)"/>
<path fill="none" stroke-width="1.2" stroke-linecap="round" stroke-linejoin="round" stroke="rgb(0%, 0%, 0%)" stroke-opacity="1" stroke-miterlimit="10" d="M 162.127415 667.908484 C 155.454056 646.865055 132.995185 635.208242 111.947835 641.858075 " transform="matrix(0.996266, 0, 0, -0.996266, -30.932116, 748.394689)"/>
<path fill="none" stroke-width="1.2" stroke-linecap="round" stroke-linejoin="round" stroke="rgb(0%, 0%, 0%)" stroke-opacity="1" stroke-miterlimit="10" d="M 383.99895 687.999136 C 383.99895 705.674519 369.672009 720.00146 352.000547 720.00146 C 334.325165 720.00146 319.998224 705.674519 319.998224 687.999136 C 319.998224 670.327675 334.325165 656.000734 352.000547 656.000734 C 369.672009 656.000734 383.99895 670.327675 383.99895 687.999136 " transform="matrix(0.996266, 0, 0, -0.996266, -30.932116, 748.394689)"/>
<path fill-rule="evenodd" fill="rgb(25.099182%, 87.799072%, 81.599426%)" fill-opacity="1" d="M 240.050781 94.84375 C 240.050781 77.238281 225.777344 62.964844 208.171875 62.964844 C 190.566406 62.964844 176.292969 77.238281 176.292969 94.84375 C 176.292969 112.453125 190.566406 126.726562 208.171875 126.726562 C 225.777344 126.726562 240.050781 112.453125 240.050781 94.84375 "/>
<path fill-rule="evenodd" fill="rgb(25.099182%, 87.799072%, 81.599426%)" fill-opacity="1" d="M 80.648438 110.785156 C 80.648438 93.175781 66.375 78.902344 48.769531 78.902344 C 31.160156 78.902344 16.886719 93.175781 16.886719 110.785156 C 16.886719 128.390625 31.160156 142.664062 48.769531 142.664062 C 66.375 142.664062 80.648438 128.390625 80.648438 110.785156 "/>
<path fill="none" stroke-width="1.2" stroke-linecap="round" stroke-linejoin="round" stroke="rgb(0%, 0%, 0%)" stroke-opacity="1" stroke-miterlimit="10" d="M 227.923909 685.634838 C 244.289714 692.304276 262.964924 684.442887 269.634362 668.077082 C 276.3038 651.711278 268.442411 633.036068 252.076606 626.36663 C 235.710801 619.697192 217.035591 627.55466 210.366153 643.920465 C 208.852689 647.641392 208.048906 651.613256 208.001855 655.63217 " transform="matrix(0.996266, 0, 0, -0.996266, -30.932116, 748.394689)"/>
<path fill="none" stroke-width="1.2" stroke-linecap="round" stroke-linejoin="round" stroke="rgb(0%, 0%, 0%)" stroke-opacity="1" stroke-miterlimit="10" d="M 111.947835 641.858075 C 112.971188 624.21406 99.502923 609.079415 81.858907 608.052142 C 64.214892 607.028789 49.080247 620.497054 48.052973 638.141069 C 47.0257 655.785085 60.497886 670.919729 78.141901 671.947003 C 80.396414 672.076393 82.654848 671.970529 84.885836 671.62549 " transform="matrix(0.996266, 0, 0, -0.996266, -30.932116, 748.394689)"/>
</svg>
