<?xml version="1.0" encoding="UTF-8"?>
<svg xmlns="http://www.w3.org/2000/svg" xmlns:xlink="http://www.w3.org/1999/xlink" width="299.141" height="269.577" viewBox="0 0 299.141 269.577">
<defs>
<clipPath id="clip-0">
<path clip-rule="nonzero" d="M 67 196 L 140 196 L 140 268.980469 L 67 268.980469 Z M 67 196 "/>
</clipPath>
<clipPath id="clip-1">
<path clip-rule="nonzero" d="M 174 0.175781 L 224 0.175781 L 224 50 L 174 50 Z M 174 0.175781 "/>
</clipPath>
</defs>
<path fill="none" stroke-width="0.8" stroke-linecap="round" stroke-linejoin="round" stroke="rgb(25.099182%, 87.799072%, 81.599426%)" stroke-opacity="1" stroke-dasharray="4" stroke-miterlimit="10" d="M 121.384521 808.266766 L 154.757422 708.563313 " transform="matrix(0.997137, 0, 0, -0.997137, -104.259613, 838.667273)"/>
<path fill="none" stroke-width="0.8" stroke-linecap="round" stroke-linejoin="round" stroke="rgb(25.099182%, 87.799072%, 81.599426%)" stroke-opacity="1" stroke-dasharray="4" stroke-miterlimit="10" d="M 234.665914 714.666727 C 234.665914 703.999464 245.333177 688.000529 258.668235 682.668856 C 271.999375 677.333266 287.99831 682.668856 296.001696 690.668324 C 304.001163 698.667792 304.001163 709.331137 296.001696 711.998932 C 287.99831 714.666727 271.999375 709.331137 263.999907 711.998932 C 256.00044 714.666727 256.00044 725.33399 250.668767 728.001785 C 245.333177 730.665662 234.665914 725.33399 234.665914 714.666727 Z M 234.665914 714.666727 " transform="matrix(0.997137, 0, 0, -0.997137, -104.259613, 838.667273)"/>
<path fill="none" stroke-width="0.8" stroke-linecap="round" stroke-linejoin="round" stroke="rgb(25.099182%, 87.799072%, 81.599426%)" stroke-opacity="1" stroke-dasharray="4" stroke-miterlimit="10" d="M 222.713723 748.380448 L 256.00044 703.999464 " transform="matrix(0.997137, 0, 0, -0.997137, -104.259613, 838.667273)"/>
<path fill="none" stroke-width="0.8" stroke-linecap="round" stroke-linejoin="round" stroke="rgb(25.099182%, 87.799072%, 81.599426%)" stroke-opacity="1" stroke-dasharray="4" stroke-miterlimit="10" d="M 192.000781 672.001594 L 271.999375 655.998741 L 287.99831 752.000188 L 368.000822 752.000188 " transform="matrix(0.997137, 0, 0, -0.997137, -104.259613, 838.667273)"/>
<path fill="none" stroke-width="0.8" stroke-linecap="round" stroke-linejoin="round" stroke="rgb(25.099182%, 87.799072%, 81.599426%)" stroke-opacity="1" stroke-dasharray="4" stroke-miterlimit="10" d="M 352.001886 719.9984 L 335.999034 672.001594 L 383.999757 639.999806 L 399.998692 688.000529 " transform="matrix(0.997137, 0, 0, -0.997137, -104.259613, 838.667273)"/>
<path fill="none" stroke-width="0.8" stroke-linecap="round" stroke-linejoin="round" stroke="rgb(25.099182%, 87.799072%, 81.599426%)" stroke-opacity="1" stroke-dasharray="4" stroke-miterlimit="10" d="M 352.001886 624.00087 L 223.998652 688.000529 " transform="matrix(0.997137, 0, 0, -0.997137, -104.259613, 838.667273)"/>
<path fill="none" stroke-width="0.8" stroke-linecap="round" stroke-linejoin="round" stroke="rgb(25.099182%, 87.799072%, 81.599426%)" stroke-opacity="1" stroke-dasharray="4" stroke-miterlimit="10" d="M 371.77726 639.999806 C 371.77726 659.759509 355.758737 675.778032 335.999034 675.778032 C 316.23933 675.778032 300.224725 659.759509 300.224725 639.999806 C 300.224725 620.240102 316.23933 604.22158 335.999034 604.22158 C 355.758737 604.22158 371.77726 620.240102 371.77726 639.999806 " transform="matrix(0.997137, 0, 0, -0.997137, -104.259613, 838.667273)"/>
<path fill="none" stroke-width="0.8" stroke-linecap="round" stroke-linejoin="round" stroke="rgb(25.099182%, 87.799072%, 81.599426%)" stroke-opacity="1" stroke-dasharray="4" stroke-miterlimit="10" d="M 144.000058 672.001594 L 207.999717 655.998741 " transform="matrix(0.997137, 0, 0, -0.997137, -104.259613, 838.667273)"/>
<path fill="none" stroke-width="0.8" stroke-linecap="round" stroke-linejoin="round" stroke="rgb(25.099182%, 87.799072%, 81.599426%)" stroke-opacity="1" stroke-dasharray="4" stroke-miterlimit="10" d="M 223.998652 655.998741 C 223.998652 673.674352 209.672475 688.000529 192.000781 688.000529 C 174.32517 688.000529 159.998993 673.674352 159.998993 655.998741 C 159.998993 638.327047 174.32517 624.00087 192.000781 624.00087 C 209.672475 624.00087 223.998652 638.327047 223.998652 655.998741 " transform="matrix(0.997137, 0, 0, -0.997137, -104.259613, 838.667273)"/>
<path fill="none" stroke-width="0.8" stroke-linecap="round" stroke-linejoin="round" stroke="rgb(25.099182%, 87.799072%, 81.599426%)" stroke-opacity="1" stroke-dasharray="4" stroke-miterlimit="10" d="M 159.998993 703.999464 C 159.998993 746.668515 176.001846 757.33186 207.999717 736.001252 " transform="matrix(0.997137, 0, 0, -0.997137, -104.259613, 838.667273)"/>
<path fill="none" stroke-width="0.8" stroke-linecap="round" stroke-linejoin="round" stroke="rgb(25.099182%, 87.799072%, 81.599426%)" stroke-opacity="1" stroke-dasharray="4" stroke-miterlimit="10" d="M 166.627347 703.999464 C 166.627347 716.496184 156.496778 726.626754 144.000058 726.626754 C 131.503338 726.626754 121.372768 716.496184 121.372768 703.999464 C 121.372768 691.502745 131.503338 681.372175 144.000058 681.372175 C 156.496778 681.372175 166.627347 691.502745 166.627347 703.999464 " transform="matrix(0.997137, 0, 0, -0.997137, -104.259613, 838.667273)"/>
<path fill="none" stroke-width="0.8" stroke-linecap="round" stroke-linejoin="round" stroke="rgb(25.099182%, 87.799072%, 81.599426%)" stroke-opacity="1" stroke-dasharray="4" stroke-miterlimit="10" d="M 179.778284 655.998741 C 179.778284 675.758445 163.759762 691.776967 144.000058 691.776967 C 124.240354 691.776967 108.221832 675.758445 108.221832 655.998741 C 108.221832 636.242955 124.240354 620.224432 144.000058 620.224432 C 163.759762 620.224432 179.778284 636.242955 179.778284 655.998741 " transform="matrix(0.997137, 0, 0, -0.997137, -104.259613, 838.667273)"/>
<path fill="none" stroke-width="0.8" stroke-linecap="round" stroke-linejoin="round" stroke="rgb(25.099182%, 87.799072%, 81.599426%)" stroke-opacity="1" stroke-dasharray="4" stroke-miterlimit="10" d="M 176.001846 783.998058 C 176.001846 792.835864 168.836799 800.000911 159.998993 800.000911 C 151.161188 800.000911 144.000058 792.835864 144.000058 783.998058 C 144.000058 775.16417 151.161188 767.999123 159.998993 767.999123 C 168.836799 767.999123 176.001846 775.16417 176.001846 783.998058 " transform="matrix(0.997137, 0, 0, -0.997137, -104.259613, 838.667273)"/>
<path fill="none" stroke-width="0.8" stroke-linecap="round" stroke-linejoin="round" stroke="rgb(25.099182%, 87.799072%, 81.599426%)" stroke-opacity="1" stroke-dasharray="4" stroke-miterlimit="10" d="M 111.99827 783.998058 L 271.999375 783.998058 " transform="matrix(0.997137, 0, 0, -0.997137, -104.259613, 838.667273)"/>
<path fill="none" stroke-width="0.8" stroke-linecap="round" stroke-linejoin="round" stroke="rgb(25.099182%, 87.799072%, 81.599426%)" stroke-opacity="1" stroke-dasharray="4" stroke-miterlimit="10" d="M 122.665533 757.33186 C 117.33386 746.668515 106.666597 741.332925 109.334392 733.333457 C 111.99827 725.33399 128.001123 714.666727 138.668385 717.334522 C 149.331731 719.9984 154.667321 736.001252 157.331198 757.33186 C 159.998993 778.666386 159.998993 805.332584 154.667321 813.332051 C 149.331731 821.331519 138.668385 810.668174 133.332795 797.333116 C 128.001123 783.998058 128.001123 767.999123 122.665533 757.33186 Z M 122.665533 757.33186 " transform="matrix(0.997137, 0, 0, -0.997137, -104.259613, 838.667273)"/>
<path fill="none" stroke-width="0.8" stroke-linecap="round" stroke-linejoin="round" stroke="rgb(25.099182%, 87.799072%, 81.599426%)" stroke-opacity="1" stroke-dasharray="4" stroke-miterlimit="10" d="M 176.001846 719.9984 L 271.999375 815.999846 " transform="matrix(0.997137, 0, 0, -0.997137, -104.259613, 838.667273)"/>
<path fill="none" stroke-width="0.8" stroke-linecap="round" stroke-linejoin="round" stroke="rgb(25.099182%, 87.799072%, 81.599426%)" stroke-opacity="1" stroke-dasharray="4" stroke-miterlimit="10" d="M 240.001505 800.000911 L 304.001163 719.9984 " transform="matrix(0.997137, 0, 0, -0.997137, -104.259613, 838.667273)"/>
<path fill="none" stroke-width="0.8" stroke-linecap="round" stroke-linejoin="round" stroke="rgb(25.099182%, 87.799072%, 81.599426%)" stroke-opacity="1" stroke-dasharray="4" stroke-miterlimit="10" d="M 342.627388 752.000188 C 342.627388 764.496907 332.496818 774.627477 320.000098 774.627477 C 307.503379 774.627477 297.372809 764.496907 297.372809 752.000188 C 297.372809 739.503468 307.503379 729.372898 320.000098 729.372898 C 332.496818 729.372898 342.627388 739.503468 342.627388 752.000188 " transform="matrix(0.997137, 0, 0, -0.997137, -104.259613, 838.667273)"/>
<path fill="none" stroke-width="0.8" stroke-linecap="round" stroke-linejoin="round" stroke="rgb(25.099182%, 87.799072%, 81.599426%)" stroke-opacity="1" stroke-dasharray="4" stroke-miterlimit="10" d="M 399.998692 655.998741 L 320.000098 719.9984 L 335.999034 800.000911 " transform="matrix(0.997137, 0, 0, -0.997137, -104.259613, 838.667273)"/>
<path fill="none" stroke-width="0.8" stroke-linecap="round" stroke-linejoin="round" stroke="rgb(25.099182%, 87.799072%, 81.599426%)" stroke-opacity="1" stroke-dasharray="4" stroke-miterlimit="10" d="M 256.00044 591.999082 C 207.999717 624.00087 240.001505 632.000338 258.668235 625.332809 C 277.331048 618.66528 282.666638 597.334673 293.3339 598.666611 C 304.001163 599.99855 320.000098 624.00087 335.999034 655.998741 " transform="matrix(0.997137, 0, 0, -0.997137, -104.259613, 838.667273)"/>
<g clip-path="url(#clip-0)">
<path fill="none" stroke-width="0.8" stroke-linecap="round" stroke-linejoin="round" stroke="rgb(25.099182%, 87.799072%, 81.599426%)" stroke-opacity="1" stroke-dasharray="4" stroke-miterlimit="10" d="M 243.777943 608.001935 C 243.777943 627.757721 227.75942 643.776244 207.999717 643.776244 C 188.240013 643.776244 172.22149 627.757721 172.22149 608.001935 C 172.22149 588.242232 188.240013 572.223709 207.999717 572.223709 C 227.75942 572.223709 243.777943 588.242232 243.777943 608.001935 " transform="matrix(0.997137, 0, 0, -0.997137, -104.259613, 838.667273)"/>
</g>
<path fill="none" stroke-width="0.8" stroke-linecap="round" stroke-linejoin="round" stroke="rgb(25.099182%, 87.799072%, 81.599426%)" stroke-opacity="1" stroke-dasharray="4" stroke-miterlimit="10" d="M 240.001505 815.999846 L 368.000822 783.998058 " transform="matrix(0.997137, 0, 0, -0.997137, -104.259613, 838.667273)"/>
<path fill="none" stroke-width="0.8" stroke-linecap="round" stroke-linejoin="round" stroke="rgb(25.099182%, 87.799072%, 81.599426%)" stroke-opacity="1" stroke-dasharray="4" stroke-miterlimit="10" d="M 240.001505 752.000188 L 192.000781 680.001061 " transform="matrix(0.997137, 0, 0, -0.997137, -104.259613, 838.667273)"/>
<path fill="none" stroke-width="0.8" stroke-linecap="round" stroke-linejoin="round" stroke="rgb(25.099182%, 87.799072%, 81.599426%)" stroke-opacity="1" stroke-dasharray="4" stroke-miterlimit="10" d="M 231.998119 672.001594 L 263.999907 744.00072 " transform="matrix(0.997137, 0, 0, -0.997137, -104.259613, 838.667273)"/>
<path fill="none" stroke-width="0.8" stroke-linecap="round" stroke-linejoin="round" stroke="rgb(25.099182%, 87.799072%, 81.599426%)" stroke-opacity="1" stroke-dasharray="4" stroke-miterlimit="10" d="M 176.001846 736.001252 L 223.998652 695.999997 " transform="matrix(0.997137, 0, 0, -0.997137, -104.259613, 838.667273)"/>
<path fill="none" stroke-width="0.8" stroke-linecap="round" stroke-linejoin="round" stroke="rgb(25.099182%, 87.799072%, 81.599426%)" stroke-opacity="1" stroke-dasharray="4" stroke-miterlimit="10" d="M 231.998119 695.999997 L 215.999184 744.00072 " transform="matrix(0.997137, 0, 0, -0.997137, -104.259613, 838.667273)"/>
<path fill="none" stroke-width="0.8" stroke-linecap="round" stroke-linejoin="round" stroke="rgb(25.099182%, 87.799072%, 81.599426%)" stroke-opacity="1" stroke-dasharray="4" stroke-miterlimit="10" d="M 215.999184 655.998741 L 207.999717 695.999997 L 240.001505 711.998932 " transform="matrix(0.997137, 0, 0, -0.997137, -104.259613, 838.667273)"/>
<path fill="none" stroke-width="0.8" stroke-linecap="round" stroke-linejoin="round" stroke="rgb(25.099182%, 87.799072%, 81.599426%)" stroke-opacity="1" stroke-dasharray="4" stroke-miterlimit="10" d="M 248.000972 616.001403 L 279.998843 767.999123 " transform="matrix(0.997137, 0, 0, -0.997137, -104.259613, 838.667273)"/>
<path fill="none" stroke-width="0.8" stroke-linecap="round" stroke-linejoin="round" stroke="rgb(25.099182%, 87.799072%, 81.599426%)" stroke-opacity="1" stroke-dasharray="4" stroke-miterlimit="10" d="M 151.999526 632.000338 L 184.001314 608.001935 " transform="matrix(0.997137, 0, 0, -0.997137, -104.259613, 838.667273)"/>
<path fill="none" stroke-width="0.8" stroke-linecap="round" stroke-linejoin="round" stroke="rgb(25.099182%, 87.799072%, 81.599426%)" stroke-opacity="1" stroke-dasharray="4" stroke-miterlimit="10" d="M 144.000058 800.000911 C 176.001846 831.998782 186.798385 817.598173 196.599887 815.200683 C 206.40139 812.799276 215.200021 822.400987 229.60063 827.199885 C 244.001238 831.998782 263.999907 831.998782 287.99831 823.999314 " transform="matrix(0.997137, 0, 0, -0.997137, -104.259613, 838.667273)"/>
<path fill="none" stroke-width="0.8" stroke-linecap="round" stroke-linejoin="round" stroke="rgb(25.099182%, 87.799072%, 81.599426%)" stroke-opacity="1" stroke-dasharray="4" stroke-miterlimit="10" d="M 200.000249 823.999314 C 210.667512 792.001443 223.998652 773.334713 240.001505 767.999123 " transform="matrix(0.997137, 0, 0, -0.997137, -104.259613, 838.667273)"/>
<path fill="none" stroke-width="0.8" stroke-linecap="round" stroke-linejoin="round" stroke="rgb(25.099182%, 87.799072%, 81.599426%)" stroke-opacity="1" stroke-dasharray="4" stroke-miterlimit="10" d="M 263.999907 792.001443 L 207.999717 831.998782 " transform="matrix(0.997137, 0, 0, -0.997137, -104.259613, 838.667273)"/>
<g clip-path="url(#clip-1)">
<path fill="none" stroke-width="0.8" stroke-linecap="round" stroke-linejoin="round" stroke="rgb(25.099182%, 87.799072%, 81.599426%)" stroke-opacity="1" stroke-dasharray="4" stroke-miterlimit="10" d="M 327.999566 815.999846 C 327.999566 829.256555 317.253954 839.998249 304.001163 839.998249 C 290.744455 839.998249 279.998843 829.256555 279.998843 815.999846 C 279.998843 802.743138 290.744455 792.001443 304.001163 792.001443 C 317.253954 792.001443 327.999566 802.743138 327.999566 815.999846 " transform="matrix(0.997137, 0, 0, -0.997137, -104.259613, 838.667273)"/>
</g>
<path fill="none" stroke-width="0.8" stroke-linecap="round" stroke-linejoin="round" stroke="rgb(25.099182%, 87.799072%, 81.599426%)" stroke-opacity="1" stroke-dasharray="4" stroke-miterlimit="10" d="M 220.504271 834.654824 L 219.16058 768.426127 " transform="matrix(0.997137, 0, 0, -0.997137, -104.259613, 838.667273)"/>
<path fill="none" stroke-width="1.2" stroke-linecap="round" stroke-linejoin="round" stroke="rgb(0%, 0%, 0%)" stroke-opacity="1" stroke-miterlimit="10" d="M 191.225123 723.308659 L 214.69075 758.687304 " transform="matrix(0.997137, 0, 0, -0.997137, -104.259613, 838.667273)"/>
<path fill="none" stroke-width="1.2" stroke-linecap="round" stroke-linejoin="round" stroke="rgb(0%, 0%, 0%)" stroke-opacity="1" stroke-miterlimit="10" d="M 207.999717 695.999997 L 222.396408 646.001365 " transform="matrix(0.997137, 0, 0, -0.997137, -104.259613, 838.667273)"/>
<path fill="none" stroke-width="1.2" stroke-linecap="round" stroke-linejoin="round" stroke="rgb(0%, 0%, 0%)" stroke-opacity="1" stroke-miterlimit="10" d="M 207.999717 695.999997 L 258.139377 682.884317 " transform="matrix(0.997137, 0, 0, -0.997137, -104.259613, 838.667273)"/>
<path fill="none" stroke-width="1.2" stroke-linecap="round" stroke-linejoin="round" stroke="rgb(0%, 0%, 0%)" stroke-opacity="1" stroke-miterlimit="10" d="M 224.664621 718.012244 L 240.001505 752.000188 " transform="matrix(0.997137, 0, 0, -0.997137, -104.259613, 838.667273)"/>
<path fill="none" stroke-width="1.2" stroke-linecap="round" stroke-linejoin="round" stroke="rgb(0%, 0%, 0%)" stroke-opacity="1" stroke-miterlimit="10" d="M 191.225123 723.308659 L 240.001505 752.000188 " transform="matrix(0.997137, 0, 0, -0.997137, -104.259613, 838.667273)"/>
<path fill="none" stroke-width="1.2" stroke-linecap="round" stroke-linejoin="round" stroke="rgb(0%, 0%, 0%)" stroke-opacity="1" stroke-miterlimit="10" d="M 214.69075 758.687304 L 179.507979 746.586248 " transform="matrix(0.997137, 0, 0, -0.997137, -104.259613, 838.667273)"/>
<path fill="none" stroke-width="1.2" stroke-linecap="round" stroke-linejoin="round" stroke="rgb(0%, 0%, 0%)" stroke-opacity="1" stroke-miterlimit="10" d="M 214.69075 758.687304 L 196.208141 783.998058 " transform="matrix(0.997137, 0, 0, -0.997137, -104.259613, 838.667273)"/>
<path fill="none" stroke-width="1.2" stroke-linecap="round" stroke-linejoin="round" stroke="rgb(0%, 0%, 0%)" stroke-opacity="1" stroke-miterlimit="10" d="M 214.69075 758.687304 L 215.936505 789.032003 " transform="matrix(0.997137, 0, 0, -0.997137, -104.259613, 838.667273)"/>
<path fill="none" stroke-width="1.2" stroke-linecap="round" stroke-linejoin="round" stroke="rgb(0%, 0%, 0%)" stroke-opacity="1" stroke-miterlimit="10" d="M 214.69075 758.687304 L 262.620959 771.724634 " transform="matrix(0.997137, 0, 0, -0.997137, -104.259613, 838.667273)"/>
<path fill="none" stroke-width="1.2" stroke-linecap="round" stroke-linejoin="round" stroke="rgb(0%, 0%, 0%)" stroke-opacity="1" stroke-miterlimit="10" d="M 214.69075 758.687304 L 301.450892 800.639458 " transform="matrix(0.997137, 0, 0, -0.997137, -104.259613, 838.667273)"/>
<path fill="none" stroke-width="1.2" stroke-linecap="round" stroke-linejoin="round" stroke="rgb(0%, 0%, 0%)" stroke-opacity="1" stroke-miterlimit="10" d="M 214.69075 758.687304 L 234.411279 813.136178 " transform="matrix(0.997137, 0, 0, -0.997137, -104.259613, 838.667273)"/>
<path fill="none" stroke-width="1.2" stroke-linecap="round" stroke-linejoin="round" stroke="rgb(0%, 0%, 0%)" stroke-opacity="1" stroke-miterlimit="10" d="M 179.507979 746.586248 L 122.054408 698.487588 " transform="matrix(0.997137, 0, 0, -0.997137, -104.259613, 838.667273)"/>
<path fill="none" stroke-width="1.2" stroke-linecap="round" stroke-linejoin="round" stroke="rgb(0%, 0%, 0%)" stroke-opacity="1" stroke-miterlimit="10" d="M 171.579026 795.041398 L 196.208141 783.998058 " transform="matrix(0.997137, 0, 0, -0.997137, -104.259613, 838.667273)"/>
<path fill="none" stroke-width="1.2" stroke-linecap="round" stroke-linejoin="round" stroke="rgb(0%, 0%, 0%)" stroke-opacity="1" stroke-miterlimit="10" d="M 171.579026 795.041398 L 119.786194 752.607395 " transform="matrix(0.997137, 0, 0, -0.997137, -104.259613, 838.667273)"/>
<path fill="none" stroke-width="1.2" stroke-linecap="round" stroke-linejoin="round" stroke="rgb(0%, 0%, 0%)" stroke-opacity="1" stroke-miterlimit="10" d="M 196.208141 783.998058 L 119.786194 752.607395 " transform="matrix(0.997137, 0, 0, -0.997137, -104.259613, 838.667273)"/>
<path fill="none" stroke-width="1.2" stroke-linecap="round" stroke-linejoin="round" stroke="rgb(0%, 0%, 0%)" stroke-opacity="1" stroke-miterlimit="10" d="M 196.208141 783.998058 L 139.545898 754.013766 " transform="matrix(0.997137, 0, 0, -0.997137, -104.259613, 838.667273)"/>
<path fill="none" stroke-width="1.2" stroke-linecap="round" stroke-linejoin="round" stroke="rgb(0%, 0%, 0%)" stroke-opacity="1" stroke-miterlimit="10" d="M 196.208141 783.998058 L 215.936505 789.032003 " transform="matrix(0.997137, 0, 0, -0.997137, -104.259613, 838.667273)"/>
<path fill="none" stroke-width="1.2" stroke-linecap="round" stroke-linejoin="round" stroke="rgb(0%, 0%, 0%)" stroke-opacity="1" stroke-miterlimit="10" d="M 196.208141 783.998058 L 219.967578 808.10615 " transform="matrix(0.997137, 0, 0, -0.997137, -104.259613, 838.667273)"/>
<path fill="none" stroke-width="1.2" stroke-linecap="round" stroke-linejoin="round" stroke="rgb(0%, 0%, 0%)" stroke-opacity="1" stroke-miterlimit="10" d="M 196.208141 783.998058 L 262.620959 771.724634 " transform="matrix(0.997137, 0, 0, -0.997137, -104.259613, 838.667273)"/>
<path fill="none" stroke-width="1.2" stroke-linecap="round" stroke-linejoin="round" stroke="rgb(0%, 0%, 0%)" stroke-opacity="1" stroke-miterlimit="10" d="M 222.396408 646.001365 L 189.297729 660.676197 " transform="matrix(0.997137, 0, 0, -0.997137, -104.259613, 838.667273)"/>
<path fill="none" stroke-width="1.2" stroke-linecap="round" stroke-linejoin="round" stroke="rgb(0%, 0%, 0%)" stroke-opacity="1" stroke-miterlimit="10" d="M 222.396408 646.001365 L 230.724943 635.635748 " transform="matrix(0.997137, 0, 0, -0.997137, -104.259613, 838.667273)"/>
<path fill="none" stroke-width="1.2" stroke-linecap="round" stroke-linejoin="round" stroke="rgb(0%, 0%, 0%)" stroke-opacity="1" stroke-miterlimit="10" d="M 222.396408 646.001365 L 108.257089 657.600985 " transform="matrix(0.997137, 0, 0, -0.997137, -104.259613, 838.667273)"/>
<path fill="none" stroke-width="1.2" stroke-linecap="round" stroke-linejoin="round" stroke="rgb(0%, 0%, 0%)" stroke-opacity="1" stroke-miterlimit="10" d="M 108.257089 657.600985 L 122.054408 698.487588 " transform="matrix(0.997137, 0, 0, -0.997137, -104.259613, 838.667273)"/>
<path fill="none" stroke-width="1.2" stroke-linecap="round" stroke-linejoin="round" stroke="rgb(0%, 0%, 0%)" stroke-opacity="1" stroke-miterlimit="10" d="M 108.257089 657.600985 L 184.001314 608.001935 " transform="matrix(0.997137, 0, 0, -0.997137, -104.259613, 838.667273)"/>
<path fill="none" stroke-width="1.2" stroke-linecap="round" stroke-linejoin="round" stroke="rgb(0%, 0%, 0%)" stroke-opacity="1" stroke-miterlimit="10" d="M 108.257089 657.600985 L 189.297729 660.676197 " transform="matrix(0.997137, 0, 0, -0.997137, -104.259613, 838.667273)"/>
<path fill="none" stroke-width="1.2" stroke-linecap="round" stroke-linejoin="round" stroke="rgb(0%, 0%, 0%)" stroke-opacity="1" stroke-miterlimit="10" d="M 122.054408 698.487588 L 139.545898 754.013766 " transform="matrix(0.997137, 0, 0, -0.997137, -104.259613, 838.667273)"/>
<path fill="none" stroke-width="1.2" stroke-linecap="round" stroke-linejoin="round" stroke="rgb(0%, 0%, 0%)" stroke-opacity="1" stroke-miterlimit="10" d="M 122.054408 698.487588 L 119.786194 752.607395 " transform="matrix(0.997137, 0, 0, -0.997137, -104.259613, 838.667273)"/>
<path fill="none" stroke-width="1.2" stroke-linecap="round" stroke-linejoin="round" stroke="rgb(0%, 0%, 0%)" stroke-opacity="1" stroke-miterlimit="10" d="M 119.786194 752.607395 L 181.133728 820.387409 " transform="matrix(0.997137, 0, 0, -0.997137, -104.259613, 838.667273)"/>
<path fill="none" stroke-width="1.2" stroke-linecap="round" stroke-linejoin="round" stroke="rgb(0%, 0%, 0%)" stroke-opacity="1" stroke-miterlimit="10" d="M 119.786194 752.607395 L 139.545898 754.013766 " transform="matrix(0.997137, 0, 0, -0.997137, -104.259613, 838.667273)"/>
<path fill="none" stroke-width="1.2" stroke-linecap="round" stroke-linejoin="round" stroke="rgb(0%, 0%, 0%)" stroke-opacity="1" stroke-miterlimit="10" d="M 326.969272 822.961185 L 301.450892 800.639458 " transform="matrix(0.997137, 0, 0, -0.997137, -104.259613, 838.667273)"/>
<path fill="none" stroke-width="1.2" stroke-linecap="round" stroke-linejoin="round" stroke="rgb(0%, 0%, 0%)" stroke-opacity="1" stroke-miterlimit="10" d="M 326.969272 822.961185 L 181.133728 820.387409 " transform="matrix(0.997137, 0, 0, -0.997137, -104.259613, 838.667273)"/>
<path fill="none" stroke-width="1.2" stroke-linecap="round" stroke-linejoin="round" stroke="rgb(0%, 0%, 0%)" stroke-opacity="1" stroke-miterlimit="10" d="M 181.133728 820.387409 L 234.411279 813.136178 " transform="matrix(0.997137, 0, 0, -0.997137, -104.259613, 838.667273)"/>
<path fill="none" stroke-width="1.2" stroke-linecap="round" stroke-linejoin="round" stroke="rgb(0%, 0%, 0%)" stroke-opacity="1" stroke-miterlimit="10" d="M 181.133728 820.387409 L 219.967578 808.10615 " transform="matrix(0.997137, 0, 0, -0.997137, -104.259613, 838.667273)"/>
<path fill="none" stroke-width="1.2" stroke-linecap="round" stroke-linejoin="round" stroke="rgb(0%, 0%, 0%)" stroke-opacity="1" stroke-miterlimit="10" d="M 181.133728 820.387409 L 215.936505 789.032003 " transform="matrix(0.997137, 0, 0, -0.997137, -104.259613, 838.667273)"/>
<path fill="none" stroke-width="1.2" stroke-linecap="round" stroke-linejoin="round" stroke="rgb(0%, 0%, 0%)" stroke-opacity="1" stroke-miterlimit="10" d="M 301.450892 800.639458 L 332.175586 780.883672 " transform="matrix(0.997137, 0, 0, -0.997137, -104.259613, 838.667273)"/>
<path fill="none" stroke-width="1.2" stroke-linecap="round" stroke-linejoin="round" stroke="rgb(0%, 0%, 0%)" stroke-opacity="1" stroke-miterlimit="10" d="M 234.411279 813.136178 L 219.967578 808.10615 " transform="matrix(0.997137, 0, 0, -0.997137, -104.259613, 838.667273)"/>
<path fill="none" stroke-width="1.2" stroke-linecap="round" stroke-linejoin="round" stroke="rgb(0%, 0%, 0%)" stroke-opacity="1" stroke-miterlimit="10" d="M 219.967578 808.10615 L 215.936505 789.032003 " transform="matrix(0.997137, 0, 0, -0.997137, -104.259613, 838.667273)"/>
<path fill="none" stroke-width="1.2" stroke-linecap="round" stroke-linejoin="round" stroke="rgb(0%, 0%, 0%)" stroke-opacity="1" stroke-miterlimit="10" d="M 262.620959 771.724634 L 271.799584 729.055583 " transform="matrix(0.997137, 0, 0, -0.997137, -104.259613, 838.667273)"/>
<path fill="none" stroke-width="1.2" stroke-linecap="round" stroke-linejoin="round" stroke="rgb(0%, 0%, 0%)" stroke-opacity="1" stroke-miterlimit="10" d="M 262.620959 771.724634 L 283.555903 725.337907 " transform="matrix(0.997137, 0, 0, -0.997137, -104.259613, 838.667273)"/>
<path fill="none" stroke-width="1.2" stroke-linecap="round" stroke-linejoin="round" stroke="rgb(0%, 0%, 0%)" stroke-opacity="1" stroke-miterlimit="10" d="M 184.001314 608.001935 L 230.724943 635.635748 " transform="matrix(0.997137, 0, 0, -0.997137, -104.259613, 838.667273)"/>
<path fill="none" stroke-width="1.2" stroke-linecap="round" stroke-linejoin="round" stroke="rgb(0%, 0%, 0%)" stroke-opacity="1" stroke-miterlimit="10" d="M 256.00044 591.999082 L 230.724943 635.635748 " transform="matrix(0.997137, 0, 0, -0.997137, -104.259613, 838.667273)"/>
<path fill="none" stroke-width="1.2" stroke-linecap="round" stroke-linejoin="round" stroke="rgb(0%, 0%, 0%)" stroke-opacity="1" stroke-miterlimit="10" d="M 256.00044 591.999082 L 300.228642 640.520829 " transform="matrix(0.997137, 0, 0, -0.997137, -104.259613, 838.667273)"/>
<path fill="none" stroke-width="1.2" stroke-linecap="round" stroke-linejoin="round" stroke="rgb(0%, 0%, 0%)" stroke-opacity="1" stroke-miterlimit="10" d="M 256.00044 591.999082 L 240.181708 678.915923 " transform="matrix(0.997137, 0, 0, -0.997137, -104.259613, 838.667273)"/>
<path fill="none" stroke-width="1.2" stroke-linecap="round" stroke-linejoin="round" stroke="rgb(0%, 0%, 0%)" stroke-opacity="1" stroke-miterlimit="10" d="M 300.228642 640.520829 L 240.181708 678.915923 " transform="matrix(0.997137, 0, 0, -0.997137, -104.259613, 838.667273)"/>
<path fill="none" stroke-width="1.2" stroke-linecap="round" stroke-linejoin="round" stroke="rgb(0%, 0%, 0%)" stroke-opacity="1" stroke-miterlimit="10" d="M 300.228642 640.520829 L 399.998692 688.000529 " transform="matrix(0.997137, 0, 0, -0.997137, -104.259613, 838.667273)"/>
<path fill="none" stroke-width="1.2" stroke-linecap="round" stroke-linejoin="round" stroke="rgb(0%, 0%, 0%)" stroke-opacity="1" stroke-miterlimit="10" d="M 399.998692 688.000529 L 332.175586 780.883672 " transform="matrix(0.997137, 0, 0, -0.997137, -104.259613, 838.667273)"/>
<path fill="none" stroke-width="1.2" stroke-linecap="round" stroke-linejoin="round" stroke="rgb(0%, 0%, 0%)" stroke-opacity="1" stroke-miterlimit="10" d="M 332.175586 780.883672 L 307.444617 770.823617 " transform="matrix(0.997137, 0, 0, -0.997137, -104.259613, 838.667273)"/>
<path fill="none" stroke-width="1.2" stroke-linecap="round" stroke-linejoin="round" stroke="rgb(0%, 0%, 0%)" stroke-opacity="1" stroke-miterlimit="10" d="M 332.175586 780.883672 L 283.555903 725.337907 " transform="matrix(0.997137, 0, 0, -0.997137, -104.259613, 838.667273)"/>
<path fill="none" stroke-width="1.2" stroke-linecap="round" stroke-linejoin="round" stroke="rgb(0%, 0%, 0%)" stroke-opacity="1" stroke-miterlimit="10" d="M 283.555903 725.337907 L 307.444617 770.823617 " transform="matrix(0.997137, 0, 0, -0.997137, -104.259613, 838.667273)"/>
<path fill="none" stroke-width="1.2" stroke-linecap="round" stroke-linejoin="round" stroke="rgb(0%, 0%, 0%)" stroke-opacity="1" stroke-miterlimit="10" d="M 240.001505 752.000188 L 243.836705 720.217778 " transform="matrix(0.997137, 0, 0, -0.997137, -104.259613, 838.667273)"/>
<path fill="none" stroke-width="1.2" stroke-linecap="round" stroke-linejoin="round" stroke="rgb(0%, 0%, 0%)" stroke-opacity="1" stroke-miterlimit="10" d="M 243.836705 720.217778 L 246.089248 703.705654 " transform="matrix(0.997137, 0, 0, -0.997137, -104.259613, 838.667273)"/>
<path fill="none" stroke-width="1.2" stroke-linecap="round" stroke-linejoin="round" stroke="rgb(0%, 0%, 0%)" stroke-opacity="1" stroke-miterlimit="10" d="M 271.799584 729.055583 L 283.555903 725.337907 " transform="matrix(0.997137, 0, 0, -0.997137, -104.259613, 838.667273)"/>
<path fill="none" stroke-width="1.2" stroke-linecap="round" stroke-linejoin="round" stroke="rgb(0%, 0%, 0%)" stroke-opacity="1" stroke-miterlimit="10" d="M 207.999717 695.999997 L 224.664621 718.012244 " transform="matrix(0.997137, 0, 0, -0.997137, -104.259613, 838.667273)"/>
<path fill="none" stroke-width="1.2" stroke-linecap="round" stroke-linejoin="round" stroke="rgb(0%, 0%, 0%)" stroke-opacity="1" stroke-miterlimit="10" d="M 207.999717 695.999997 L 191.225123 723.308659 " transform="matrix(0.997137, 0, 0, -0.997137, -104.259613, 838.667273)"/>
<path fill="none" stroke-width="1.2" stroke-linecap="round" stroke-linejoin="round" stroke="rgb(0%, 0%, 0%)" stroke-opacity="1" stroke-miterlimit="10" d="M 207.999717 695.999997 L 283.555903 725.337907 " transform="matrix(0.997137, 0, 0, -0.997137, -104.259613, 838.667273)"/>
<path fill="none" stroke-width="1.2" stroke-linecap="round" stroke-linejoin="round" stroke="rgb(0%, 0%, 0%)" stroke-opacity="1" stroke-miterlimit="10" d="M 222.396408 646.001365 L 240.001505 752.000188 " transform="matrix(0.997137, 0, 0, -0.997137, -104.259613, 838.667273)"/>
<path fill="none" stroke-width="1.2" stroke-linecap="round" stroke-linejoin="round" stroke="rgb(0%, 0%, 0%)" stroke-opacity="1" stroke-miterlimit="10" d="M 222.396408 646.001365 L 283.555903 725.337907 " transform="matrix(0.997137, 0, 0, -0.997137, -104.259613, 838.667273)"/>
<path fill="none" stroke-width="1.2" stroke-linecap="round" stroke-linejoin="round" stroke="rgb(0%, 0%, 0%)" stroke-opacity="1" stroke-miterlimit="10" d="M 256.00044 591.999082 L 271.799584 729.055583 " transform="matrix(0.997137, 0, 0, -0.997137, -104.259613, 838.667273)"/>
<path fill="none" stroke-width="1.2" stroke-linecap="round" stroke-linejoin="round" stroke="rgb(0%, 0%, 0%)" stroke-opacity="1" stroke-miterlimit="10" d="M 283.555903 725.337907 L 258.139377 682.884317 " transform="matrix(0.997137, 0, 0, -0.997137, -104.259613, 838.667273)"/>
<path fill="none" stroke-width="1.2" stroke-linecap="round" stroke-linejoin="round" stroke="rgb(0%, 0%, 0%)" stroke-opacity="1" stroke-miterlimit="10" d="M 283.555903 725.337907 L 240.181708 678.915923 " transform="matrix(0.997137, 0, 0, -0.997137, -104.259613, 838.667273)"/>
<path fill="none" stroke-width="1.2" stroke-linecap="round" stroke-linejoin="round" stroke="rgb(0%, 0%, 0%)" stroke-opacity="1" stroke-miterlimit="10" d="M 243.836705 720.217778 L 258.139377 682.884317 " transform="matrix(0.997137, 0, 0, -0.997137, -104.259613, 838.667273)"/>
<path fill="none" stroke-width="1.2" stroke-linecap="round" stroke-linejoin="round" stroke="rgb(0%, 0%, 0%)" stroke-opacity="1" stroke-miterlimit="10" d="M 246.089248 703.705654 L 240.181708 678.915923 " transform="matrix(0.997137, 0, 0, -0.997137, -104.259613, 838.667273)"/>
<path fill="none" stroke-width="1.2" stroke-linecap="round" stroke-linejoin="round" stroke="rgb(0%, 0%, 0%)" stroke-opacity="1" stroke-miterlimit="10" d="M 240.181708 678.915923 L 271.799584 729.055583 " transform="matrix(0.997137, 0, 0, -0.997137, -104.259613, 838.667273)"/>
<path fill="none" stroke-width="1.2" stroke-linecap="round" stroke-linejoin="round" stroke="rgb(0%, 0%, 0%)" stroke-opacity="1" stroke-miterlimit="10" d="M 246.089248 703.705654 L 258.139377 682.884317 " transform="matrix(0.997137, 0, 0, -0.997137, -104.259613, 838.667273)"/>
<path fill="none" stroke-width="1.2" stroke-linecap="round" stroke-linejoin="round" stroke="rgb(0%, 0%, 0%)" stroke-opacity="1" stroke-miterlimit="10" d="M 271.799584 729.055583 L 258.139377 682.884317 " transform="matrix(0.997137, 0, 0, -0.997137, -104.259613, 838.667273)"/>
<path fill-rule="evenodd" fill="rgb(100%, 75.299072%, 79.598999%)" fill-opacity="1" d="M 105.636719 144.660156 C 105.636719 143.28125 104.523438 142.167969 103.144531 142.167969 C 101.769531 142.167969 100.652344 143.28125 100.652344 144.660156 C 100.652344 146.039062 101.769531 147.152344 103.144531 147.152344 C 104.523438 147.152344 105.636719 146.039062 105.636719 144.660156 "/>
<path fill-rule="evenodd" fill="rgb(0%, 0%, 0%)" fill-opacity="1" d="M 106.136719 144.660156 C 106.136719 143.007812 104.796875 141.667969 103.144531 141.667969 C 101.492188 141.667969 100.152344 143.007812 100.152344 144.660156 C 100.152344 146.3125 101.492188 147.652344 103.144531 147.652344 C 104.796875 147.652344 106.136719 146.3125 106.136719 144.660156 M 105.140625 144.660156 C 105.140625 143.558594 104.246094 142.664062 103.144531 142.664062 C 102.042969 142.664062 101.152344 143.558594 101.152344 144.660156 C 101.152344 145.761719 102.042969 146.65625 103.144531 146.65625 C 104.246094 146.65625 105.140625 145.761719 105.140625 144.660156 "/>
<path fill-rule="evenodd" fill="rgb(100%, 75.299072%, 79.598999%)" fill-opacity="1" d="M 88.914062 117.425781 C 88.914062 116.050781 87.796875 114.933594 86.417969 114.933594 C 85.042969 114.933594 83.925781 116.050781 83.925781 117.425781 C 83.925781 118.804688 85.042969 119.921875 86.417969 119.921875 C 87.796875 119.921875 88.914062 118.804688 88.914062 117.425781 "/>
<path fill-rule="evenodd" fill="rgb(0%, 0%, 0%)" fill-opacity="1" d="M 89.410156 117.425781 C 89.410156 115.777344 88.070312 114.4375 86.417969 114.4375 C 84.769531 114.4375 83.429688 115.777344 83.429688 117.425781 C 83.429688 119.078125 84.769531 120.417969 86.417969 120.417969 C 88.070312 120.417969 89.410156 119.078125 89.410156 117.425781 M 88.414062 117.425781 C 88.414062 116.328125 87.523438 115.433594 86.417969 115.433594 C 85.320312 115.433594 84.425781 116.328125 84.425781 117.425781 C 84.425781 118.527344 85.320312 119.421875 86.417969 119.421875 C 87.523438 119.421875 88.414062 118.527344 88.414062 117.425781 "/>
<path fill-rule="evenodd" fill="rgb(100%, 75.299072%, 79.598999%)" fill-opacity="1" d="M 122.253906 122.710938 C 122.253906 121.335938 121.136719 120.21875 119.761719 120.21875 C 118.382812 120.21875 117.265625 121.335938 117.265625 122.710938 C 117.265625 124.089844 118.382812 125.203125 119.761719 125.203125 C 121.136719 125.203125 122.253906 124.089844 122.253906 122.710938 "/>
<path fill-rule="evenodd" fill="rgb(0%, 0%, 0%)" fill-opacity="1" d="M 122.75 122.710938 C 122.75 121.058594 121.414062 119.722656 119.761719 119.722656 C 118.109375 119.722656 116.769531 121.058594 116.769531 122.710938 C 116.769531 124.363281 118.109375 125.703125 119.761719 125.703125 C 121.414062 125.703125 122.75 124.363281 122.75 122.710938 M 121.753906 122.710938 C 121.753906 121.613281 120.863281 120.71875 119.761719 120.71875 C 118.660156 120.71875 117.765625 121.613281 117.765625 122.710938 C 117.765625 123.8125 118.660156 124.707031 119.761719 124.707031 C 120.863281 124.707031 121.753906 123.8125 121.753906 122.710938 "/>
<path fill-rule="evenodd" fill="rgb(100%, 75.299072%, 79.598999%)" fill-opacity="1" d="M 112.308594 82.152344 C 112.308594 80.773438 111.191406 79.65625 109.816406 79.65625 C 108.4375 79.65625 107.320312 80.773438 107.320312 82.152344 C 107.320312 83.527344 108.4375 84.644531 109.816406 84.644531 C 111.191406 84.644531 112.308594 83.527344 112.308594 82.152344 "/>
<path fill-rule="evenodd" fill="rgb(0%, 0%, 0%)" fill-opacity="1" d="M 112.804688 82.152344 C 112.804688 80.5 111.46875 79.160156 109.816406 79.160156 C 108.164062 79.160156 106.824219 80.5 106.824219 82.152344 C 106.824219 83.804688 108.164062 85.140625 109.816406 85.140625 C 111.46875 85.140625 112.804688 83.804688 112.804688 82.152344 M 111.808594 82.152344 C 111.808594 81.046875 110.917969 80.15625 109.816406 80.15625 C 108.710938 80.15625 107.820312 81.046875 107.820312 82.152344 C 107.820312 83.253906 108.710938 84.144531 109.816406 84.144531 C 110.917969 84.144531 111.808594 83.253906 111.808594 82.152344 "/>
<path fill-rule="evenodd" fill="rgb(100%, 75.299072%, 79.598999%)" fill-opacity="1" d="M 77.226562 94.21875 C 77.226562 92.84375 76.113281 91.726562 74.734375 91.726562 C 73.359375 91.726562 72.242188 92.84375 72.242188 94.21875 C 72.242188 95.597656 73.359375 96.710938 74.734375 96.710938 C 76.113281 96.710938 77.226562 95.597656 77.226562 94.21875 "/>
<path fill-rule="evenodd" fill="rgb(0%, 0%, 0%)" fill-opacity="1" d="M 77.726562 94.21875 C 77.726562 92.566406 76.386719 91.230469 74.734375 91.230469 C 73.082031 91.230469 71.742188 92.566406 71.742188 94.21875 C 71.742188 95.871094 73.082031 97.210938 74.734375 97.210938 C 76.386719 97.210938 77.726562 95.871094 77.726562 94.21875 M 76.730469 94.21875 C 76.730469 93.117188 75.835938 92.226562 74.734375 92.226562 C 73.632812 92.226562 72.738281 93.117188 72.738281 94.21875 C 72.738281 95.320312 73.632812 96.214844 74.734375 96.214844 C 75.835938 96.214844 76.730469 95.320312 76.730469 94.21875 "/>
<path fill-rule="evenodd" fill="rgb(100%, 75.299072%, 79.598999%)" fill-opacity="1" d="M 69.320312 45.902344 C 69.320312 44.527344 68.207031 43.410156 66.828125 43.410156 C 65.453125 43.410156 64.335938 44.527344 64.335938 45.902344 C 64.335938 47.277344 65.453125 48.394531 66.828125 48.394531 C 68.207031 48.394531 69.320312 47.277344 69.320312 45.902344 "/>
<path fill-rule="evenodd" fill="rgb(0%, 0%, 0%)" fill-opacity="1" d="M 69.820312 45.902344 C 69.820312 44.25 68.480469 42.910156 66.828125 42.910156 C 65.175781 42.910156 63.835938 44.25 63.835938 45.902344 C 63.835938 47.554688 65.175781 48.894531 66.828125 48.894531 C 68.480469 48.894531 69.820312 47.554688 69.820312 45.902344 M 68.824219 45.902344 C 68.824219 44.800781 67.929688 43.910156 66.828125 43.910156 C 65.726562 43.910156 64.835938 44.800781 64.835938 45.902344 C 64.835938 47.003906 65.726562 47.898438 66.828125 47.898438 C 67.929688 47.898438 68.824219 47.003906 68.824219 45.902344 "/>
<path fill-rule="evenodd" fill="rgb(100%, 75.299072%, 79.598999%)" fill-opacity="1" d="M 93.882812 56.914062 C 93.882812 55.535156 92.765625 54.417969 91.386719 54.417969 C 90.011719 54.417969 88.894531 55.535156 88.894531 56.914062 C 88.894531 58.289062 90.011719 59.40625 91.386719 59.40625 C 92.765625 59.40625 93.882812 58.289062 93.882812 56.914062 "/>
<path fill-rule="evenodd" fill="rgb(0%, 0%, 0%)" fill-opacity="1" d="M 94.378906 56.914062 C 94.378906 55.261719 93.039062 53.921875 91.386719 53.921875 C 89.734375 53.921875 88.398438 55.261719 88.398438 56.914062 C 88.398438 58.5625 89.734375 59.902344 91.386719 59.902344 C 93.039062 59.902344 94.378906 58.5625 94.378906 56.914062 M 93.382812 56.914062 C 93.382812 55.808594 92.488281 54.917969 91.386719 54.917969 C 90.285156 54.917969 89.394531 55.808594 89.394531 56.914062 C 89.394531 58.015625 90.285156 58.90625 91.386719 58.90625 C 92.488281 58.90625 93.382812 58.015625 93.382812 56.914062 "/>
<path fill-rule="evenodd" fill="rgb(100%, 75.299072%, 79.598999%)" fill-opacity="1" d="M 119.996094 194.515625 C 119.996094 193.136719 118.878906 192.019531 117.5 192.019531 C 116.125 192.019531 115.007812 193.136719 115.007812 194.515625 C 115.007812 195.890625 116.125 197.007812 117.5 197.007812 C 118.878906 197.007812 119.996094 195.890625 119.996094 194.515625 "/>
<path fill-rule="evenodd" fill="rgb(0%, 0%, 0%)" fill-opacity="1" d="M 120.492188 194.515625 C 120.492188 192.863281 119.152344 191.523438 117.5 191.523438 C 115.847656 191.523438 114.511719 192.863281 114.511719 194.515625 C 114.511719 196.167969 115.847656 197.503906 117.5 197.503906 C 119.152344 197.503906 120.492188 196.167969 120.492188 194.515625 M 119.496094 194.515625 C 119.496094 193.414062 118.601562 192.519531 117.5 192.519531 C 116.402344 192.519531 115.507812 193.414062 115.507812 194.515625 C 115.507812 195.617188 116.402344 196.507812 117.5 196.507812 C 118.601562 196.507812 119.496094 195.617188 119.496094 194.515625 "/>
<path fill-rule="evenodd" fill="rgb(100%, 75.299072%, 79.598999%)" fill-opacity="1" d="M 6.183594 182.949219 C 6.183594 181.574219 5.066406 180.457031 3.6875 180.457031 C 2.3125 180.457031 1.195312 181.574219 1.195312 182.949219 C 1.195312 184.328125 2.3125 185.441406 3.6875 185.441406 C 5.066406 185.441406 6.183594 184.328125 6.183594 182.949219 "/>
<path fill-rule="evenodd" fill="rgb(0%, 0%, 0%)" fill-opacity="1" d="M 6.679688 182.949219 C 6.679688 181.296875 5.339844 179.957031 3.6875 179.957031 C 2.039062 179.957031 0.699219 181.296875 0.699219 182.949219 C 0.699219 184.601562 2.039062 185.941406 3.6875 185.941406 C 5.339844 185.941406 6.679688 184.601562 6.679688 182.949219 M 5.683594 182.949219 C 5.683594 181.847656 4.789062 180.957031 3.6875 180.957031 C 2.585938 180.957031 1.695312 181.847656 1.695312 182.949219 C 1.695312 184.050781 2.585938 184.945312 3.6875 184.945312 C 4.789062 184.945312 5.683594 184.050781 5.683594 182.949219 "/>
<path fill-rule="evenodd" fill="rgb(100%, 75.299072%, 79.598999%)" fill-opacity="1" d="M 86.988281 179.882812 C 86.988281 178.507812 85.871094 177.390625 84.496094 177.390625 C 83.117188 177.390625 82 178.507812 82 179.882812 C 82 181.261719 83.117188 182.375 84.496094 182.375 C 85.871094 182.375 86.988281 181.261719 86.988281 179.882812 "/>
<path fill-rule="evenodd" fill="rgb(0%, 0%, 0%)" fill-opacity="1" d="M 87.484375 179.882812 C 87.484375 178.230469 86.148438 176.890625 84.496094 176.890625 C 82.84375 176.890625 81.503906 178.230469 81.503906 179.882812 C 81.503906 181.535156 82.84375 182.875 84.496094 182.875 C 86.148438 182.875 87.484375 181.535156 87.484375 179.882812 M 86.488281 179.882812 C 86.488281 178.78125 85.597656 177.890625 84.496094 177.890625 C 83.394531 177.890625 82.5 178.78125 82.5 179.882812 C 82.5 180.984375 83.394531 181.878906 84.496094 181.878906 C 85.597656 181.878906 86.488281 180.984375 86.488281 179.882812 "/>
<path fill-rule="evenodd" fill="rgb(100%, 75.299072%, 79.598999%)" fill-opacity="1" d="M 19.9375 142.179688 C 19.9375 140.804688 18.824219 139.6875 17.445312 139.6875 C 16.070312 139.6875 14.953125 140.804688 14.953125 142.179688 C 14.953125 143.558594 16.070312 144.675781 17.445312 144.675781 C 18.824219 144.675781 19.9375 143.558594 19.9375 142.179688 "/>
<path fill-rule="evenodd" fill="rgb(0%, 0%, 0%)" fill-opacity="1" d="M 20.4375 142.179688 C 20.4375 140.527344 19.097656 139.191406 17.445312 139.191406 C 15.792969 139.191406 14.453125 140.527344 14.453125 142.179688 C 14.453125 143.832031 15.792969 145.171875 17.445312 145.171875 C 19.097656 145.171875 20.4375 143.832031 20.4375 142.179688 M 19.441406 142.179688 C 19.441406 141.082031 18.546875 140.1875 17.445312 140.1875 C 16.34375 140.1875 15.453125 141.082031 15.453125 142.179688 C 15.453125 143.28125 16.34375 144.175781 17.445312 144.175781 C 18.546875 144.175781 19.441406 143.28125 19.441406 142.179688 "/>
<path fill-rule="evenodd" fill="rgb(100%, 75.299072%, 79.598999%)" fill-opacity="1" d="M 17.675781 88.214844 C 17.675781 86.835938 16.558594 85.722656 15.183594 85.722656 C 13.808594 85.722656 12.691406 86.835938 12.691406 88.214844 C 12.691406 89.589844 13.808594 90.707031 15.183594 90.707031 C 16.558594 90.707031 17.675781 89.589844 17.675781 88.214844 "/>
<path fill-rule="evenodd" fill="rgb(0%, 0%, 0%)" fill-opacity="1" d="M 18.175781 88.214844 C 18.175781 86.5625 16.835938 85.222656 15.183594 85.222656 C 13.53125 85.222656 12.191406 86.5625 12.191406 88.214844 C 12.191406 89.867188 13.53125 91.207031 15.183594 91.207031 C 16.835938 91.207031 18.175781 89.867188 18.175781 88.214844 M 17.175781 88.214844 C 17.175781 87.113281 16.285156 86.21875 15.183594 86.21875 C 14.082031 86.21875 13.1875 87.113281 13.1875 88.214844 C 13.1875 89.316406 14.082031 90.207031 15.183594 90.207031 C 16.285156 90.207031 17.175781 89.316406 17.175781 88.214844 "/>
<path fill-rule="evenodd" fill="rgb(100%, 75.299072%, 79.598999%)" fill-opacity="1" d="M 224.265625 18.0625 C 224.265625 16.6875 223.148438 15.570312 221.773438 15.570312 C 220.394531 15.570312 219.28125 16.6875 219.28125 18.0625 C 219.28125 19.441406 220.394531 20.554688 221.773438 20.554688 C 223.148438 20.554688 224.265625 19.441406 224.265625 18.0625 "/>
<path fill-rule="evenodd" fill="rgb(0%, 0%, 0%)" fill-opacity="1" d="M 224.765625 18.0625 C 224.765625 16.410156 223.425781 15.074219 221.773438 15.074219 C 220.121094 15.074219 218.78125 16.410156 218.78125 18.0625 C 218.78125 19.714844 220.121094 21.054688 221.773438 21.054688 C 223.425781 21.054688 224.765625 19.714844 224.765625 18.0625 M 223.765625 18.0625 C 223.765625 16.960938 222.875 16.070312 221.773438 16.070312 C 220.671875 16.070312 219.777344 16.960938 219.777344 18.0625 C 219.777344 19.164062 220.671875 20.058594 221.773438 20.058594 C 222.875 20.058594 223.765625 19.164062 223.765625 18.0625 "/>
<path fill-rule="evenodd" fill="rgb(100%, 75.299072%, 79.598999%)" fill-opacity="1" d="M 78.847656 20.628906 C 78.847656 19.253906 77.730469 18.136719 76.355469 18.136719 C 74.976562 18.136719 73.859375 19.253906 73.859375 20.628906 C 73.859375 22.003906 74.976562 23.121094 76.355469 23.121094 C 77.730469 23.121094 78.847656 22.003906 78.847656 20.628906 "/>
<path fill-rule="evenodd" fill="rgb(0%, 0%, 0%)" fill-opacity="1" d="M 79.34375 20.628906 C 79.34375 18.976562 78.007812 17.636719 76.355469 17.636719 C 74.703125 17.636719 73.363281 18.976562 73.363281 20.628906 C 73.363281 22.28125 74.703125 23.621094 76.355469 23.621094 C 78.007812 23.621094 79.34375 22.28125 79.34375 20.628906 M 78.347656 20.628906 C 78.347656 19.527344 77.457031 18.632812 76.355469 18.632812 C 75.253906 18.632812 74.359375 19.527344 74.359375 20.628906 C 74.359375 21.730469 75.253906 22.621094 76.355469 22.621094 C 77.457031 22.621094 78.347656 21.730469 78.347656 20.628906 "/>
<path fill-rule="evenodd" fill="rgb(100%, 75.299072%, 79.598999%)" fill-opacity="1" d="M 198.820312 40.320312 C 198.820312 38.945312 197.703125 37.828125 196.328125 37.828125 C 194.949219 37.828125 193.835938 38.945312 193.835938 40.320312 C 193.835938 41.699219 194.949219 42.816406 196.328125 42.816406 C 197.703125 42.816406 198.820312 41.699219 198.820312 40.320312 "/>
<path fill-rule="evenodd" fill="rgb(0%, 0%, 0%)" fill-opacity="1" d="M 199.320312 40.320312 C 199.320312 38.671875 197.980469 37.332031 196.328125 37.332031 C 194.675781 37.332031 193.335938 38.671875 193.335938 40.320312 C 193.335938 41.972656 194.675781 43.3125 196.328125 43.3125 C 197.980469 43.3125 199.320312 41.972656 199.320312 40.320312 M 198.320312 40.320312 C 198.320312 39.222656 197.429688 38.328125 196.328125 38.328125 C 195.226562 38.328125 194.332031 39.222656 194.332031 40.320312 C 194.332031 41.421875 195.226562 42.316406 196.328125 42.316406 C 197.429688 42.316406 198.320312 41.421875 198.320312 40.320312 "/>
<path fill-rule="evenodd" fill="rgb(100%, 75.299072%, 79.598999%)" fill-opacity="1" d="M 131.972656 27.859375 C 131.972656 26.484375 130.855469 25.367188 129.480469 25.367188 C 128.101562 25.367188 126.988281 26.484375 126.988281 27.859375 C 126.988281 29.238281 128.101562 30.351562 129.480469 30.351562 C 130.855469 30.351562 131.972656 29.238281 131.972656 27.859375 "/>
<path fill-rule="evenodd" fill="rgb(0%, 0%, 0%)" fill-opacity="1" d="M 132.472656 27.859375 C 132.472656 26.207031 131.132812 24.867188 129.480469 24.867188 C 127.828125 24.867188 126.488281 26.207031 126.488281 27.859375 C 126.488281 29.511719 127.828125 30.851562 129.480469 30.851562 C 131.132812 30.851562 132.472656 29.511719 132.472656 27.859375 M 131.472656 27.859375 C 131.472656 26.757812 130.582031 25.867188 129.480469 25.867188 C 128.378906 25.867188 127.484375 26.757812 127.484375 27.859375 C 127.484375 28.960938 128.378906 29.855469 129.480469 29.855469 C 130.582031 29.855469 131.472656 28.960938 131.472656 27.859375 "/>
<path fill-rule="evenodd" fill="rgb(100%, 75.299072%, 79.598999%)" fill-opacity="1" d="M 117.570312 32.875 C 117.570312 31.496094 116.453125 30.382812 115.078125 30.382812 C 113.703125 30.382812 112.585938 31.496094 112.585938 32.875 C 112.585938 34.25 113.703125 35.367188 115.078125 35.367188 C 116.453125 35.367188 117.570312 34.25 117.570312 32.875 "/>
<path fill-rule="evenodd" fill="rgb(0%, 0%, 0%)" fill-opacity="1" d="M 118.070312 32.875 C 118.070312 31.222656 116.730469 29.882812 115.078125 29.882812 C 113.425781 29.882812 112.085938 31.222656 112.085938 32.875 C 112.085938 34.527344 113.425781 35.867188 115.078125 35.867188 C 116.730469 35.867188 118.070312 34.527344 118.070312 32.875 M 117.070312 32.875 C 117.070312 31.773438 116.179688 30.878906 115.078125 30.878906 C 113.976562 30.878906 113.082031 31.773438 113.082031 32.875 C 113.082031 33.976562 113.976562 34.867188 115.078125 34.867188 C 116.179688 34.867188 117.070312 33.976562 117.070312 32.875 "/>
<path fill-rule="evenodd" fill="rgb(100%, 75.299072%, 79.598999%)" fill-opacity="1" d="M 113.550781 51.894531 C 113.550781 50.519531 112.433594 49.402344 111.058594 49.402344 C 109.679688 49.402344 108.5625 50.519531 108.5625 51.894531 C 108.5625 53.273438 109.679688 54.386719 111.058594 54.386719 C 112.433594 54.386719 113.550781 53.273438 113.550781 51.894531 "/>
<path fill-rule="evenodd" fill="rgb(0%, 0%, 0%)" fill-opacity="1" d="M 114.046875 51.894531 C 114.046875 50.242188 112.707031 48.902344 111.058594 48.902344 C 109.40625 48.902344 108.066406 50.242188 108.066406 51.894531 C 108.066406 53.546875 109.40625 54.886719 111.058594 54.886719 C 112.707031 54.886719 114.046875 53.546875 114.046875 51.894531 M 113.050781 51.894531 C 113.050781 50.792969 112.15625 49.902344 111.058594 49.902344 C 109.957031 49.902344 109.0625 50.792969 109.0625 51.894531 C 109.0625 52.996094 109.957031 53.890625 111.058594 53.890625 C 112.15625 53.890625 113.050781 52.996094 113.050781 51.894531 "/>
<path fill-rule="evenodd" fill="rgb(100%, 75.299072%, 79.598999%)" fill-opacity="1" d="M 160.101562 69.152344 C 160.101562 67.777344 158.984375 66.660156 157.609375 66.660156 C 156.230469 66.660156 155.117188 67.777344 155.117188 69.152344 C 155.117188 70.527344 156.230469 71.644531 157.609375 71.644531 C 158.984375 71.644531 160.101562 70.527344 160.101562 69.152344 "/>
<path fill-rule="evenodd" fill="rgb(0%, 0%, 0%)" fill-opacity="1" d="M 160.601562 69.152344 C 160.601562 67.5 159.261719 66.160156 157.609375 66.160156 C 155.957031 66.160156 154.617188 67.5 154.617188 69.152344 C 154.617188 70.804688 155.957031 72.144531 157.609375 72.144531 C 159.261719 72.144531 160.601562 70.804688 160.601562 69.152344 M 159.601562 69.152344 C 159.601562 68.050781 158.710938 67.160156 157.609375 67.160156 C 156.507812 67.160156 155.613281 68.050781 155.613281 69.152344 C 155.613281 70.253906 156.507812 71.148438 157.609375 71.148438 C 158.710938 71.148438 159.601562 70.253906 159.601562 69.152344 "/>
<path fill-rule="evenodd" fill="rgb(100%, 75.299072%, 79.598999%)" fill-opacity="1" d="M 37.378906 86.8125 C 37.378906 85.4375 36.261719 84.320312 34.886719 84.320312 C 33.507812 84.320312 32.390625 85.4375 32.390625 86.8125 C 32.390625 88.191406 33.507812 89.308594 34.886719 89.308594 C 36.261719 89.308594 37.378906 88.191406 37.378906 86.8125 "/>
<path fill-rule="evenodd" fill="rgb(0%, 0%, 0%)" fill-opacity="1" d="M 37.875 86.8125 C 37.875 85.160156 36.535156 83.824219 34.886719 83.824219 C 33.234375 83.824219 31.894531 85.160156 31.894531 86.8125 C 31.894531 88.464844 33.234375 89.804688 34.886719 89.804688 C 36.535156 89.804688 37.875 88.464844 37.875 86.8125 M 36.878906 86.8125 C 36.878906 85.710938 35.988281 84.820312 34.886719 84.820312 C 33.78125 84.820312 32.890625 85.710938 32.890625 86.8125 C 32.890625 87.914062 33.78125 88.808594 34.886719 88.808594 C 35.988281 88.808594 36.878906 87.914062 36.878906 86.8125 "/>
<path fill-rule="evenodd" fill="rgb(100%, 75.299072%, 79.598999%)" fill-opacity="1" d="M 81.707031 232.40625 C 81.707031 231.03125 80.589844 229.914062 79.214844 229.914062 C 77.835938 229.914062 76.71875 231.03125 76.71875 232.40625 C 76.71875 233.785156 77.835938 234.902344 79.214844 234.902344 C 80.589844 234.902344 81.707031 233.785156 81.707031 232.40625 "/>
<path fill-rule="evenodd" fill="rgb(0%, 0%, 0%)" fill-opacity="1" d="M 82.203125 232.40625 C 82.203125 230.757812 80.867188 229.417969 79.214844 229.417969 C 77.5625 229.417969 76.222656 230.757812 76.222656 232.40625 C 76.222656 234.058594 77.5625 235.398438 79.214844 235.398438 C 80.867188 235.398438 82.203125 234.058594 82.203125 232.40625 M 81.207031 232.40625 C 81.207031 231.304688 80.316406 230.414062 79.214844 230.414062 C 78.113281 230.414062 77.21875 231.304688 77.21875 232.40625 C 77.21875 233.511719 78.113281 234.402344 79.214844 234.402344 C 80.316406 234.402344 81.207031 233.511719 81.207031 232.40625 "/>
<path fill-rule="evenodd" fill="rgb(100%, 75.299072%, 79.598999%)" fill-opacity="1" d="M 153.5 248.363281 C 153.5 246.984375 152.382812 245.871094 151.007812 245.871094 C 149.628906 245.871094 148.515625 246.984375 148.515625 248.363281 C 148.515625 249.738281 149.628906 250.855469 151.007812 250.855469 C 152.382812 250.855469 153.5 249.738281 153.5 248.363281 "/>
<path fill-rule="evenodd" fill="rgb(0%, 0%, 0%)" fill-opacity="1" d="M 154 248.363281 C 154 246.710938 152.660156 245.371094 151.007812 245.371094 C 149.355469 245.371094 148.015625 246.710938 148.015625 248.363281 C 148.015625 250.015625 149.355469 251.355469 151.007812 251.355469 C 152.660156 251.355469 154 250.015625 154 248.363281 M 153 248.363281 C 153 247.261719 152.109375 246.367188 151.007812 246.367188 C 149.90625 246.367188 149.011719 247.261719 149.011719 248.363281 C 149.011719 249.464844 149.90625 250.355469 151.007812 250.355469 C 152.109375 250.355469 153 249.464844 153 248.363281 "/>
<path fill-rule="evenodd" fill="rgb(100%, 75.299072%, 79.598999%)" fill-opacity="1" d="M 128.296875 204.851562 C 128.296875 203.476562 127.179688 202.359375 125.804688 202.359375 C 124.425781 202.359375 123.3125 203.476562 123.3125 204.851562 C 123.3125 206.230469 124.425781 207.347656 125.804688 207.347656 C 127.179688 207.347656 128.296875 206.230469 128.296875 204.851562 "/>
<path fill-rule="evenodd" fill="rgb(0%, 0%, 0%)" fill-opacity="1" d="M 128.796875 204.851562 C 128.796875 203.199219 127.457031 201.863281 125.804688 201.863281 C 124.152344 201.863281 122.8125 203.199219 122.8125 204.851562 C 122.8125 206.503906 124.152344 207.84375 125.804688 207.84375 C 127.457031 207.84375 128.796875 206.503906 128.796875 204.851562 M 127.796875 204.851562 C 127.796875 203.75 126.90625 202.859375 125.804688 202.859375 C 124.703125 202.859375 123.808594 203.75 123.808594 204.851562 C 123.808594 205.957031 124.703125 206.847656 125.804688 206.847656 C 126.90625 206.847656 127.796875 205.957031 127.796875 204.851562 "/>
<path fill-rule="evenodd" fill="rgb(100%, 75.299072%, 79.598999%)" fill-opacity="1" d="M 197.601562 199.980469 C 197.601562 198.601562 196.484375 197.488281 195.109375 197.488281 C 193.730469 197.488281 192.613281 198.601562 192.613281 199.980469 C 192.613281 201.355469 193.730469 202.472656 195.109375 202.472656 C 196.484375 202.472656 197.601562 201.355469 197.601562 199.980469 "/>
<path fill-rule="evenodd" fill="rgb(0%, 0%, 0%)" fill-opacity="1" d="M 198.097656 199.980469 C 198.097656 198.328125 196.761719 196.988281 195.109375 196.988281 C 193.457031 196.988281 192.117188 198.328125 192.117188 199.980469 C 192.117188 201.632812 193.457031 202.972656 195.109375 202.972656 C 196.761719 202.972656 198.097656 201.632812 198.097656 199.980469 M 197.101562 199.980469 C 197.101562 198.878906 196.210938 197.984375 195.109375 197.984375 C 194.007812 197.984375 193.113281 198.878906 193.113281 199.980469 C 193.113281 201.082031 194.007812 201.972656 195.109375 201.972656 C 196.210938 201.972656 197.101562 201.082031 197.101562 199.980469 "/>
<path fill-rule="evenodd" fill="rgb(100%, 75.299072%, 79.598999%)" fill-opacity="1" d="M 297.089844 152.636719 C 297.089844 151.261719 295.972656 150.144531 294.59375 150.144531 C 293.21875 150.144531 292.101562 151.261719 292.101562 152.636719 C 292.101562 154.015625 293.21875 155.128906 294.59375 155.128906 C 295.972656 155.128906 297.089844 154.015625 297.089844 152.636719 "/>
<path fill-rule="evenodd" fill="rgb(0%, 0%, 0%)" fill-opacity="1" d="M 297.585938 152.636719 C 297.585938 150.984375 296.246094 149.644531 294.59375 149.644531 C 292.941406 149.644531 291.605469 150.984375 291.605469 152.636719 C 291.605469 154.289062 292.941406 155.628906 294.59375 155.628906 C 296.246094 155.628906 297.585938 154.289062 297.585938 152.636719 M 296.589844 152.636719 C 296.589844 151.535156 295.695312 150.644531 294.59375 150.644531 C 293.492188 150.644531 292.601562 151.535156 292.601562 152.636719 C 292.601562 153.738281 293.492188 154.632812 294.59375 154.632812 C 295.695312 154.632812 296.589844 153.738281 296.589844 152.636719 "/>
<path fill-rule="evenodd" fill="rgb(100%, 75.299072%, 79.598999%)" fill-opacity="1" d="M 229.457031 60.019531 C 229.457031 58.644531 228.34375 57.527344 226.964844 57.527344 C 225.589844 57.527344 224.472656 58.644531 224.472656 60.019531 C 224.472656 61.398438 225.589844 62.515625 226.964844 62.515625 C 228.34375 62.515625 229.457031 61.398438 229.457031 60.019531 "/>
<path fill-rule="evenodd" fill="rgb(0%, 0%, 0%)" fill-opacity="1" d="M 229.957031 60.019531 C 229.957031 58.367188 228.617188 57.03125 226.964844 57.03125 C 225.3125 57.03125 223.972656 58.367188 223.972656 60.019531 C 223.972656 61.671875 225.3125 63.011719 226.964844 63.011719 C 228.617188 63.011719 229.957031 61.671875 229.957031 60.019531 M 228.960938 60.019531 C 228.960938 58.917969 228.066406 58.027344 226.964844 58.027344 C 225.863281 58.027344 224.972656 58.917969 224.972656 60.019531 C 224.972656 61.121094 225.863281 62.015625 226.964844 62.015625 C 228.066406 62.015625 228.960938 61.121094 228.960938 60.019531 "/>
<path fill-rule="evenodd" fill="rgb(100%, 75.299072%, 79.598999%)" fill-opacity="1" d="M 204.800781 70.050781 C 204.800781 68.671875 203.683594 67.554688 202.304688 67.554688 C 200.929688 67.554688 199.8125 68.671875 199.8125 70.050781 C 199.8125 71.425781 200.929688 72.542969 202.304688 72.542969 C 203.683594 72.542969 204.800781 71.425781 204.800781 70.050781 "/>
<path fill-rule="evenodd" fill="rgb(0%, 0%, 0%)" fill-opacity="1" d="M 205.296875 70.050781 C 205.296875 68.398438 203.957031 67.058594 202.304688 67.058594 C 200.652344 67.058594 199.316406 68.398438 199.316406 70.050781 C 199.316406 71.699219 200.652344 73.039062 202.304688 73.039062 C 203.957031 73.039062 205.296875 71.699219 205.296875 70.050781 M 204.300781 70.050781 C 204.300781 68.949219 203.40625 68.054688 202.304688 68.054688 C 201.203125 68.054688 200.3125 68.949219 200.3125 70.050781 C 200.3125 71.148438 201.203125 72.042969 202.304688 72.042969 C 203.40625 72.042969 204.300781 71.148438 204.300781 70.050781 "/>
<path fill-rule="evenodd" fill="rgb(100%, 75.299072%, 79.598999%)" fill-opacity="1" d="M 137.546875 88.820312 C 137.546875 87.445312 136.429688 86.328125 135.054688 86.328125 C 133.675781 86.328125 132.558594 87.445312 132.558594 88.820312 C 132.558594 90.199219 133.675781 91.3125 135.054688 91.3125 C 136.429688 91.3125 137.546875 90.199219 137.546875 88.820312 "/>
<path fill-rule="evenodd" fill="rgb(0%, 0%, 0%)" fill-opacity="1" d="M 138.042969 88.820312 C 138.042969 87.167969 136.707031 85.828125 135.054688 85.828125 C 133.402344 85.828125 132.0625 87.167969 132.0625 88.820312 C 132.0625 90.472656 133.402344 91.8125 135.054688 91.8125 C 136.707031 91.8125 138.042969 90.472656 138.042969 88.820312 M 137.046875 88.820312 C 137.046875 87.71875 136.15625 86.828125 135.054688 86.828125 C 133.953125 86.828125 133.058594 87.71875 133.058594 88.820312 C 133.058594 89.921875 133.953125 90.816406 135.054688 90.816406 C 136.15625 90.816406 137.046875 89.921875 137.046875 88.820312 "/>
<path fill-rule="evenodd" fill="rgb(100%, 75.299072%, 79.598999%)" fill-opacity="1" d="M 141.371094 120.511719 C 141.371094 119.132812 140.253906 118.019531 138.878906 118.019531 C 137.5 118.019531 136.386719 119.132812 136.386719 120.511719 C 136.386719 121.886719 137.5 123.003906 138.878906 123.003906 C 140.253906 123.003906 141.371094 121.886719 141.371094 120.511719 "/>
<path fill-rule="evenodd" fill="rgb(0%, 0%, 0%)" fill-opacity="1" d="M 141.871094 120.511719 C 141.871094 118.859375 140.53125 117.519531 138.878906 117.519531 C 137.226562 117.519531 135.886719 118.859375 135.886719 120.511719 C 135.886719 122.164062 137.226562 123.5 138.878906 123.5 C 140.53125 123.5 141.871094 122.164062 141.871094 120.511719 M 140.871094 120.511719 C 140.871094 119.410156 139.980469 118.515625 138.878906 118.515625 C 137.777344 118.515625 136.882812 119.410156 136.882812 120.511719 C 136.882812 121.613281 137.777344 122.503906 138.878906 122.503906 C 139.980469 122.503906 140.871094 121.613281 140.871094 120.511719 "/>
<path fill-rule="evenodd" fill="rgb(100%, 75.299072%, 79.598999%)" fill-opacity="1" d="M 137.726562 161.695312 C 137.726562 160.316406 136.609375 159.203125 135.234375 159.203125 C 133.859375 159.203125 132.742188 160.316406 132.742188 161.695312 C 132.742188 163.070312 133.859375 164.1875 135.234375 164.1875 C 136.609375 164.1875 137.726562 163.070312 137.726562 161.695312 "/>
<path fill-rule="evenodd" fill="rgb(0%, 0%, 0%)" fill-opacity="1" d="M 138.226562 161.695312 C 138.226562 160.042969 136.886719 158.703125 135.234375 158.703125 C 133.582031 158.703125 132.242188 160.042969 132.242188 161.695312 C 132.242188 163.347656 133.582031 164.6875 135.234375 164.6875 C 136.886719 164.6875 138.226562 163.347656 138.226562 161.695312 M 137.226562 161.695312 C 137.226562 160.59375 136.335938 159.699219 135.234375 159.699219 C 134.132812 159.699219 133.238281 160.59375 133.238281 161.695312 C 133.238281 162.796875 134.132812 163.6875 135.234375 163.6875 C 136.335938 163.6875 137.226562 162.796875 137.226562 161.695312 "/>
<path fill-rule="evenodd" fill="rgb(100%, 75.299072%, 79.598999%)" fill-opacity="1" d="M 143.621094 136.976562 C 143.621094 135.601562 142.503906 134.484375 141.125 134.484375 C 139.75 134.484375 138.632812 135.601562 138.632812 136.976562 C 138.632812 138.355469 139.75 139.46875 141.125 139.46875 C 142.503906 139.46875 143.621094 138.355469 143.621094 136.976562 "/>
<path fill-rule="evenodd" fill="rgb(0%, 0%, 0%)" fill-opacity="1" d="M 144.117188 136.976562 C 144.117188 135.324219 142.777344 133.984375 141.125 133.984375 C 139.472656 133.984375 138.136719 135.324219 138.136719 136.976562 C 138.136719 138.628906 139.472656 139.96875 141.125 139.96875 C 142.777344 139.96875 144.117188 138.628906 144.117188 136.976562 M 143.121094 136.976562 C 143.121094 135.875 142.230469 134.984375 141.125 134.984375 C 140.027344 134.984375 139.132812 135.875 139.132812 136.976562 C 139.132812 138.078125 140.027344 138.972656 141.125 138.972656 C 142.230469 138.972656 143.121094 138.078125 143.121094 136.976562 "/>
<path fill-rule="evenodd" fill="rgb(100%, 75.299072%, 79.598999%)" fill-opacity="1" d="M 169.257812 111.699219 C 169.257812 110.324219 168.140625 109.207031 166.761719 109.207031 C 165.386719 109.207031 164.269531 110.324219 164.269531 111.699219 C 164.269531 113.078125 165.386719 114.195312 166.761719 114.195312 C 168.140625 114.195312 169.257812 113.078125 169.257812 111.699219 "/>
<path fill-rule="evenodd" fill="rgb(0%, 0%, 0%)" fill-opacity="1" d="M 169.753906 111.699219 C 169.753906 110.046875 168.414062 108.710938 166.761719 108.710938 C 165.109375 108.710938 163.773438 110.046875 163.773438 111.699219 C 163.773438 113.351562 165.109375 114.691406 166.761719 114.691406 C 168.414062 114.691406 169.753906 113.351562 169.753906 111.699219 M 168.757812 111.699219 C 168.757812 110.601562 167.863281 109.707031 166.761719 109.707031 C 165.660156 109.707031 164.769531 110.601562 164.769531 111.699219 C 164.769531 112.800781 165.660156 113.695312 166.761719 113.695312 C 167.863281 113.695312 168.757812 112.800781 168.757812 111.699219 "/>
<path fill-rule="evenodd" fill="rgb(100%, 75.299072%, 79.598999%)" fill-opacity="1" d="M 155.632812 157.738281 C 155.632812 156.363281 154.515625 155.246094 153.140625 155.246094 C 151.761719 155.246094 150.644531 156.363281 150.644531 157.738281 C 150.644531 159.117188 151.761719 160.230469 153.140625 160.230469 C 154.515625 160.230469 155.632812 159.117188 155.632812 157.738281 "/>
<path fill-rule="evenodd" fill="rgb(0%, 0%, 0%)" fill-opacity="1" d="M 156.128906 157.738281 C 156.128906 156.085938 154.792969 154.746094 153.140625 154.746094 C 151.488281 154.746094 150.148438 156.085938 150.148438 157.738281 C 150.148438 159.390625 151.488281 160.730469 153.140625 160.730469 C 154.792969 160.730469 156.128906 159.390625 156.128906 157.738281 M 155.132812 157.738281 C 155.132812 156.636719 154.242188 155.746094 153.140625 155.746094 C 152.039062 155.746094 151.144531 156.636719 151.144531 157.738281 C 151.144531 158.839844 152.039062 159.734375 153.140625 159.734375 C 154.242188 159.734375 155.132812 158.839844 155.132812 157.738281 "/>
<path fill-rule="evenodd" fill="rgb(100%, 75.299072%, 79.598999%)" fill-opacity="1" d="M 180.976562 115.40625 C 180.976562 114.03125 179.863281 112.914062 178.484375 112.914062 C 177.109375 112.914062 175.992188 114.03125 175.992188 115.40625 C 175.992188 116.785156 177.109375 117.902344 178.484375 117.902344 C 179.863281 117.902344 180.976562 116.785156 180.976562 115.40625 "/>
<path fill-rule="evenodd" fill="rgb(0%, 0%, 0%)" fill-opacity="1" d="M 181.476562 115.40625 C 181.476562 113.757812 180.136719 112.417969 178.484375 112.417969 C 176.832031 112.417969 175.492188 113.757812 175.492188 115.40625 C 175.492188 117.058594 176.832031 118.398438 178.484375 118.398438 C 180.136719 118.398438 181.476562 117.058594 181.476562 115.40625 M 180.480469 115.40625 C 180.480469 114.308594 179.585938 113.414062 178.484375 113.414062 C 177.382812 113.414062 176.488281 114.308594 176.488281 115.40625 C 176.488281 116.511719 177.382812 117.402344 178.484375 117.402344 C 179.585938 117.402344 180.480469 116.511719 180.480469 115.40625 "/>
</svg>
