<?xml version="1.0" encoding="UTF-8" standalone="no"?>
<svg
   width="85.109375"
   height="55.81675"
   viewBox="0 0 85.109374 55.816748"
   version="1.1"
   id="svg54"
   xmlns="http://www.w3.org/2000/svg"
   xmlns:svg="http://www.w3.org/2000/svg">
  <defs
     id="defs8">
    <clipPath
       id="clip-0">
      <path
         clip-rule="nonzero"
         d="M 0.15625,29 H 7 v 7 H 0.15625 Z m 0,0"
         id="path2" />
    </clipPath>
    <clipPath
       id="clip-1">
      <path
         clip-rule="nonzero"
         d="M 19,32 H 84 V 56.804688 H 19 Z m 0,0"
         id="path5" />
    </clipPath>
  </defs>
  <g
     clip-path="url(#clip-0)"
     id="g12"
     transform="translate(-0.847656,-0.49555547)">
    <path
       fill-rule="evenodd"
       fill="#000000"
       fill-opacity="1"
       d="m 6.785156,32.363281 c 0,-1.640625 -1.328125,-2.96875 -2.96875,-2.96875 -1.640625,0 -2.96875,1.328125 -2.96875,2.96875 0,1.636719 1.328125,2.96875 2.96875,2.96875 1.640625,0 2.96875,-1.332031 2.96875,-2.96875"
       id="path10" />
  </g>
  <path
     fill-rule="evenodd"
     fill="#000000"
     fill-opacity="1"
     d="m 21.773438,31.867726 c 0,-1.640625 -1.328125,-2.96875 -2.96875,-2.96875 -1.640625,0 -2.96875,1.328125 -2.96875,2.96875 0,1.636719 1.328125,2.96875 2.96875,2.96875 1.640625,0 2.96875,-1.332031 2.96875,-2.96875"
     id="path14" />
  <path
     fill-rule="evenodd"
     fill="#000000"
     fill-opacity="1"
     d="m 37.605469,31.867726 c 0,-1.640625 -1.328125,-2.96875 -2.96875,-2.96875 -1.636719,0 -2.96875,1.328125 -2.96875,2.96875 0,1.636719 1.332031,2.96875 2.96875,2.96875 1.640625,0 2.96875,-1.332031 2.96875,-2.96875"
     id="path16" />
  <path
     fill-rule="evenodd"
     fill="#000000"
     fill-opacity="1"
     d="m 53.441406,31.867726 c 0,-1.640625 -1.328124,-2.96875 -2.96875,-2.96875 -1.640624,0 -2.96875,1.328125 -2.96875,2.96875 0,1.636719 1.328126,2.96875 2.96875,2.96875 1.640626,0 2.96875,-1.332031 2.96875,-2.96875"
     id="path18" />
  <path
     fill-rule="evenodd"
     fill="#000000"
     fill-opacity="1"
     d="m 69.277344,31.867726 c 0,-1.640625 -1.332031,-2.96875 -2.96875,-2.96875 -1.640625,0 -2.96875,1.328125 -2.96875,2.96875 0,1.636719 1.328125,2.96875 2.96875,2.96875 1.636719,0 2.96875,-1.332031 2.96875,-2.96875"
     id="path20" />
  <path
     fill-rule="evenodd"
     fill="#000000"
     fill-opacity="1"
     d="m 85.109375,31.867726 c 0,-1.640625 -1.328125,-2.96875 -2.96875,-2.96875 -1.640625,0 -2.96875,1.328125 -2.96875,2.96875 0,1.636719 1.328125,2.96875 2.96875,2.96875 1.640625,0 2.96875,-1.332031 2.96875,-2.96875"
     id="path22" />
  <path
     fill="none"
     stroke-width="0.395862"
     stroke-linecap="round"
     stroke-linejoin="round"
     stroke="#000000"
     stroke-opacity="1"
     stroke-miterlimit="10"
     d="m 2.9686992,31.867848 c 10.5585998,21.109371 21.1132798,21.109371 31.6679708,0"
     id="path24" />
  <path
     fill-rule="evenodd"
     fill="#000000"
     fill-opacity="1"
     stroke-width="0.395862"
     stroke-linecap="round"
     stroke-linejoin="round"
     stroke="#000000"
     stroke-opacity="1"
     stroke-miterlimit="10"
     d="m 34.63667,31.867848 -5.160161,5.16407 4.125001,2.0625 z m 0,0"
     id="path26" />
  <path
     fill="none"
     stroke-width="0.395862"
     stroke-linecap="round"
     stroke-linejoin="round"
     stroke="#000000"
     stroke-opacity="1"
     stroke-miterlimit="10"
     d="m 18.804634,31.867848 c 10.55469,-21.11327 21.11328,-21.11327 31.66797,0"
     id="path28" />
  <path
     fill-rule="evenodd"
     fill="#000000"
     fill-opacity="1"
     stroke-width="0.395862"
     stroke-linecap="round"
     stroke-linejoin="round"
     stroke="#000000"
     stroke-opacity="1"
     stroke-miterlimit="10"
     d="m 50.472604,31.867848 -1.035159,-7.230469 -4.125001,2.062501 z m 0,0"
     id="path30" />
  <path
     fill="none"
     stroke-width="0.395862"
     stroke-linecap="round"
     stroke-linejoin="round"
     stroke="#000000"
     stroke-opacity="1"
     stroke-miterlimit="10"
     d="m 34.63667,31.867848 c 10.558589,21.109371 21.11327,21.109371 31.671869,0"
     id="path32" />
  <path
     fill-rule="evenodd"
     fill="#000000"
     fill-opacity="1"
     stroke-width="0.395862"
     stroke-linecap="round"
     stroke-linejoin="round"
     stroke="#000000"
     stroke-opacity="1"
     stroke-miterlimit="10"
     d="m 66.308539,31.867848 -5.164069,5.16407 4.12891,2.0625 z m 0,0"
     id="path34" />
  <path
     fill="none"
     stroke-width="0.395862"
     stroke-linecap="round"
     stroke-linejoin="round"
     stroke="#000000"
     stroke-opacity="1"
     stroke-miterlimit="10"
     d="m 50.472604,31.867848 c 10.55859,-21.11327 21.11328,-21.11327 31.667961,0"
     id="path36" />
  <path
     fill-rule="evenodd"
     fill="#000000"
     fill-opacity="1"
     stroke-width="0.395862"
     stroke-linecap="round"
     stroke-linejoin="round"
     stroke="#000000"
     stroke-opacity="1"
     stroke-miterlimit="10"
     d="m 82.140565,31.867848 -1.03516,-7.230469 -4.12499,2.062501 z m 0,0"
     id="path38" />
  <g
     clip-path="url(#clip-1)"
     id="g42"
     transform="translate(-0.847656,-0.49555547)">
    <path
       fill="none"
       stroke-width="0.4"
       stroke-linecap="round"
       stroke-linejoin="round"
       stroke="#000000"
       stroke-opacity="1"
       stroke-miterlimit="10"
       d="m 335.99896,703.99843 c -21.33003,-31.999 -42.66401,-31.999 -63.99799,0"
       transform="matrix(0.989655,0,0,-0.989655,-249.53483,729.07897)"
       id="path40" />
  </g>
  <path
     fill-rule="evenodd"
     fill="#000000"
     fill-opacity="1"
     stroke-width="0.395862"
     stroke-linecap="round"
     stroke-linejoin="round"
     stroke="#000000"
     stroke-opacity="1"
     stroke-miterlimit="10"
     d="m 18.804634,31.867848 1.92188,7.042969 3.839842,-2.558594 z m 0,0"
     id="path44" />
  <path
     fill="none"
     stroke-width="0.395862"
     stroke-linecap="round"
     stroke-linejoin="round"
     stroke="#000000"
     stroke-opacity="1"
     stroke-miterlimit="10"
     d="m 50.472604,31.867848 c 0,-42.22655 -15.835934,-42.22655 -47.5039048,0"
     id="path46" />
  <path
     fill-rule="evenodd"
     fill="#000000"
     fill-opacity="1"
     stroke-width="0.395862"
     stroke-linecap="round"
     stroke-linejoin="round"
     stroke="#000000"
     stroke-opacity="1"
     stroke-miterlimit="10"
     d="m 2.9686992,31.867848 6.0039103,-4.160153 -3.6914033,-2.76953 z m 0,0"
     id="path48" />
  <path
     fill="none"
     stroke-width="0.395862"
     stroke-linecap="round"
     stroke-linejoin="round"
     stroke="#000000"
     stroke-opacity="1"
     stroke-miterlimit="10"
     d="M 66.308539,31.867848 H 50.472604"
     id="path50" />
  <path
     fill-rule="evenodd"
     fill="#000000"
     fill-opacity="1"
     stroke-width="0.395862"
     stroke-linecap="round"
     stroke-linejoin="round"
     stroke="#000000"
     stroke-opacity="1"
     stroke-miterlimit="10"
     d="m 50.472604,31.867848 6.925774,2.304689 V 29.55926 Z m 0,0"
     id="path52" />
</svg>
