<?xml version="1.0" encoding="UTF-8"?>
<svg xmlns="http://www.w3.org/2000/svg" xmlns:xlink="http://www.w3.org/1999/xlink" width="108.3" height="105.2" viewBox="0 0 108.3 105.2">
<defs>
<clipPath id="clip-0">
<path clip-rule="nonzero" d="M 0.0625 0 L 89 0 L 89 104.40625 L 0.0625 104.40625 Z M 0.0625 0 "/>
</clipPath>
</defs>
<g clip-path="url(#clip-0)">
<path fill="none" stroke-width="1.2" stroke-linecap="butt" stroke-linejoin="round" stroke="rgb(0%, 0%, 0%)" stroke-opacity="1" stroke-miterlimit="10" d="M 216.000567 656.000962 L 223.998429 703.999938 L 232.000226 647.999165 L 256.001681 695.99814 L 263.999543 607.998051 L 175.999453 615.999849 L 223.998429 631.999507 L 175.999453 647.999165 L 184.001251 712.001735 Z M 216.000567 656.000962 " transform="matrix(0.992453, 0, 0, -0.992453, -174.014906, 707.221887)"/>
</g>
<path fill-rule="evenodd" fill="rgb(0%, 0%, 100%)" fill-opacity="1" d="M 19.511719 32.355469 C 19.511719 30.710938 18.179688 29.375 16.535156 29.375 C 14.890625 29.375 13.558594 30.710938 13.558594 32.355469 C 13.558594 34 14.890625 35.332031 16.535156 35.332031 C 18.179688 35.332031 19.511719 34 19.511719 32.355469 "/>
<path fill-rule="evenodd" fill="rgb(0%, 0%, 100%)" fill-opacity="1" d="M 11.574219 72.050781 C 11.574219 70.40625 10.242188 69.074219 8.597656 69.074219 C 6.953125 69.074219 5.617188 70.40625 5.617188 72.050781 C 5.617188 73.695312 6.953125 75.03125 8.597656 75.03125 C 10.242188 75.03125 11.574219 73.695312 11.574219 72.050781 "/>
<path fill="none" stroke-width="0.8" stroke-linecap="butt" stroke-linejoin="round" stroke="rgb(0%, 0%, 100%)" stroke-opacity="1" stroke-miterlimit="10" d="M 191.999112 679.998482 L 279.999201 679.998482 " transform="matrix(0.992453, 0, 0, -0.992453, -174.014906, 707.221887)"/>
<path fill="none" stroke-width="0.8" stroke-linecap="butt" stroke-linejoin="round" stroke="rgb(0%, 0%, 100%)" stroke-opacity="1" stroke-miterlimit="10" d="M 184.001251 640.001304 L 279.999201 640.001304 " transform="matrix(0.992453, 0, 0, -0.992453, -174.014906, 707.221887)"/>
<path fill-rule="evenodd" fill="rgb(100%, 0%, 0%)" fill-opacity="1" d="M 22.34375 74.878906 L 27.304688 69.917969 L 26.609375 69.222656 L 21.648438 74.1875 Z M 22.34375 74.878906 "/>
<path fill-rule="evenodd" fill="rgb(100%, 0%, 0%)" fill-opacity="1" d="M 22.34375 69.222656 L 27.304688 74.1875 L 26.609375 74.878906 L 21.648438 69.917969 Z M 22.34375 69.222656 "/>
<path fill-rule="evenodd" fill="rgb(100%, 0%, 0%)" fill-opacity="1" d="M 79.363281 35.183594 L 84.324219 30.21875 L 83.628906 29.527344 L 78.667969 34.488281 Z M 79.363281 35.183594 "/>
<path fill-rule="evenodd" fill="rgb(100%, 0%, 0%)" fill-opacity="1" d="M 79.363281 29.527344 L 84.324219 34.488281 L 83.628906 35.183594 L 78.667969 30.21875 Z M 79.363281 29.527344 "/>
<path fill-rule="evenodd" fill="rgb(100%, 0%, 0%)" fill-opacity="1" d="M 69.980469 35.183594 L 74.941406 30.21875 L 74.246094 29.527344 L 69.285156 34.488281 Z M 69.980469 35.183594 "/>
<path fill-rule="evenodd" fill="rgb(100%, 0%, 0%)" fill-opacity="1" d="M 69.980469 29.527344 L 74.941406 34.488281 L 74.246094 35.183594 L 69.285156 30.21875 Z M 69.980469 29.527344 "/>
<path fill-rule="evenodd" fill="rgb(100%, 0%, 0%)" fill-opacity="1" d="M 49.5625 35.183594 L 54.527344 30.21875 L 53.832031 29.527344 L 48.871094 34.488281 Z M 49.5625 35.183594 "/>
<path fill-rule="evenodd" fill="rgb(100%, 0%, 0%)" fill-opacity="1" d="M 49.5625 29.527344 L 54.527344 34.488281 L 53.832031 35.183594 L 48.871094 30.21875 Z M 49.5625 29.527344 "/>
<path fill-rule="evenodd" fill="rgb(100%, 0%, 0%)" fill-opacity="1" d="M 42.191406 35.183594 L 47.152344 30.21875 L 46.457031 29.527344 L 41.496094 34.488281 Z M 42.191406 35.183594 "/>
<path fill-rule="evenodd" fill="rgb(100%, 0%, 0%)" fill-opacity="1" d="M 42.191406 29.527344 L 47.152344 34.488281 L 46.457031 35.183594 L 41.496094 30.21875 Z M 42.191406 29.527344 "/>
<path fill-rule="evenodd" fill="rgb(100%, 0%, 0%)" fill-opacity="1" d="M 24.609375 35.183594 L 29.574219 30.21875 L 28.878906 29.527344 L 23.914062 34.488281 Z M 24.609375 35.183594 "/>
<path fill-rule="evenodd" fill="rgb(100%, 0%, 0%)" fill-opacity="1" d="M 24.609375 29.527344 L 29.574219 34.488281 L 28.878906 35.183594 L 23.914062 30.21875 Z M 24.609375 29.527344 "/>
<path fill-rule="evenodd" fill="rgb(100%, 0%, 0%)" fill-opacity="1" d="M 82.972656 74.878906 L 87.933594 69.917969 L 87.238281 69.222656 L 82.277344 74.1875 Z M 82.972656 74.878906 "/>
<path fill-rule="evenodd" fill="rgb(100%, 0%, 0%)" fill-opacity="1" d="M 82.972656 69.222656 L 87.933594 74.1875 L 87.238281 74.878906 L 82.277344 69.917969 Z M 82.972656 69.222656 "/>
<path fill-rule="evenodd" fill="rgb(0%, 0%, 100%)" fill-opacity="1" d="M 106.847656 72.050781 C 106.847656 70.40625 105.515625 69.074219 103.871094 69.074219 C 102.226562 69.074219 100.894531 70.40625 100.894531 72.050781 C 100.894531 73.695312 102.226562 75.03125 103.871094 75.03125 C 105.515625 75.03125 106.847656 73.695312 106.847656 72.050781 "/>
<path fill-rule="evenodd" fill="rgb(0%, 0%, 100%)" fill-opacity="1" d="M 106.847656 32.355469 C 106.847656 30.710938 105.515625 29.375 103.871094 29.375 C 102.226562 29.375 100.894531 30.710938 100.894531 32.355469 C 100.894531 34 102.226562 35.332031 103.871094 35.332031 C 105.515625 35.332031 106.847656 34 106.847656 32.355469 "/>
</svg>
