<?xml version="1.0" encoding="UTF-8"?>
<svg xmlns="http://www.w3.org/2000/svg" xmlns:xlink="http://www.w3.org/1999/xlink" width="112.623" height="113" viewBox="0 0 112.623 113">
<defs>
<clipPath id="clip-0">
<path clip-rule="nonzero" d="M 4 0.1875 L 94 0.1875 L 94 106 L 4 106 Z M 4 0.1875 "/>
</clipPath>
<clipPath id="clip-1">
<path clip-rule="nonzero" d="M 0 72 L 109 72 L 109 112.808594 L 0 112.808594 Z M 0 72 "/>
</clipPath>
</defs>
<g clip-path="url(#clip-0)">
<path fill="none" stroke-width="1.2" stroke-linecap="butt" stroke-linejoin="round" stroke="rgb(0%, 0%, 0%)" stroke-opacity="1" stroke-miterlimit="10" d="M 216.000314 655.998098 L 223.999659 703.998083 L 231.999003 647.998753 L 256.000955 695.998738 L 264.0003 607.998112 L 175.999673 616.001376 L 223.999659 632.000065 L 175.999673 647.998753 L 183.999018 712.001346 Z M 216.000314 655.998098 " transform="matrix(0.996664, 0, 0, -0.996664, -170.506239, 710.411065)"/>
</g>
<path fill-rule="evenodd" fill="rgb(0%, 0%, 100%)" fill-opacity="1" d="M 23.84375 32.679688 C 23.84375 31.027344 22.503906 29.691406 20.851562 29.691406 C 19.203125 29.691406 17.863281 31.027344 17.863281 32.679688 C 17.863281 34.332031 19.203125 35.667969 20.851562 35.667969 C 22.503906 35.667969 23.84375 34.332031 23.84375 32.679688 "/>
<path fill-rule="evenodd" fill="rgb(0%, 0%, 100%)" fill-opacity="1" d="M 15.871094 72.546875 C 15.871094 70.894531 14.53125 69.554688 12.878906 69.554688 C 11.226562 69.554688 9.890625 70.894531 9.890625 72.546875 C 9.890625 74.199219 11.226562 75.535156 12.878906 75.535156 C 14.53125 75.535156 15.871094 74.199219 15.871094 72.546875 "/>
<path fill-rule="evenodd" fill="rgb(0%, 0%, 100%)" fill-opacity="1" d="M 111.550781 72.546875 C 111.550781 70.894531 110.210938 69.554688 108.558594 69.554688 C 106.90625 69.554688 105.570312 70.894531 105.570312 72.546875 C 105.570312 74.199219 106.90625 75.535156 108.558594 75.535156 C 110.210938 75.535156 111.550781 74.199219 111.550781 72.546875 "/>
<path fill-rule="evenodd" fill="rgb(0%, 0%, 100%)" fill-opacity="1" d="M 111.550781 32.679688 C 111.550781 31.027344 110.210938 29.691406 108.558594 29.691406 C 106.90625 29.691406 105.570312 31.027344 105.570312 32.679688 C 105.570312 34.332031 106.90625 35.667969 108.558594 35.667969 C 110.210938 35.667969 111.550781 34.332031 111.550781 32.679688 "/>
<g clip-path="url(#clip-1)">
<path fill="none" stroke-width="0.8" stroke-linecap="round" stroke-linejoin="round" stroke="rgb(0%, 0%, 100%)" stroke-opacity="1" stroke-dasharray="4" stroke-miterlimit="10" d="M 183.999018 639.999409 C 160.000985 607.998112 175.999673 604.0004 195.999994 602.001543 C 216.000314 599.998768 239.998347 599.998768 256.000955 602.001543 C 271.999644 604.0004 279.998988 607.998112 279.998988 639.999409 " transform="matrix(0.996664, 0, 0, -0.996664, -170.506239, 710.411065)"/>
</g>
<path fill="none" stroke-width="0.8" stroke-linecap="round" stroke-linejoin="round" stroke="rgb(0%, 0%, 100%)" stroke-opacity="1" stroke-dasharray="4" stroke-miterlimit="10" d="M 191.998362 680.00005 C 200.001626 695.998738 208.00097 692.001026 209.333541 684.667967 C 210.666112 677.334908 205.331909 666.666503 206.668399 659.999729 C 208.00097 653.332956 216.000314 650.667814 220.001946 652.000385 C 223.999659 653.332956 223.999659 658.667159 225.33223 665.333932 C 226.66872 672.000706 229.333861 680.00005 236.66692 689.99825 C 243.999979 700.00037 256.000955 712.001346 279.998988 680.00005 " transform="matrix(0.996664, 0, 0, -0.996664, -170.506239, 710.411065)"/>
<path fill-rule="evenodd" fill="rgb(100%, 0%, 0%)" fill-opacity="1" d="M 24.28125 27.328125 L 29.265625 22.347656 L 28.566406 21.648438 L 23.585938 26.632812 Z M 24.28125 27.328125 "/>
<path fill-rule="evenodd" fill="rgb(100%, 0%, 0%)" fill-opacity="1" d="M 24.28125 21.648438 L 29.265625 26.632812 L 28.566406 27.328125 L 23.585938 22.347656 Z M 24.28125 21.648438 "/>
<path fill-rule="evenodd" fill="rgb(100%, 0%, 0%)" fill-opacity="1" d="M 34.320312 44.898438 L 39.304688 39.917969 L 38.605469 39.21875 L 33.625 44.203125 Z M 34.320312 44.898438 "/>
<path fill-rule="evenodd" fill="rgb(100%, 0%, 0%)" fill-opacity="1" d="M 34.320312 39.21875 L 39.304688 44.203125 L 38.605469 44.898438 L 33.625 39.917969 Z M 34.320312 39.21875 "/>
<path fill-rule="evenodd" fill="rgb(100%, 0%, 0%)" fill-opacity="1" d="M 54.738281 40.542969 L 59.722656 35.5625 L 59.023438 34.863281 L 54.042969 39.847656 Z M 54.738281 40.542969 "/>
<path fill-rule="evenodd" fill="rgb(100%, 0%, 0%)" fill-opacity="1" d="M 54.738281 34.863281 L 59.722656 39.847656 L 59.023438 40.542969 L 54.042969 35.5625 Z M 54.738281 34.863281 "/>
</svg>
