<?xml version="1.0" encoding="UTF-8"?>
<svg xmlns="http://www.w3.org/2000/svg" xmlns:xlink="http://www.w3.org/1999/xlink" width="131" height="131" viewBox="0 0 131 131">
<path fill-rule="evenodd" fill="rgb(82.699585%, 82.699585%, 82.699585%)" fill-opacity="1" stroke-width="2" stroke-linecap="round" stroke-linejoin="round" stroke="rgb(0%, 0%, 0%)" stroke-opacity="1" stroke-miterlimit="10" d="M 320 640 C 320 675.347656 291.347656 704 256 704 C 220.652344 704 192 675.347656 192 640 C 192 604.652344 220.652344 576 256 576 C 291.347656 576 320 604.652344 320 640 " transform="matrix(1, 0, 0, -1, -190.5, 705.5)"/>
<path fill-rule="evenodd" fill="rgb(93.299866%, 50.999451%, 93.299866%)" fill-opacity="1" d="M 1.5 61.5 L 1.5 65.5 L 53.5 65.5 L 53.5 61.5 Z M 1.5 61.5 "/>
<path fill-rule="evenodd" fill="rgb(25.099182%, 87.799072%, 81.599426%)" fill-opacity="1" d="M 1.5 65.5 L 1.5 69.5 L 53.5 69.5 L 53.5 65.5 Z M 1.5 65.5 "/>
<path fill="none" stroke-width="2" stroke-linecap="butt" stroke-linejoin="round" stroke="rgb(74.499512%, 74.499512%, 74.499512%)" stroke-opacity="1" stroke-miterlimit="10" d="M 256 640 L 256 704 " transform="matrix(1, 0, 0, -1, -190.5, 705.5)"/>
<path fill="none" stroke-width="2" stroke-linecap="butt" stroke-linejoin="round" stroke="rgb(74.499512%, 74.499512%, 74.499512%)" stroke-opacity="1" stroke-miterlimit="10" d="M 256 576 L 256 640 " transform="matrix(1, 0, 0, -1, -190.5, 705.5)"/>
<path fill="none" stroke-width="2" stroke-linecap="butt" stroke-linejoin="round" stroke="rgb(74.499512%, 74.499512%, 74.499512%)" stroke-opacity="1" stroke-miterlimit="10" d="M 256 640 L 210.746094 685.253906 " transform="matrix(1, 0, 0, -1, -190.5, 705.5)"/>
<path fill="none" stroke-width="2" stroke-linecap="butt" stroke-linejoin="round" stroke="rgb(74.499512%, 74.499512%, 74.499512%)" stroke-opacity="1" stroke-miterlimit="10" d="M 256 640 L 210.746094 594.746094 " transform="matrix(1, 0, 0, -1, -190.5, 705.5)"/>
<path fill="none" stroke-width="2" stroke-linecap="butt" stroke-linejoin="round" stroke="rgb(74.499512%, 74.499512%, 74.499512%)" stroke-opacity="1" stroke-miterlimit="10" d="M 256 640 L 301.253906 594.746094 " transform="matrix(1, 0, 0, -1, -190.5, 705.5)"/>
<path fill="none" stroke-width="2" stroke-linecap="butt" stroke-linejoin="round" stroke="rgb(74.499512%, 74.499512%, 74.499512%)" stroke-opacity="1" stroke-miterlimit="10" d="M 256 640 L 301.253906 685.253906 " transform="matrix(1, 0, 0, -1, -190.5, 705.5)"/>
<path fill="none" stroke-width="2" stroke-linecap="butt" stroke-linejoin="round" stroke="rgb(74.499512%, 74.499512%, 74.499512%)" stroke-opacity="1" stroke-miterlimit="10" d="M 256 640 L 320 640 " transform="matrix(1, 0, 0, -1, -190.5, 705.5)"/>
<path fill="none" stroke-width="2" stroke-linecap="round" stroke-linejoin="round" stroke="rgb(0%, 0%, 0%)" stroke-opacity="1" stroke-miterlimit="10" d="M 320 640 C 320 675.347656 291.347656 704 256 704 C 220.652344 704 192 675.347656 192 640 C 192 604.652344 220.652344 576 256 576 C 291.347656 576 320 604.652344 320 640 " transform="matrix(1, 0, 0, -1, -190.5, 705.5)"/>
<path fill-rule="evenodd" fill="rgb(100%, 100%, 100%)" fill-opacity="1" stroke-width="2" stroke-linecap="round" stroke-linejoin="round" stroke="rgb(0%, 0%, 0%)" stroke-opacity="1" stroke-miterlimit="10" d="M 268 640 C 268 646.628906 262.628906 652 256 652 C 249.371094 652 244 646.628906 244 640 C 244 633.371094 249.371094 628 256 628 C 262.628906 628 268 633.371094 268 640 " transform="matrix(1, 0, 0, -1, -190.5, 705.5)"/>
<path fill="none" stroke-width="1.2" stroke-linecap="butt" stroke-linejoin="round" stroke="rgb(100%, 0%, 0%)" stroke-opacity="1" stroke-miterlimit="10" d="M 211.097656 667.90625 C 213.515625 663.25 213.378906 644.488281 219.863281 628.488281 C 226.34375 612.488281 239.445312 599.25 241.523438 593.292969 C 243.601562 587.335938 234.652344 588.660156 225.683594 599.933594 C 216.710938 611.210938 207.71875 632.4375 205.710938 647.777344 C 203.703125 663.113281 208.675781 672.5625 211.097656 667.90625 Z M 211.097656 667.90625 " transform="matrix(1, 0, 0, -1, -190.5, 705.5)"/>
<path fill="none" stroke-width="1.2" stroke-linecap="butt" stroke-linejoin="round" stroke="rgb(0%, 0%, 100%)" stroke-opacity="1" stroke-miterlimit="10" d="M 287.332031 633.332031 C 286.667969 625.332031 285.332031 618.667969 276 614.667969 C 266.667969 610.667969 249.332031 609.332031 238.667969 618 C 228 626.667969 224 645.332031 224.449219 654.164062 C 224.894531 662.996094 229.792969 661.988281 232.460938 654.65625 C 235.125 647.324219 235.5625 633.660156 237.113281 628.164062 C 238.667969 622.667969 241.332031 625.332031 240.667969 634.667969 C 240 644 236 660 240.667969 668 C 245.332031 676 258.667969 676 268 673.332031 C 277.332031 670.667969 282.667969 665.332031 285.332031 658 C 288 650.667969 288 641.332031 287.332031 633.332031 Z M 287.332031 633.332031 " transform="matrix(1, 0, 0, -1, -190.5, 705.5)"/>
</svg>
