<?xml version="1.0" encoding="UTF-8"?>
<svg xmlns="http://www.w3.org/2000/svg" xmlns:xlink="http://www.w3.org/1999/xlink" width="131" height="131" viewBox="0 0 131 131">
<path fill-rule="evenodd" fill="rgb(82.699585%, 82.699585%, 82.699585%)" fill-opacity="1" stroke-width="2" stroke-linecap="round" stroke-linejoin="round" stroke="rgb(0%, 0%, 0%)" stroke-opacity="1" stroke-miterlimit="10" d="M 320 640 C 320 675.347656 291.347656 704 256 704 C 220.652344 704 192 675.347656 192 640 C 192 604.652344 220.652344 576 256 576 C 291.347656 576 320 604.652344 320 640 " transform="matrix(1, 0, 0, -1, -190.5, 705.5)"/>
<path fill-rule="evenodd" fill="rgb(25.099182%, 87.799072%, 81.599426%)" fill-opacity="1" stroke-width="0.4" stroke-linecap="butt" stroke-linejoin="round" stroke="rgb(25.099182%, 87.799072%, 81.599426%)" stroke-opacity="1" stroke-miterlimit="10" d="M 260 628 L 256 628 L 256 576 L 260 576 Z M 260 628 " transform="matrix(1, 0, 0, -1, -190.5, 705.5)"/>
<path fill="none" stroke-width="2" stroke-linecap="butt" stroke-linejoin="round" stroke="rgb(74.499512%, 74.499512%, 74.499512%)" stroke-opacity="1" stroke-miterlimit="10" d="M 264.484375 648.484375 L 301.253906 685.253906 " transform="matrix(1, 0, 0, -1, -190.5, 705.5)"/>
<path fill="none" stroke-width="2" stroke-linecap="butt" stroke-linejoin="round" stroke="rgb(74.499512%, 74.499512%, 74.499512%)" stroke-opacity="1" stroke-miterlimit="10" d="M 268 640 L 320 640 " transform="matrix(1, 0, 0, -1, -190.5, 705.5)"/>
<path fill="none" stroke-width="2" stroke-linecap="butt" stroke-linejoin="round" stroke="rgb(74.499512%, 74.499512%, 74.499512%)" stroke-opacity="1" stroke-miterlimit="10" d="M 264.484375 631.515625 L 301.253906 594.746094 " transform="matrix(1, 0, 0, -1, -190.5, 705.5)"/>
<path fill="none" stroke-width="2" stroke-linecap="butt" stroke-linejoin="round" stroke="rgb(74.499512%, 74.499512%, 74.499512%)" stroke-opacity="1" stroke-miterlimit="10" d="M 260.59375 651.085938 L 280.492188 699.128906 " transform="matrix(1, 0, 0, -1, -190.5, 705.5)"/>
<path fill="none" stroke-width="2" stroke-linecap="butt" stroke-linejoin="round" stroke="rgb(74.499512%, 74.499512%, 74.499512%)" stroke-opacity="1" stroke-miterlimit="10" d="M 267.085938 644.59375 L 315.128906 664.492188 " transform="matrix(1, 0, 0, -1, -190.5, 705.5)"/>
<path fill="none" stroke-width="2" stroke-linecap="butt" stroke-linejoin="round" stroke="rgb(74.499512%, 74.499512%, 74.499512%)" stroke-opacity="1" stroke-miterlimit="10" d="M 267.085938 635.40625 L 315.128906 615.507812 " transform="matrix(1, 0, 0, -1, -190.5, 705.5)"/>
<path fill="none" stroke-width="2" stroke-linecap="butt" stroke-linejoin="round" stroke="rgb(74.499512%, 74.499512%, 74.499512%)" stroke-opacity="1" stroke-miterlimit="10" d="M 260.59375 628.914062 L 280.492188 580.871094 " transform="matrix(1, 0, 0, -1, -190.5, 705.5)"/>
<path fill-rule="evenodd" fill="rgb(93.299866%, 50.999451%, 93.299866%)" fill-opacity="1" stroke-width="0.4" stroke-linecap="butt" stroke-linejoin="round" stroke="rgb(93.299866%, 50.999451%, 93.299866%)" stroke-opacity="1" stroke-miterlimit="10" d="M 256 652 L 260 652 L 260 704 L 256 704 Z M 256 652 " transform="matrix(1, 0, 0, -1, -190.5, 705.5)"/>
<path fill-rule="evenodd" fill="rgb(25.099182%, 87.799072%, 81.599426%)" fill-opacity="1" stroke-width="0.4" stroke-linecap="butt" stroke-linejoin="round" stroke="rgb(25.099182%, 87.799072%, 81.599426%)" stroke-opacity="1" stroke-miterlimit="10" d="M 256 704 L 252 704 L 252 652 L 256 652 Z M 256 704 " transform="matrix(1, 0, 0, -1, -190.5, 705.5)"/>
<path fill-rule="evenodd" fill="rgb(93.299866%, 50.999451%, 93.299866%)" fill-opacity="1" stroke-width="0.4" stroke-linecap="butt" stroke-linejoin="round" stroke="rgb(93.299866%, 50.999451%, 93.299866%)" stroke-opacity="1" stroke-miterlimit="10" d="M 252 576 L 256 576 L 256 628 L 252 628 Z M 252 576 " transform="matrix(1, 0, 0, -1, -190.5, 705.5)"/>
<path fill="none" stroke-width="2" stroke-linecap="butt" stroke-linejoin="round" stroke="rgb(74.499512%, 74.499512%, 74.499512%)" stroke-opacity="1" stroke-miterlimit="10" d="M 247.515625 631.515625 L 210.746094 594.746094 " transform="matrix(1, 0, 0, -1, -190.5, 705.5)"/>
<path fill="none" stroke-width="2" stroke-linecap="butt" stroke-linejoin="round" stroke="rgb(74.499512%, 74.499512%, 74.499512%)" stroke-opacity="1" stroke-miterlimit="10" d="M 244 640 L 192 640 " transform="matrix(1, 0, 0, -1, -190.5, 705.5)"/>
<path fill="none" stroke-width="2" stroke-linecap="butt" stroke-linejoin="round" stroke="rgb(74.499512%, 74.499512%, 74.499512%)" stroke-opacity="1" stroke-miterlimit="10" d="M 247.515625 648.484375 L 210.746094 685.253906 " transform="matrix(1, 0, 0, -1, -190.5, 705.5)"/>
<path fill="none" stroke-width="2" stroke-linecap="butt" stroke-linejoin="round" stroke="rgb(74.499512%, 74.499512%, 74.499512%)" stroke-opacity="1" stroke-miterlimit="10" d="M 251.40625 628.914062 L 231.507812 580.871094 " transform="matrix(1, 0, 0, -1, -190.5, 705.5)"/>
<path fill="none" stroke-width="2" stroke-linecap="butt" stroke-linejoin="round" stroke="rgb(74.499512%, 74.499512%, 74.499512%)" stroke-opacity="1" stroke-miterlimit="10" d="M 244.914062 635.40625 L 196.871094 615.507812 " transform="matrix(1, 0, 0, -1, -190.5, 705.5)"/>
<path fill="none" stroke-width="2" stroke-linecap="butt" stroke-linejoin="round" stroke="rgb(74.499512%, 74.499512%, 74.499512%)" stroke-opacity="1" stroke-miterlimit="10" d="M 244.914062 644.59375 L 196.871094 664.492188 " transform="matrix(1, 0, 0, -1, -190.5, 705.5)"/>
<path fill="none" stroke-width="2" stroke-linecap="butt" stroke-linejoin="round" stroke="rgb(74.499512%, 74.499512%, 74.499512%)" stroke-opacity="1" stroke-miterlimit="10" d="M 251.40625 651.085938 L 231.507812 699.128906 " transform="matrix(1, 0, 0, -1, -190.5, 705.5)"/>
<path fill="none" stroke-width="2" stroke-linecap="round" stroke-linejoin="round" stroke="rgb(0%, 0%, 0%)" stroke-opacity="1" stroke-miterlimit="10" d="M 320 640 C 320 675.347656 291.347656 704 256 704 C 220.652344 704 192 675.347656 192 640 C 192 604.652344 220.652344 576 256 576 C 291.347656 576 320 604.652344 320 640 " transform="matrix(1, 0, 0, -1, -190.5, 705.5)"/>
<path fill-rule="evenodd" fill="rgb(100%, 100%, 100%)" fill-opacity="1" stroke-width="2" stroke-linecap="round" stroke-linejoin="round" stroke="rgb(0%, 0%, 0%)" stroke-opacity="1" stroke-miterlimit="10" d="M 268 640 C 268 646.628906 262.628906 652 256 652 C 249.371094 652 244 646.628906 244 640 C 244 633.371094 249.371094 628 256 628 C 262.628906 628 268 633.371094 268 640 " transform="matrix(1, 0, 0, -1, -190.5, 705.5)"/>
<path fill="none" stroke-width="1.2" stroke-linecap="butt" stroke-linejoin="round" stroke="rgb(0%, 0%, 100%)" stroke-opacity="1" stroke-miterlimit="10" d="M 256 672 C 264 672 270 670 269 668 C 268 666 260 664 256 664 " transform="matrix(1, 0, 0, -1, -190.5, 705.5)"/>
<path fill="none" stroke-width="1.2" stroke-linecap="butt" stroke-linejoin="round" stroke="rgb(0%, 0%, 100%)" stroke-opacity="1" stroke-miterlimit="10" d="M 256 616 C 260 616 263.601562 617.800781 263.601562 619.800781 C 263.601562 621.800781 260 624 256 624 " transform="matrix(1, 0, 0, -1, -190.5, 705.5)"/>
<path fill="none" stroke-width="1.2" stroke-linecap="butt" stroke-linejoin="round" stroke="rgb(0%, 0%, 100%)" stroke-opacity="1" stroke-miterlimit="10" d="M 256 656 C 276 656 288 644 292.667969 634 C 297.332031 624 294.667969 616 286.332031 612 C 278 608 264 608 256 608 " transform="matrix(1, 0, 0, -1, -190.5, 705.5)"/>
<path fill="none" stroke-width="1.2" stroke-linecap="butt" stroke-linejoin="round" stroke="rgb(100%, 0%, 0%)" stroke-opacity="1" stroke-miterlimit="10" d="M 256 692 C 276 692 282 688 283.667969 685.332031 C 285.332031 682.667969 282.667969 681.332031 277.332031 681.667969 C 272 682 264 684 256 684 " transform="matrix(1, 0, 0, -1, -190.5, 705.5)"/>
<path fill="none" stroke-width="1.2" stroke-linecap="butt" stroke-linejoin="round" stroke="rgb(100%, 0%, 0%)" stroke-opacity="1" stroke-miterlimit="10" d="M 256 596 C 264 596 276 602 283.332031 604.332031 C 290.667969 606.667969 293.332031 605.332031 291.332031 602.667969 C 289.332031 600 282.667969 596 277.332031 593 C 272 590 268 588 256 588 " transform="matrix(1, 0, 0, -1, -190.5, 705.5)"/>
<path fill="none" stroke-width="1.2" stroke-linecap="butt" stroke-linejoin="round" stroke="rgb(0%, 0%, 100%)" stroke-opacity="1" stroke-miterlimit="10" d="M 256 608 C 248 608 242 610 243 612 C 244 614 252 616 256 616 " transform="matrix(1, 0, 0, -1, -190.5, 705.5)"/>
<path fill="none" stroke-width="1.2" stroke-linecap="butt" stroke-linejoin="round" stroke="rgb(0%, 0%, 100%)" stroke-opacity="1" stroke-miterlimit="10" d="M 256 664 C 252 664 248.398438 662.199219 248.398438 660.199219 C 248.398438 658.199219 252 656 256 656 " transform="matrix(1, 0, 0, -1, -190.5, 705.5)"/>
<path fill="none" stroke-width="1.2" stroke-linecap="butt" stroke-linejoin="round" stroke="rgb(0%, 0%, 100%)" stroke-opacity="1" stroke-miterlimit="10" d="M 256 624 C 236 624 224 636 219.332031 646 C 214.667969 656 217.332031 664 225.667969 668 C 234 672 248 672 256 672 " transform="matrix(1, 0, 0, -1, -190.5, 705.5)"/>
<path fill="none" stroke-width="1.2" stroke-linecap="butt" stroke-linejoin="round" stroke="rgb(100%, 0%, 0%)" stroke-opacity="1" stroke-miterlimit="10" d="M 256 588 C 236 588 230 592 228.332031 594.667969 C 226.667969 597.332031 229.332031 598.667969 234.667969 598.332031 C 240 598 248 596 256 596 " transform="matrix(1, 0, 0, -1, -190.5, 705.5)"/>
<path fill="none" stroke-width="1.2" stroke-linecap="butt" stroke-linejoin="round" stroke="rgb(100%, 0%, 0%)" stroke-opacity="1" stroke-miterlimit="10" d="M 256 684 C 248 684 236 678 228.667969 675.667969 C 221.332031 673.332031 218.667969 674.667969 220.667969 677.332031 C 222.667969 680 229.332031 684 234.667969 687 C 240 690 244 692 256 692 " transform="matrix(1, 0, 0, -1, -190.5, 705.5)"/>
</svg>
