<?xml version="1.0" encoding="UTF-8"?>
<svg xmlns="http://www.w3.org/2000/svg" xmlns:xlink="http://www.w3.org/1999/xlink" width="113.18" height="111.767" viewBox="0 0 113.18 111.767">
<defs>
<clipPath id="clip-0">
<path clip-rule="nonzero" d="M 0 0.285156 L 101 0.285156 L 101 111 L 0 111 Z M 0 0.285156 "/>
</clipPath>
</defs>
<path fill-rule="evenodd" fill="rgb(0%, 0%, 100%)" fill-opacity="1" d="M 24.304688 28.085938 C 24.304688 26.441406 22.96875 25.105469 21.324219 25.105469 C 19.679688 25.105469 18.347656 26.441406 18.347656 28.085938 C 18.347656 29.730469 19.679688 31.0625 21.324219 31.0625 C 22.96875 31.0625 24.304688 29.730469 24.304688 28.085938 "/>
<path fill-rule="evenodd" fill="rgb(0%, 0%, 100%)" fill-opacity="1" d="M 16.363281 67.796875 C 16.363281 66.152344 15.027344 64.820312 13.382812 64.820312 C 11.738281 64.820312 10.40625 66.152344 10.40625 67.796875 C 10.40625 69.441406 11.738281 70.777344 13.382812 70.777344 C 15.027344 70.777344 16.363281 69.441406 16.363281 67.796875 "/>
<path fill-rule="evenodd" fill="rgb(0%, 0%, 100%)" fill-opacity="1" d="M 111.671875 67.796875 C 111.671875 66.152344 110.335938 64.820312 108.691406 64.820312 C 107.046875 64.820312 105.714844 66.152344 105.714844 67.796875 C 105.714844 69.441406 107.046875 70.777344 108.691406 70.777344 C 110.335938 70.777344 111.671875 69.441406 111.671875 67.796875 "/>
<path fill-rule="evenodd" fill="rgb(0%, 0%, 100%)" fill-opacity="1" d="M 111.671875 28.085938 C 111.671875 26.441406 110.335938 25.105469 108.691406 25.105469 C 107.046875 25.105469 105.714844 26.441406 105.714844 28.085938 C 105.714844 29.730469 107.046875 31.0625 108.691406 31.0625 C 110.335938 31.0625 111.671875 29.730469 111.671875 28.085938 "/>
<path fill="none" stroke-width="0.8" stroke-linecap="round" stroke-linejoin="round" stroke="rgb(0%, 0%, 100%)" stroke-opacity="1" stroke-dasharray="4" stroke-miterlimit="10" d="M 183.999772 640.000311 C 159.99901 608.000607 183.999772 615.999549 205.332909 615.999549 C 226.666045 615.999549 245.331556 608.000607 258.66575 606.001855 C 271.999943 603.999168 279.998886 608.000607 279.998886 640.000311 " transform="matrix(0.992807, 0, 0, -0.992807, -169.293453, 703.193675)"/>
<path fill="none" stroke-width="0.8" stroke-linecap="round" stroke-linejoin="round" stroke="rgb(0%, 0%, 100%)" stroke-opacity="1" stroke-dasharray="4" stroke-miterlimit="10" d="M 191.998715 679.998959 C 200.001592 696.000778 208.000534 691.99934 209.334347 684.665336 C 210.66816 677.331333 205.332909 666.668699 206.666721 659.999635 C 208.000534 653.334505 215.999477 650.66688 220.000915 652.000692 C 223.998419 653.334505 223.998419 658.665822 225.332232 665.334886 C 226.666045 672.000016 229.333671 679.998959 236.667674 690.000588 C 244.001677 699.998282 255.998124 711.998663 279.998886 679.998959 " transform="matrix(0.992807, 0, 0, -0.992807, -169.293453, 703.193675)"/>
<g clip-path="url(#clip-0)">
<path fill="none" stroke-width="1.2" stroke-linecap="butt" stroke-linejoin="round" stroke="rgb(0%, 0%, 0%)" stroke-opacity="1" stroke-miterlimit="10" d="M 181.277063 706.431273 C 186.553296 703.531509 197.109697 687.057543 205.108639 676.39491 C 213.107582 665.724407 218.553001 660.861302 221.27571 666.432626 C 223.998419 672.000016 223.998419 688.001836 226.666045 688.001836 C 229.333671 688.001836 234.668922 672.000016 237.332613 661.333448 C 240.000239 650.66688 240.000239 645.331628 242.667865 653.334505 C 245.331556 661.333448 250.666807 682.666584 255.998124 688.001836 C 261.333375 693.333152 266.668627 682.666584 269.332318 666.668699 C 271.999943 650.66688 271.999943 629.333743 269.332318 615.999549 C 266.668627 602.665356 261.333375 597.334039 240.000239 597.334039 C 218.667103 597.334039 181.332147 602.665356 173.333204 608.000607 C 165.334262 613.331924 186.667398 618.667175 191.998715 632.001369 C 197.333966 645.331628 186.667398 666.668699 181.332147 682.666584 C 176.00083 698.668404 176.00083 709.331037 181.277063 706.431273 Z M 181.277063 706.431273 " transform="matrix(0.992807, 0, 0, -0.992807, -169.293453, 703.193675)"/>
</g>
<path fill-rule="evenodd" fill="rgb(100%, 0%, 0%)" fill-opacity="1" d="M 24.164062 23.34375 L 29.128906 18.378906 L 28.433594 17.683594 L 23.472656 22.648438 Z M 24.164062 23.34375 "/>
<path fill-rule="evenodd" fill="rgb(100%, 0%, 0%)" fill-opacity="1" d="M 24.164062 17.683594 L 29.128906 22.648438 L 28.433594 23.34375 L 23.472656 18.378906 Z M 24.164062 17.683594 "/>
<path fill-rule="evenodd" fill="rgb(100%, 0%, 0%)" fill-opacity="1" d="M 35.175781 38.328125 L 40.140625 33.363281 L 39.445312 32.667969 L 34.480469 37.632812 Z M 35.175781 38.328125 "/>
<path fill-rule="evenodd" fill="rgb(100%, 0%, 0%)" fill-opacity="1" d="M 35.175781 32.667969 L 40.140625 37.632812 L 39.445312 38.328125 L 34.480469 33.363281 Z M 35.175781 32.667969 "/>
<path fill-rule="evenodd" fill="rgb(100%, 0%, 0%)" fill-opacity="1" d="M 57.941406 29.78125 L 62.90625 24.816406 L 62.210938 24.121094 L 57.246094 29.085938 Z M 57.941406 29.78125 "/>
<path fill-rule="evenodd" fill="rgb(100%, 0%, 0%)" fill-opacity="1" d="M 57.941406 24.121094 L 62.90625 29.085938 L 62.210938 29.78125 L 57.246094 24.816406 Z M 57.941406 24.121094 "/>
<path fill-rule="evenodd" fill="rgb(100%, 0%, 0%)" fill-opacity="1" d="M 92.234375 104.726562 L 97.195312 99.761719 L 96.5 99.070312 L 91.539062 104.03125 Z M 92.234375 104.726562 "/>
<path fill-rule="evenodd" fill="rgb(100%, 0%, 0%)" fill-opacity="1" d="M 92.234375 99.070312 L 97.195312 104.03125 L 96.5 104.726562 L 91.539062 99.761719 Z M 92.234375 99.070312 "/>
<path fill-rule="evenodd" fill="rgb(100%, 0%, 0%)" fill-opacity="1" d="M 4.097656 94.09375 L 9.0625 89.132812 L 8.367188 88.4375 L 3.402344 93.402344 Z M 4.097656 94.09375 "/>
<path fill-rule="evenodd" fill="rgb(100%, 0%, 0%)" fill-opacity="1" d="M 4.097656 88.4375 L 9.0625 93.402344 L 8.367188 94.09375 L 3.402344 89.132812 Z M 4.097656 88.4375 "/>
</svg>
