<?xml version="1.0" encoding="UTF-8"?>
<svg xmlns="http://www.w3.org/2000/svg" xmlns:xlink="http://www.w3.org/1999/xlink" width="131" height="131" viewBox="0 0 131 131">
<path fill-rule="evenodd" fill="rgb(82.699585%, 82.699585%, 82.699585%)" fill-opacity="1" stroke-width="2" stroke-linecap="round" stroke-linejoin="round" stroke="rgb(0%, 0%, 0%)" stroke-opacity="1" stroke-miterlimit="10" d="M 320 640 C 320 675.347656 291.347656 704 256 704 C 220.652344 704 192 675.347656 192 640 C 192 604.652344 220.652344 576 256 576 C 291.347656 576 320 604.652344 320 640 " transform="matrix(1, 0, 0, -1, -190.5, 705.5)"/>
<path fill-rule="evenodd" fill="rgb(93.299866%, 50.999451%, 93.299866%)" fill-opacity="1" d="M 1.5 61.5 L 1.5 65.5 L 53.5 65.5 L 53.5 61.5 Z M 1.5 61.5 "/>
<path fill-rule="evenodd" fill="rgb(25.099182%, 87.799072%, 81.599426%)" fill-opacity="1" d="M 1.5 65.5 L 1.5 69.5 L 53.5 69.5 L 53.5 65.5 Z M 1.5 65.5 "/>
<path fill="none" stroke-width="2" stroke-linecap="butt" stroke-linejoin="round" stroke="rgb(74.499512%, 74.499512%, 74.499512%)" stroke-opacity="1" stroke-miterlimit="10" d="M 256 640 L 256 704 " transform="matrix(1, 0, 0, -1, -190.5, 705.5)"/>
<path fill="none" stroke-width="2" stroke-linecap="butt" stroke-linejoin="round" stroke="rgb(74.499512%, 74.499512%, 74.499512%)" stroke-opacity="1" stroke-miterlimit="10" d="M 256 576 L 256 640 " transform="matrix(1, 0, 0, -1, -190.5, 705.5)"/>
<path fill="none" stroke-width="2" stroke-linecap="butt" stroke-linejoin="round" stroke="rgb(74.499512%, 74.499512%, 74.499512%)" stroke-opacity="1" stroke-miterlimit="10" d="M 256 640 L 210.746094 685.253906 " transform="matrix(1, 0, 0, -1, -190.5, 705.5)"/>
<path fill="none" stroke-width="2" stroke-linecap="butt" stroke-linejoin="round" stroke="rgb(74.499512%, 74.499512%, 74.499512%)" stroke-opacity="1" stroke-miterlimit="10" d="M 256 640 L 210.746094 594.746094 " transform="matrix(1, 0, 0, -1, -190.5, 705.5)"/>
<path fill="none" stroke-width="2" stroke-linecap="butt" stroke-linejoin="round" stroke="rgb(74.499512%, 74.499512%, 74.499512%)" stroke-opacity="1" stroke-miterlimit="10" d="M 256 640 L 301.253906 594.746094 " transform="matrix(1, 0, 0, -1, -190.5, 705.5)"/>
<path fill="none" stroke-width="2" stroke-linecap="butt" stroke-linejoin="round" stroke="rgb(74.499512%, 74.499512%, 74.499512%)" stroke-opacity="1" stroke-miterlimit="10" d="M 256 640 L 301.253906 685.253906 " transform="matrix(1, 0, 0, -1, -190.5, 705.5)"/>
<path fill="none" stroke-width="2" stroke-linecap="butt" stroke-linejoin="round" stroke="rgb(74.499512%, 74.499512%, 74.499512%)" stroke-opacity="1" stroke-miterlimit="10" d="M 256 640 L 320 640 " transform="matrix(1, 0, 0, -1, -190.5, 705.5)"/>
<path fill="none" stroke-width="2" stroke-linecap="round" stroke-linejoin="round" stroke="rgb(0%, 0%, 0%)" stroke-opacity="1" stroke-miterlimit="10" d="M 320 640 C 320 675.347656 291.347656 704 256 704 C 220.652344 704 192 675.347656 192 640 C 192 604.652344 220.652344 576 256 576 C 291.347656 576 320 604.652344 320 640 " transform="matrix(1, 0, 0, -1, -190.5, 705.5)"/>
<path fill-rule="evenodd" fill="rgb(100%, 100%, 100%)" fill-opacity="1" stroke-width="2" stroke-linecap="round" stroke-linejoin="round" stroke="rgb(0%, 0%, 0%)" stroke-opacity="1" stroke-miterlimit="10" d="M 268 640 C 268 646.628906 262.628906 652 256 652 C 249.371094 652 244 646.628906 244 640 C 244 633.371094 249.371094 628 256 628 C 262.628906 628 268 633.371094 268 640 " transform="matrix(1, 0, 0, -1, -190.5, 705.5)"/>
</svg>
