<?xml version="1.0" encoding="UTF-8"?>
<svg xmlns="http://www.w3.org/2000/svg" xmlns:xlink="http://www.w3.org/1999/xlink" width="131" height="131" viewBox="0 0 131 131">
<path fill-rule="evenodd" fill="rgb(82.699585%, 82.699585%, 82.699585%)" fill-opacity="1" stroke-width="2" stroke-linecap="round" stroke-linejoin="round" stroke="rgb(0%, 0%, 0%)" stroke-opacity="1" stroke-miterlimit="10" d="M 320 640 C 320 675.347656 291.347656 704 256 704 C 220.652344 704 192 675.347656 192 640 C 192 604.652344 220.652344 576 256 576 C 291.347656 576 320 604.652344 320 640 " transform="matrix(1, 0, 0, -1, -190.5, 705.5)"/>
<path fill-rule="evenodd" fill="rgb(25.099182%, 87.799072%, 81.599426%)" fill-opacity="1" stroke-width="0.4" stroke-linecap="butt" stroke-linejoin="round" stroke="rgb(25.099182%, 87.799072%, 81.599426%)" stroke-opacity="1" stroke-miterlimit="10" d="M 260 628 L 256 628 L 256 576 L 260 576 Z M 260 628 " transform="matrix(1, 0, 0, -1, -190.5, 705.5)"/>
<path fill="none" stroke-width="2" stroke-linecap="butt" stroke-linejoin="round" stroke="rgb(74.499512%, 74.499512%, 74.499512%)" stroke-opacity="1" stroke-miterlimit="10" d="M 264.484375 648.484375 L 301.253906 685.253906 " transform="matrix(1, 0, 0, -1, -190.5, 705.5)"/>
<path fill="none" stroke-width="2" stroke-linecap="butt" stroke-linejoin="round" stroke="rgb(74.499512%, 74.499512%, 74.499512%)" stroke-opacity="1" stroke-miterlimit="10" d="M 268 640 L 320 640 " transform="matrix(1, 0, 0, -1, -190.5, 705.5)"/>
<path fill="none" stroke-width="2" stroke-linecap="butt" stroke-linejoin="round" stroke="rgb(74.499512%, 74.499512%, 74.499512%)" stroke-opacity="1" stroke-miterlimit="10" d="M 264.484375 631.515625 L 301.253906 594.746094 " transform="matrix(1, 0, 0, -1, -190.5, 705.5)"/>
<path fill="none" stroke-width="2" stroke-linecap="butt" stroke-linejoin="round" stroke="rgb(74.499512%, 74.499512%, 74.499512%)" stroke-opacity="1" stroke-miterlimit="10" d="M 260.59375 651.085938 L 280.492188 699.128906 " transform="matrix(1, 0, 0, -1, -190.5, 705.5)"/>
<path fill="none" stroke-width="2" stroke-linecap="butt" stroke-linejoin="round" stroke="rgb(74.499512%, 74.499512%, 74.499512%)" stroke-opacity="1" stroke-miterlimit="10" d="M 267.085938 644.59375 L 315.128906 664.492188 " transform="matrix(1, 0, 0, -1, -190.5, 705.5)"/>
<path fill="none" stroke-width="2" stroke-linecap="butt" stroke-linejoin="round" stroke="rgb(74.499512%, 74.499512%, 74.499512%)" stroke-opacity="1" stroke-miterlimit="10" d="M 267.085938 635.40625 L 315.128906 615.507812 " transform="matrix(1, 0, 0, -1, -190.5, 705.5)"/>
<path fill="none" stroke-width="2" stroke-linecap="butt" stroke-linejoin="round" stroke="rgb(74.499512%, 74.499512%, 74.499512%)" stroke-opacity="1" stroke-miterlimit="10" d="M 260.59375 628.914062 L 280.492188 580.871094 " transform="matrix(1, 0, 0, -1, -190.5, 705.5)"/>
<path fill-rule="evenodd" fill="rgb(93.299866%, 50.999451%, 93.299866%)" fill-opacity="1" stroke-width="0.4" stroke-linecap="butt" stroke-linejoin="round" stroke="rgb(93.299866%, 50.999451%, 93.299866%)" stroke-opacity="1" stroke-miterlimit="10" d="M 256 652 L 260 652 L 260 704 L 256 704 Z M 256 652 " transform="matrix(1, 0, 0, -1, -190.5, 705.5)"/>
<path fill-rule="evenodd" fill="rgb(25.099182%, 87.799072%, 81.599426%)" fill-opacity="1" stroke-width="0.4" stroke-linecap="butt" stroke-linejoin="round" stroke="rgb(25.099182%, 87.799072%, 81.599426%)" stroke-opacity="1" stroke-miterlimit="10" d="M 256 704 L 252 704 L 252 652 L 256 652 Z M 256 704 " transform="matrix(1, 0, 0, -1, -190.5, 705.5)"/>
<path fill-rule="evenodd" fill="rgb(93.299866%, 50.999451%, 93.299866%)" fill-opacity="1" stroke-width="0.4" stroke-linecap="butt" stroke-linejoin="round" stroke="rgb(93.299866%, 50.999451%, 93.299866%)" stroke-opacity="1" stroke-miterlimit="10" d="M 252 576 L 256 576 L 256 628 L 252 628 Z M 252 576 " transform="matrix(1, 0, 0, -1, -190.5, 705.5)"/>
<path fill="none" stroke-width="2" stroke-linecap="butt" stroke-linejoin="round" stroke="rgb(74.499512%, 74.499512%, 74.499512%)" stroke-opacity="1" stroke-miterlimit="10" d="M 247.515625 631.515625 L 210.746094 594.746094 " transform="matrix(1, 0, 0, -1, -190.5, 705.5)"/>
<path fill="none" stroke-width="2" stroke-linecap="butt" stroke-linejoin="round" stroke="rgb(74.499512%, 74.499512%, 74.499512%)" stroke-opacity="1" stroke-miterlimit="10" d="M 244 640 L 192 640 " transform="matrix(1, 0, 0, -1, -190.5, 705.5)"/>
<path fill="none" stroke-width="2" stroke-linecap="butt" stroke-linejoin="round" stroke="rgb(74.499512%, 74.499512%, 74.499512%)" stroke-opacity="1" stroke-miterlimit="10" d="M 247.515625 648.484375 L 210.746094 685.253906 " transform="matrix(1, 0, 0, -1, -190.5, 705.5)"/>
<path fill="none" stroke-width="2" stroke-linecap="butt" stroke-linejoin="round" stroke="rgb(74.499512%, 74.499512%, 74.499512%)" stroke-opacity="1" stroke-miterlimit="10" d="M 251.40625 628.914062 L 231.507812 580.871094 " transform="matrix(1, 0, 0, -1, -190.5, 705.5)"/>
<path fill="none" stroke-width="2" stroke-linecap="butt" stroke-linejoin="round" stroke="rgb(74.499512%, 74.499512%, 74.499512%)" stroke-opacity="1" stroke-miterlimit="10" d="M 244.914062 635.40625 L 196.871094 615.507812 " transform="matrix(1, 0, 0, -1, -190.5, 705.5)"/>
<path fill="none" stroke-width="2" stroke-linecap="butt" stroke-linejoin="round" stroke="rgb(74.499512%, 74.499512%, 74.499512%)" stroke-opacity="1" stroke-miterlimit="10" d="M 244.914062 644.59375 L 196.871094 664.492188 " transform="matrix(1, 0, 0, -1, -190.5, 705.5)"/>
<path fill="none" stroke-width="2" stroke-linecap="butt" stroke-linejoin="round" stroke="rgb(74.499512%, 74.499512%, 74.499512%)" stroke-opacity="1" stroke-miterlimit="10" d="M 251.40625 651.085938 L 231.507812 699.128906 " transform="matrix(1, 0, 0, -1, -190.5, 705.5)"/>
<path fill="none" stroke-width="2" stroke-linecap="round" stroke-linejoin="round" stroke="rgb(0%, 0%, 0%)" stroke-opacity="1" stroke-miterlimit="10" d="M 320 640 C 320 675.347656 291.347656 704 256 704 C 220.652344 704 192 675.347656 192 640 C 192 604.652344 220.652344 576 256 576 C 291.347656 576 320 604.652344 320 640 " transform="matrix(1, 0, 0, -1, -190.5, 705.5)"/>
<path fill-rule="evenodd" fill="rgb(100%, 100%, 100%)" fill-opacity="1" stroke-width="2" stroke-linecap="round" stroke-linejoin="round" stroke="rgb(0%, 0%, 0%)" stroke-opacity="1" stroke-miterlimit="10" d="M 268 640 C 268 646.628906 262.628906 652 256 652 C 249.371094 652 244 646.628906 244 640 C 244 633.371094 249.371094 628 256 628 C 262.628906 628 268 633.371094 268 640 " transform="matrix(1, 0, 0, -1, -190.5, 705.5)"/>
</svg>
