<?xml version="1.0" encoding="UTF-8"?>
<svg xmlns="http://www.w3.org/2000/svg" xmlns:xlink="http://www.w3.org/1999/xlink" width="401.2" height="240.1" viewBox="0 0 401.2 240.1">
<defs>
<clipPath id="clip-0">
<path clip-rule="nonzero" d="M 0.351562 110 L 400.050781 110 L 400.050781 112 L 0.351562 112 Z M 0.351562 110 "/>
</clipPath>
</defs>
<path fill-rule="evenodd" fill="rgb(67.799377%, 84.698486%, 90.19928%)" fill-opacity="1" stroke-width="0.8" stroke-linecap="butt" stroke-linejoin="round" stroke="rgb(0%, 0%, 0%)" stroke-opacity="1" stroke-miterlimit="10" d="M 164.001602 680.000516 C 164.001602 702.090823 146.090965 720.00146 124.000658 720.00146 C 101.910351 720.00146 83.999714 702.090823 83.999714 680.000516 C 83.999714 657.910209 101.910351 639.999572 124.000658 639.999572 C 146.090965 639.999572 164.001602 657.910209 164.001602 680.000516 " transform="matrix(0.996266, 0, 0, -0.996266, -30.932116, 748.394689)"/>
<path fill-rule="evenodd" fill="rgb(67.799377%, 84.698486%, 90.19928%)" fill-opacity="1" stroke-width="0.8" stroke-linecap="round" stroke-linejoin="round" stroke="rgb(0%, 0%, 0%)" stroke-opacity="1" stroke-miterlimit="10" d="M 267.99935 639.999572 C 276.837041 655.463572 271.465419 675.162135 256.001419 683.999826 C 240.53742 692.837518 220.838857 687.465895 212.001166 672.001896 C 206.335476 662.085959 206.335476 649.915509 212.001166 639.999572 " transform="matrix(0.996266, 0, 0, -0.996266, -30.932116, 748.394689)"/>
<path fill-rule="evenodd" fill="rgb(67.799377%, 84.698486%, 90.19928%)" fill-opacity="1" stroke-width="0.8" stroke-linecap="butt" stroke-linejoin="round" stroke="rgb(0%, 0%, 0%)" stroke-opacity="1" stroke-miterlimit="10" d="M 383.99895 687.999136 C 383.99895 705.674519 369.672009 720.00146 352.000547 720.00146 C 334.325165 720.00146 319.998224 705.674519 319.998224 687.999136 C 319.998224 670.327675 334.325165 656.000734 352.000547 656.000734 C 369.672009 656.000734 383.99895 670.327675 383.99895 687.999136 " transform="matrix(0.996266, 0, 0, -0.996266, -30.932116, 748.394689)"/>
<path fill-rule="evenodd" fill="rgb(67.799377%, 84.698486%, 90.19928%)" fill-opacity="1" stroke-width="0.8" stroke-linecap="butt" stroke-linejoin="round" stroke="rgb(0%, 0%, 0%)" stroke-opacity="1" stroke-miterlimit="10" d="M 111.998806 639.999572 C 111.998806 657.674955 97.671866 672.001896 80.000404 672.001896 C 62.325021 672.001896 47.998081 657.674955 47.998081 639.999572 C 47.998081 622.328111 62.325021 608.00117 80.000404 608.00117 C 97.671866 608.00117 111.998806 622.328111 111.998806 639.999572 " transform="matrix(0.996266, 0, 0, -0.996266, -30.932116, 748.394689)"/>
<path fill-rule="evenodd" fill="rgb(67.799377%, 84.698486%, 90.19928%)" fill-opacity="1" stroke-width="0.8" stroke-linecap="butt" stroke-linejoin="round" stroke="rgb(0%, 0%, 0%)" stroke-opacity="1" stroke-miterlimit="10" d="M 227.778836 687.999136 C 227.778836 707.760434 211.75807 723.777279 192.000694 723.777279 C 172.239396 723.777279 156.222551 707.760434 156.222551 687.999136 C 156.222551 668.24176 172.239396 652.224915 192.000694 652.224915 C 211.75807 652.224915 227.778836 668.24176 227.778836 687.999136 " transform="matrix(0.996266, 0, 0, -0.996266, -30.932116, 748.394689)"/>
<path fill="none" stroke-width="0.8" stroke-linecap="butt" stroke-linejoin="round" stroke="rgb(0%, 0%, 0%)" stroke-opacity="1" stroke-miterlimit="10" d="M 227.778836 687.999136 C 227.778836 707.760434 211.75807 723.777279 192.000694 723.777279 C 172.239396 723.777279 156.222551 707.760434 156.222551 687.999136 C 156.222551 668.24176 172.239396 652.224915 192.000694 652.224915 C 211.75807 652.224915 227.778836 668.24176 227.778836 687.999136 " transform="matrix(0.996266, 0, 0, -0.996266, -30.932116, 748.394689)"/>
<path fill="none" stroke-width="0.8" stroke-linecap="butt" stroke-linejoin="round" stroke="rgb(0%, 0%, 0%)" stroke-opacity="1" stroke-miterlimit="10" d="M 383.99895 687.999136 C 383.99895 705.674519 369.672009 720.00146 352.000547 720.00146 C 334.325165 720.00146 319.998224 705.674519 319.998224 687.999136 C 319.998224 670.327675 334.325165 656.000734 352.000547 656.000734 C 369.672009 656.000734 383.99895 670.327675 383.99895 687.999136 " transform="matrix(0.996266, 0, 0, -0.996266, -30.932116, 748.394689)"/>
<path fill-rule="evenodd" fill="rgb(67.799377%, 84.698486%, 90.19928%)" fill-opacity="1" d="M 162.839844 27.097656 C 162.839844 25.722656 161.726562 24.609375 160.351562 24.609375 C 158.976562 24.609375 157.859375 25.722656 157.859375 27.097656 C 157.859375 28.472656 158.976562 29.589844 160.351562 29.589844 C 161.726562 29.589844 162.839844 28.472656 162.839844 27.097656 "/>
<path fill-rule="evenodd" fill="rgb(0%, 0%, 0%)" fill-opacity="1" d="M 163.339844 27.097656 C 163.339844 25.449219 162 24.109375 160.351562 24.109375 C 158.699219 24.109375 157.363281 25.449219 157.363281 27.097656 C 157.363281 28.75 158.699219 30.085938 160.351562 30.085938 C 162 30.085938 163.339844 28.75 163.339844 27.097656 M 162.34375 27.097656 C 162.34375 25.996094 161.453125 25.105469 160.351562 25.105469 C 159.25 25.105469 158.359375 25.996094 158.359375 27.097656 C 158.359375 28.199219 159.25 29.089844 160.351562 29.089844 C 161.453125 29.089844 162.34375 28.199219 162.34375 27.097656 "/>
<path fill-rule="evenodd" fill="rgb(67.799377%, 84.698486%, 90.19928%)" fill-opacity="1" d="M 322.242188 31.082031 C 322.242188 29.707031 321.128906 28.59375 319.753906 28.59375 C 318.378906 28.59375 317.261719 29.707031 317.261719 31.082031 C 317.261719 32.460938 318.378906 33.574219 319.753906 33.574219 C 321.128906 33.574219 322.242188 32.460938 322.242188 31.082031 "/>
<path fill-rule="evenodd" fill="rgb(0%, 0%, 0%)" fill-opacity="1" d="M 322.742188 31.082031 C 322.742188 29.433594 321.402344 28.09375 319.753906 28.09375 C 318.101562 28.09375 316.765625 29.433594 316.765625 31.082031 C 316.765625 32.734375 318.101562 34.074219 319.753906 34.074219 C 321.402344 34.074219 322.742188 32.734375 322.742188 31.082031 M 321.746094 31.082031 C 321.746094 29.984375 320.855469 29.089844 319.753906 29.089844 C 318.652344 29.089844 317.761719 29.984375 317.761719 31.082031 C 317.761719 32.183594 318.652344 33.074219 319.753906 33.074219 C 320.855469 33.074219 321.746094 32.183594 321.746094 31.082031 "/>
<path fill="none" stroke-width="0.8" stroke-linecap="round" stroke-linejoin="round" stroke="rgb(0%, 0%, 0%)" stroke-opacity="1" stroke-miterlimit="10" d="M 267.99935 639.999572 C 276.746861 655.463572 271.29682 675.087638 255.832821 683.831228 C 240.368822 692.578739 220.744755 687.132619 212.001166 671.66862 C 206.445261 661.842864 206.445261 649.825329 212.001166 639.999572 " transform="matrix(0.996266, 0, 0, -0.996266, -30.932116, 748.394689)"/>
<path fill-rule="evenodd" fill="rgb(67.799377%, 84.698486%, 90.19928%)" fill-opacity="1" d="M 210.664062 62.964844 C 210.664062 61.589844 209.546875 60.472656 208.171875 60.472656 C 206.796875 60.472656 205.679688 61.589844 205.679688 62.964844 C 205.679688 64.339844 206.796875 65.453125 208.171875 65.453125 C 209.546875 65.453125 210.664062 64.339844 210.664062 62.964844 "/>
<path fill-rule="evenodd" fill="rgb(0%, 0%, 0%)" fill-opacity="1" d="M 211.160156 62.964844 C 211.160156 61.3125 209.824219 59.976562 208.171875 59.976562 C 206.519531 59.976562 205.183594 61.3125 205.183594 62.964844 C 205.183594 64.613281 206.519531 65.953125 208.171875 65.953125 C 209.824219 65.953125 211.160156 64.613281 211.160156 62.964844 M 210.164062 62.964844 C 210.164062 61.863281 209.273438 60.972656 208.171875 60.972656 C 207.070312 60.972656 206.179688 61.863281 206.179688 62.964844 C 206.179688 64.066406 207.070312 64.957031 208.171875 64.957031 C 209.273438 64.957031 210.164062 64.066406 210.164062 62.964844 "/>
<path fill="none" stroke-width="0.8" stroke-linecap="round" stroke-linejoin="round" stroke="rgb(0%, 0%, 0%)" stroke-opacity="1" stroke-miterlimit="10" d="M 212.001166 639.999572 L 267.99935 639.999572 " transform="matrix(0.996266, 0, 0, -0.996266, -30.932116, 748.394689)"/>
<path fill="none" stroke-width="0.8" stroke-linecap="butt" stroke-linejoin="round" stroke="rgb(0%, 0%, 0%)" stroke-opacity="1" stroke-miterlimit="10" d="M 164.001602 680.000516 C 164.001602 702.090823 146.090965 720.00146 124.000658 720.00146 C 101.910351 720.00146 83.999714 702.090823 83.999714 680.000516 C 83.999714 657.910209 101.910351 639.999572 124.000658 639.999572 C 146.090965 639.999572 164.001602 657.910209 164.001602 680.000516 " transform="matrix(0.996266, 0, 0, -0.996266, -30.932116, 748.394689)"/>
<path fill-rule="evenodd" fill="rgb(67.799377%, 84.698486%, 90.19928%)" fill-opacity="1" d="M 95.09375 31.082031 C 95.09375 29.707031 93.980469 28.59375 92.605469 28.59375 C 91.230469 28.59375 90.113281 29.707031 90.113281 31.082031 C 90.113281 32.460938 91.230469 33.574219 92.605469 33.574219 C 93.980469 33.574219 95.09375 32.460938 95.09375 31.082031 "/>
<path fill-rule="evenodd" fill="rgb(0%, 0%, 0%)" fill-opacity="1" d="M 95.59375 31.082031 C 95.59375 29.433594 94.253906 28.09375 92.605469 28.09375 C 90.953125 28.09375 89.617188 29.433594 89.617188 31.082031 C 89.617188 32.734375 90.953125 34.074219 92.605469 34.074219 C 94.253906 34.074219 95.59375 32.734375 95.59375 31.082031 M 94.597656 31.082031 C 94.597656 29.984375 93.707031 29.089844 92.605469 29.089844 C 91.503906 29.089844 90.613281 29.984375 90.613281 31.082031 C 90.613281 32.183594 91.503906 33.074219 92.605469 33.074219 C 93.707031 33.074219 94.597656 32.183594 94.597656 31.082031 "/>
<path fill="none" stroke-width="0.8" stroke-linecap="butt" stroke-linejoin="round" stroke="rgb(0%, 0%, 0%)" stroke-opacity="1" stroke-miterlimit="10" d="M 111.998806 639.999572 C 111.998806 657.674955 97.671866 672.001896 80.000404 672.001896 C 62.325021 672.001896 47.998081 657.674955 47.998081 639.999572 C 47.998081 622.328111 62.325021 608.00117 80.000404 608.00117 C 97.671866 608.00117 111.998806 622.328111 111.998806 639.999572 " transform="matrix(0.996266, 0, 0, -0.996266, -30.932116, 748.394689)"/>
<path fill-rule="evenodd" fill="rgb(67.799377%, 84.698486%, 90.19928%)" fill-opacity="1" d="M 51.261719 78.902344 C 51.261719 77.527344 50.144531 76.414062 48.769531 76.414062 C 47.394531 76.414062 46.277344 77.527344 46.277344 78.902344 C 46.277344 80.28125 47.394531 81.394531 48.769531 81.394531 C 50.144531 81.394531 51.261719 80.28125 51.261719 78.902344 "/>
<path fill-rule="evenodd" fill="rgb(0%, 0%, 0%)" fill-opacity="1" d="M 51.757812 78.902344 C 51.757812 77.253906 50.417969 75.914062 48.769531 75.914062 C 47.117188 75.914062 45.78125 77.253906 45.78125 78.902344 C 45.78125 80.554688 47.117188 81.894531 48.769531 81.894531 C 50.417969 81.894531 51.757812 80.554688 51.757812 78.902344 M 50.761719 78.902344 C 50.761719 77.804688 49.871094 76.910156 48.769531 76.910156 C 47.667969 76.910156 46.777344 77.804688 46.777344 78.902344 C 46.777344 80.003906 47.667969 80.898438 48.769531 80.898438 C 49.871094 80.898438 50.761719 80.003906 50.761719 78.902344 "/>
<path fill-rule="evenodd" fill="rgb(100%, 100%, 100%)" fill-opacity="1" d="M 12.902344 110.785156 L 12.902344 158.605469 L 255.992188 158.605469 L 255.992188 110.785156 L 12.902344 110.785156 "/>
<g clip-path="url(#clip-0)">
<path fill="none" stroke-width="1.2" stroke-linecap="round" stroke-linejoin="round" stroke="rgb(66.299438%, 66.299438%, 66.299438%)" stroke-opacity="1" stroke-dasharray="1 3" stroke-miterlimit="10" d="M 32.00084 639.999572 L 431.998514 639.999572 " transform="matrix(0.996266, 0, 0, -0.996266, -30.932116, 748.394689)"/>
</g>
</svg>
