<?xml version="1.0" encoding="UTF-8"?>
<svg xmlns="http://www.w3.org/2000/svg" xmlns:xlink="http://www.w3.org/1999/xlink" width="67" height="131" viewBox="0 0 67 131">
<path fill-rule="evenodd" fill="rgb(82.699585%, 82.699585%, 82.699585%)" fill-opacity="1" d="M 1.5 129.5 C 36.847656 129.5 65.5 100.847656 65.5 65.5 C 65.5 30.152344 36.847656 1.5 1.5 1.5 "/>
<path fill-rule="evenodd" fill="rgb(25.099182%, 87.799072%, 81.599426%)" fill-opacity="1" d="M 1.5 129.5 L 5.5 129.5 L 5.5 77.5 L 1.5 77.5 Z M 1.5 129.5 "/>
<path fill-rule="evenodd" fill="rgb(93.299866%, 50.999451%, 93.299866%)" fill-opacity="1" d="M 5.5 1.5 L 1.5 1.5 L 1.5 53.5 L 5.5 53.5 Z M 5.5 1.5 "/>
<path fill-rule="evenodd" fill="rgb(100%, 100%, 100%)" fill-opacity="1" d="M 1.5 77.5 C 8.128906 77.5 13.5 72.128906 13.5 65.5 C 13.5 58.871094 8.128906 53.5 1.5 53.5 "/>
<path fill="none" stroke-width="2" stroke-linecap="butt" stroke-linejoin="round" stroke="rgb(74.499512%, 74.499512%, 74.499512%)" stroke-opacity="1" stroke-miterlimit="10" d="M 264.484375 648.484375 L 301.253906 685.253906 " transform="matrix(1, 0, 0, -1, -254.5, 705.5)"/>
<path fill="none" stroke-width="2" stroke-linecap="butt" stroke-linejoin="round" stroke="rgb(74.499512%, 74.499512%, 74.499512%)" stroke-opacity="1" stroke-miterlimit="10" d="M 268 640 L 320 640 " transform="matrix(1, 0, 0, -1, -254.5, 705.5)"/>
<path fill="none" stroke-width="2" stroke-linecap="butt" stroke-linejoin="round" stroke="rgb(74.499512%, 74.499512%, 74.499512%)" stroke-opacity="1" stroke-miterlimit="10" d="M 264.484375 631.515625 L 301.253906 594.746094 " transform="matrix(1, 0, 0, -1, -254.5, 705.5)"/>
<path fill="none" stroke-width="2" stroke-linecap="butt" stroke-linejoin="round" stroke="rgb(74.499512%, 74.499512%, 74.499512%)" stroke-opacity="1" stroke-miterlimit="10" d="M 260.59375 651.085938 L 280.492188 699.128906 " transform="matrix(1, 0, 0, -1, -254.5, 705.5)"/>
<path fill="none" stroke-width="2" stroke-linecap="butt" stroke-linejoin="round" stroke="rgb(74.499512%, 74.499512%, 74.499512%)" stroke-opacity="1" stroke-miterlimit="10" d="M 267.085938 644.59375 L 315.128906 664.492188 " transform="matrix(1, 0, 0, -1, -254.5, 705.5)"/>
<path fill="none" stroke-width="2" stroke-linecap="butt" stroke-linejoin="round" stroke="rgb(74.499512%, 74.499512%, 74.499512%)" stroke-opacity="1" stroke-miterlimit="10" d="M 267.085938 635.40625 L 315.128906 615.507812 " transform="matrix(1, 0, 0, -1, -254.5, 705.5)"/>
<path fill="none" stroke-width="2" stroke-linecap="butt" stroke-linejoin="round" stroke="rgb(74.499512%, 74.499512%, 74.499512%)" stroke-opacity="1" stroke-miterlimit="10" d="M 260.59375 628.914062 L 280.492188 580.871094 " transform="matrix(1, 0, 0, -1, -254.5, 705.5)"/>
<path fill="none" stroke-width="2" stroke-linecap="butt" stroke-linejoin="round" stroke="rgb(0%, 0%, 0%)" stroke-opacity="1" stroke-miterlimit="10" d="M 256 576 C 291.347656 576 320 604.652344 320 640 C 320 675.347656 291.347656 704 256 704 " transform="matrix(1, 0, 0, -1, -254.5, 705.5)"/>
<path fill="none" stroke-width="2" stroke-linecap="butt" stroke-linejoin="round" stroke="rgb(0%, 0%, 0%)" stroke-opacity="1" stroke-miterlimit="10" d="M 256 628 C 262.628906 628 268 633.371094 268 640 C 268 646.628906 262.628906 652 256 652 " transform="matrix(1, 0, 0, -1, -254.5, 705.5)"/>
</svg>
